<mxfile host="65bd71144e">
    <diagram id="IVpd8p_ZFYiGiZU8Sfr-" name="ページ1">
        <mxGraphModel dx="1556" dy="785" grid="1" gridSize="10" guides="1" tooltips="1" connect="1" arrows="1" fold="1" page="1" pageScale="1" pageWidth="1169" pageHeight="827" math="0" shadow="0">
            <root>
                <mxCell id="0"/>
                <mxCell id="1" parent="0"/>
                <mxCell id="28" value="" style="rounded=0;whiteSpace=wrap;html=1;fillColor=none;strokeColor=none;fontColor=#000000;fontSize=18;fontFamily=Noto Sans JP;fontSource=https%3A%2F%2Ffonts.googleapis.com%2Fcss%3Ffamily%3DNoto%2BSans%2BJP;verticalAlign=top;" parent="1" vertex="1">
                    <mxGeometry x="40" y="40" width="760" height="390" as="geometry"/>
                </mxCell>
                <mxCell id="25" value="クライアントサイド" style="rounded=0;whiteSpace=wrap;html=1;fillColor=none;strokeColor=#cccccc;fontColor=#FFFFFF;fontSize=18;fontFamily=Noto Sans JP;fontSource=https%3A%2F%2Ffonts.googleapis.com%2Fcss%3Ffamily%3DNoto%2BSans%2BJP;verticalAlign=top;" parent="1" vertex="1">
                    <mxGeometry x="70" y="165" width="260" height="160" as="geometry"/>
                </mxCell>
                <mxCell id="18" value="サーバーサイド" style="rounded=0;whiteSpace=wrap;html=1;fillColor=none;strokeColor=#cccccc;fontColor=#FFFFFF;fontSize=18;fontFamily=Noto Sans JP;fontSource=https%3A%2F%2Ffonts.googleapis.com%2Fcss%3Ffamily%3DNoto%2BSans%2BJP;verticalAlign=top;" parent="1" vertex="1">
                    <mxGeometry x="470" y="50" width="320" height="370" as="geometry"/>
                </mxCell>
                <mxCell id="5" value="フロントエンドWebサーバー" style="rounded=0;whiteSpace=wrap;html=1;fillColor=none;strokeColor=#cccccc;fontColor=#FFFFFF;fontSize=18;fontFamily=Noto Sans JP;fontSource=https%3A%2F%2Ffonts.googleapis.com%2Fcss%3Ffamily%3DNoto%2BSans%2BJP;verticalAlign=top;" parent="1" vertex="1">
                    <mxGeometry x="480" y="90" width="300" height="170" as="geometry"/>
                </mxCell>
                <mxCell id="6" value="コンパイル済み静的ファイル" style="rounded=0;whiteSpace=wrap;html=1;fillColor=none;strokeColor=#cccccc;fontColor=#FFFFFF;fontSize=18;fontFamily=Noto Sans JP;fontSource=https%3A%2F%2Ffonts.googleapis.com%2Fcss%3Ffamily%3DNoto%2BSans%2BJP;verticalAlign=top;" parent="1" vertex="1">
                    <mxGeometry x="490" y="130" width="280" height="120" as="geometry"/>
                </mxCell>
                <mxCell id="7" value="CSS" style="text;html=1;strokeColor=none;fillColor=none;align=center;verticalAlign=middle;whiteSpace=wrap;rounded=0;fontFamily=Noto Sans JP;fontSource=https%3A%2F%2Ffonts.googleapis.com%2Fcss%3Ffamily%3DNoto%2BSans%2BJP;fontSize=14;fontColor=#FFFFFF;" parent="1" vertex="1">
                    <mxGeometry x="600" y="210" width="60" height="30" as="geometry"/>
                </mxCell>
                <mxCell id="8" value="HTML" style="text;html=1;strokeColor=none;fillColor=none;align=center;verticalAlign=middle;whiteSpace=wrap;rounded=0;fontFamily=Noto Sans JP;fontSource=https%3A%2F%2Ffonts.googleapis.com%2Fcss%3Ffamily%3DNoto%2BSans%2BJP;fontSize=14;fontColor=#FFFFFF;" parent="1" vertex="1">
                    <mxGeometry x="509.90999999999997" y="210" width="60" height="30" as="geometry"/>
                </mxCell>
                <mxCell id="9" value="JavaScript" style="text;html=1;strokeColor=none;fillColor=none;align=center;verticalAlign=middle;whiteSpace=wrap;rounded=0;fontFamily=Noto Sans JP;fontSource=https%3A%2F%2Ffonts.googleapis.com%2Fcss%3Ffamily%3DNoto%2BSans%2BJP;fontSize=14;fontColor=#FFFFFF;" parent="1" vertex="1">
                    <mxGeometry x="680" y="210" width="80" height="30" as="geometry"/>
                </mxCell>
                <mxCell id="3" value="" style="shape=image;verticalLabelPosition=bottom;labelBackgroundColor=#ffffff;verticalAlign=top;aspect=fixed;imageAspect=0;image=data:image/png,iVBORw0KGgoAAAANSUhEUgAAANoAAADbCAYAAAALQY9+AAAAAXNSR0IArs4c6QAAAARnQU1BAACxjwv8YQUAAAAJcEhZcwAAFxEAABcRAcom8z8AABadSURBVHhe7Z0JXNVV2setqalMS4XLvi8iKqAomqCi4oKAAuLuOLn0qqSomU6bjjW+jdWU2kzaFCWoLWZaaTX1ttjikqO45S6iILuAyi6gPO95/vyvHbdE5Fyu8Pt++nWxBD73PM/3nvPfmwEAAAAAAAAAAAAAAAAAAAAAAAAAAAAAAAAAAAAAAAAAGoRNmzY5zZwyJSSsb88xPu4uU1wNFrFabAxIA8ZZr0FwQJdpI4aE/Sk8JLj/1AljPInofr104E7g8REjWjw7d26nKRPGz4kJH/xFr67+xzu4OBa6GdqUullZlLpbWyINGFdRB37t7tehZGCvoFO9unb+sn/gIwtjJ00KX/Tcc84/JPwA4cydDWvWOMSEhk4K6uS3vpuP92H/dp7Fvh6u5O1oR562VjWxQxo0eg183V1I1Ic6uDqVeDvZJ3f19toSOXDAm0/PmRMhZrd79ZICc0IU5q43Fy92GR05ZHafgC7bOro6awV1MbQhMYuR+AQldxsDYkbhuriKuInaiFmO2jnYUg8/n9Lwvn0+HRE1ZOTCefPs9PICc+GjxET7cdGRcYF+vvt93Jyr2tpZawU05nqFRho2v9VGRLx62Bqorb0NtXd1KA/o2G7H6OghcfuP73fQSwzMgeHhoSOCOnfa4ePmUs2SceEg2J0XbQVibUHtnR2q+3bvunfSn8c8tWXLFie9zKChSEpKund1fLxHv0e6vdXBxanaU5/J5OLxnx1aP0TWLR4gq+b3IWYQG1EL+4dbkLNl62vqxctJD7Hs7+zlTr27+R8YEx05NSokxEIvOWgI4pcts549PXZacID/bk0yfc0vS2bcDuDiIeYRdxFjbYz1kWvGr15iGenlaFfl7eSw2cPeJiY4uNk9etmBqYmdPNl7VGRYYqCfT6GxcMaCcfhTk1+HhYXSogXP0fKlS2j5sqVIA+ZfS16lF+Y/QxPHjKLATj7k2OZhsn2o+eUPQ2PtjDtLXCzblLhZWW5yt7WItLW1ba6XHpiS4IDOXYP8fX/q3Na9pjj6p6H2SSnW+14OthQ1aAC9l7CScnNyCJgH2VlZ9M1XX9ILzz5DocG9hGDW5Ni6pbaU5NnOKJsxoq4X3K0N/3G1s4zwsrBoqZcfmIq2TrZBYnlxgI+TyYVxsmhFDq1a0pD+fWlNQgJlZ2bqJQbmQnFxMSUfO0prVr5DIyLCxMzVmuwefvCKOhrjIeJmY1nsam340s1gGCZK/4eaDgDKEbW6K7Rv7zCx3Ei++jgZ7/zgDe7pkydSWmpqTWWBWXJGrDQ+SEyk4WJ5zysR6wfv1/Y+ystIFo3/zDObm5Xhcxcri6HtDYYWeisAlYga3TU+JmZYOye7a0SzF7MZF2xu3HQqKiysqSgwKdXV1VRWVkolYuaqrKjQ/+v1yc3OprWrV1HM4EHazOYglpEsm1zTy7G2LOdlpIdYRmKbzUT07t5lgIed9RE+C0QuhlG0eTNnaIUGpuXixYuUkpxMX3/5OW1Yt5b+u30bnTt7Vv+/1ydHbLd9sCpBm9l4W82mZfMramqMp23NMlJ8/YWbrVV0M+yNVI9d65aBrlaGg9pBaqkYRtGenPE4FZ4/r5cSmILioiL64dtv6X//Op8mjR1No6OH0qxpUynh7bfENtkx/W9dn5zsLHo/YSUNGzxQW0baCtluvIw0XHCzMWx0tbaMsMAOErU4GVoHiQE/BNHMA57Jdu/cSbETHqV2jnYkVhvExzfFUo+Cu/pT/PI36GxBvrasvBG844pntmFiGckzG29vs3RyfY0R22yl4v99ybK1b9/sj3pbgPrGzdbQE6KZD1mZGfTOmyuot5Cq1R+aaTXgY5mt7rlb2xMcO3ECbd/6M5WXlenfcX14GcmHZHhmY9n458j1NcbTRsxsYhkpZrZNLnYWQ7t0aYaz/lUA0cyLQwcP0AvPPU3dfTuQ3UMPXt6hwfXgk4ZHDo2gj9d+UKuaGGWLDh2gHRO15Z8npLtmGSmi7Y20MXwmpBuMZaQCIJp5cViI9rf5z1KPTh21mexK0axodNRQ2vDRh1RUy5pkiWVkjWwDLx8b/Z1lZLG7leFzVzvriIXNmt2ttwioDyCaeXHk8CF6ceECCuzse41ovK02dlgUfbp+3S0dcuGZjQ9qs2z886xEXYVUV8xsUkrauzp9FhwQECG2A+/T2wTcLhDNvFAhGsM7SFi2qEH9tZ9p36rmzH9ZNqN83k725T38fDfOeuyxQevWrcNB7foAopkXqkRjMtPTddkGaMtI/pksl1x3Y/zbeRbFDA7d+Ozs2eHiW+/S2wXUFYhmXqgUjeGZbfW7xpmtZm8kb7MZZzYWj//c3smeAv06lg4PD13/5IzY8NzcXMxstwNEMy9Ui8YYZYscGHL5OJvx9xjDl9jw72PZYsIGffLUrFl94uLisM1WVyCaeWEK0RheRq5+J16b2RzFMpIPJcj1N14ALLbXqFvHdtlDBoQsGzcy2l9vG3CrQDTzwlSiMVkZ6ZQY/zYNHRDCF4eSTcsHrlhGcvi4m5eD7aUefj7HYyIGTxffhntG1gWIZl6YUjSGZ7ZVYmaLFLI5W7bSdpLIx9l4ZuPe8PVwrR4c3Dtxw9q1HRcuXIhjbLcKRDMvbibauJho+mzDx/UmGpOZfppWiZktSmyzsWRXLyP5Eiq+0r7fIwFJ82bPnPLqqwst9fYBtQWimReHDx3U7s3So5PPDUXb+Ml6Ki0p0b+jfsjKyKAVy5ZScIA/OYtZjbfPjLv+WT7+OqiTb/7YYUPjZ82a5qW3D6gtEM28uNGMxnsGeduJj4GtSXiXzp87p39H/cBXA+zdnUTzZk6ngA7ttCWk8Xcbhevi3ba6X2D3byMG9cNOkVsFopkXJ0+coKUvv0S9xcyinVRs2VqrBzc9zyz+Xp70zJzZlHz8969LqwslJcX0yccfaadqseS8N1LuiQ4ujuTj5ryvk5d7oN4+oLZANPMiPy+PPlyVSAOCepDhgT9qyziuB88qLJpj64dpUK8g+ve//klHxDIzJztbfM8ZLXk3yZncXMo7c4bKy8v133Ytx44eoamPjtfuF8MnIMs9wVfhu1pZHuWe0dsH1BaIZl5crKqibT/9SDFhoWR5/73aEs5YE5aNDzB72dtSSI/uNC9uBsWvWE7vJyZoeS9x5e8mIf5tbdnJP/9sQYH+G6+Eb5cwZ3qsVnue1eSegGi3AUQzP9JOnaK/zI7j++drS0bjtpIxTm1aiZntIW0ZGd4vmKIHD9QSFTrgdzOkfz+KHNifJo8bQ/FvrqDTqaf03/gbfH+YuTNnXFc07hHRK0cgWh2AaOYHN/unH6+jUZER2izGdyGWa2NcRt5qWFieEW1bNKdBvXvSJ+s+umbvJdeaaw7R6hmIZn7wHsDMjHR6bfGL1MnTXasDi6I9nkmvD8vG4vDtwHl2q224rq3vvZv8PNzo+WeepkO//nrF/UcgmiIgmvmyZ9cu+susmcS3a+cdI3ZiZrt6GXmrYUF5byY/aDJ24qP04/ffQTRTANHMl6qqKtq9a6e204O3x/iANZ8mxcfUnMRMxsvAWw3vXGFpfd1d6eknZgmZd0I0UwDRzJuKigram5REr//jZRoTFUnezvaaKJoIokYsXa0j/r6dkKf1PXdTz85+2jmOZ/Pz9d9UA0RTBES7M+CTfzeuX08L/jJXOw1rSEhf6h/0CPXp3pX6dOtKfcXrzcK3sAvu1oUi+vWhRQvm05GDB/Sf/hsQTREQ7c6BDzTzRZu7dvxCG9aupRWvL6XXXvq7ttNkycuLb5pXXlyk/X3eo3kqJYWqKiv1n/wbEE0REO3Og7ep+IDz6dRUSjmRrN2jn0/duln4tC3++793niREUwREAzIQTREQDchANEVANCAD0RQB0YAMRFMERAMyEE0REA3IQDRFQDQgA9EUAdGADERTBEQDMhBNERANyEA0RUA0IAPRFAHRgAxEUwREAzIQTREQDchANEVANCAD0RQB0YAMRFMERAMyEE0REA3IQDRFQDQgA9EUAdGADERTBEQDMhBNERANyEA0RUA0IAPRFAHRgAxEUwREAzIQTREQDchANEVANCAD0RRhCtFKqi7RwfPltOVMCf2UW5Ofkcvh8fgxp4S2ifFJKa6giku/Pa/M1EA0RagUjdulVEi2M7+U3jiWR0/vzaKn9PDXSE20MdmTRfP3ZdO7Jwpo79kybdwaAoimCJWiVYlP5n2iaf55NI+m7EinUVtSaexW5EYZtzWNJm4/Ta8dPiNmtgv6KJoWiKYIlaJduFhNmzIKacbODBr+0ymK+vEkjfj5FHKDxIgxCvn2BP2P+FDaU1Cmj6JpgWiKUClahRDtq6wieiKpRrShQjRuJuTaDBOJFgn9PoVm7cqgX8VKoCGAaIpQKRpv0x86X06vHzlDY8SycfDmFDGriYZCrgl/CA394SSNEUvIJWLpeLK4Qh9F0wLRFKFSNKa48iLtyCvRdob8dX82Pf9rDr0g8jfkcng8nhdjs+hANsUnF4jxKqXzldgZ0qhQLRpTdvESZZRVarv494glEYf3rCE14fHgnUaHxfjklFVRpVgKNNQOfoimCFOIZuRSdTVdEE3E4WNFSE14PFguHp+GBqIpwpSiAfMHoikCogEZiKYIiAZkIJoiIBqQgWiKgGhABqIpAqIBGYimCFOIxnut+Wz085UX6VwFoiKFYmz5eOXtAtEUYQrRcsuraHNOMX1w6iy9p+d9pF7y3smztEZkXeo52nbm9s8ogWiKUCnaJTGT5QjJ/pNZRM/vz6Gp/02/nGlIvWTqjnTtEqRY8fVLB3Npe16JtnKo66FviKYIlaLx2Q58BTFLNn5rmnaWOl+ThtRvRorwydoTt6fRW8fz6GhhufYhVxcgmiJUisbXo32WXkiPi09bvkwmGtejKclwkQg+818I98qhXNpdUEYX63g6F0RThOoZ7cfcYnpmb5Y2m4VtTqFIIRtSv+FLbELF2I7bmkr/Pp5Pxwsr6nzeJERThErRuNRpJRViY71AbEuc1j55x4olJF+yj9RfeExH/pxKT+zOoK+zirQ9kHUFoilCpWgMn52eXHyBNmWcp5Up+fTOiQLtBjRI/YXHNDGlgL7KKqT0sgrtcEpdgWiKUC2aET7Gc+ZCFaWXVmrJQOolxvHksS0VY3wbjmlANEWYSjQj3Ah8pIdfkduPcSzrC4imCFOLBswbiKYIiAZkIJoiIBqQgWiKgGhABqIpAqIBGYimCIgGZCCaIkwhGp+KlVlWSceKLtDRwqadI4Xl2mtqSeVtncGhCoimCNWi8cmtx4VgH5w6R/84nEuvHDrTpMOXsvDr28cLaEtuCRVV3v5B5voEoilCpWgsWbKQbFXKWZqdlEl/2ppGf95Wk0ebaMbrmbT9tBAul3bll1JRAz0L7XpANEWoFI2fJvN1ZhE9KSQb9XOqdpnMSOnyjqYYPvmXr2SI+CFFezwTXyWdLpbV5gJEU4RK0fh6tM8zCiluZwaNuOp6ND6TvymG3zs/oomvH5u84zQlnDhLpxroyTHXA6IpQqVofK8YXhq9eCBH+xQf+P0JGiIajB9P1FTD7z9880kxFik0fVeGNuPzzXXMBYimCJWiMfkXquirzEJasC9bu8fFDNFccSIzm2j4/fMTUPnrt5Lz6VSJ+cxmDERThGrReIdIXkUV7TtXRt/nFNH/ZdXkmyYansH4lZ8Zl1ZSqV2vZ05ANEWoFk2m/NIlKqqsuQchvzbF8HvnhzNW387VmQqBaIowpWjA/IFoioBoQAaiKQKiARmIpgiIBmQgmiIgGpCBaIqAaEAGoinCVKJpd2wS/2qKEf/cMUA0RZhCND5+tO8sH7Aupm+za/JdIw+/x2+yimmzeD18vlx7PtydAERThErR+JO8WDTYL3mltOxIHs3bk0lzd2dpmdfIw+/xSZGn9mTRiuN5tEOMAX/gmDsQTREqRasS6yZ+ssmSw3n02C/p2iUiY7bWZGwjD7/H0VvE65Y0mrA9jV4+lKtdXW3uQDRFqBSNL5PZmF5I03dmaI9timpCl8kY36N21cJ3KTTxlzTafqZEHxnzBaIpQqVofOEnn0DMF36yaHyJCF+L1ZQSJTL4+5PaEzl35pfqI2O+QDRFqBSN97jxcumNo3nEz+7i56NFX9WIjTk8g/Pzy/jWBUvFNuqJogv6yJgvEE0RKkVjSqouUVJBKb2dnK9dAPr3g7m0uImE3+/igzm0KqVA21bFzpAmjGrRmAtiasspr6SjReX067maHGjkMb5Hfp50rnjvvHf/TjieBtEUYQrRjHCj8T0em1Lq+ojbhgKiKcKUogHzB6IpAqIBGYimCIgGZCCaIiAakIFoioBoQAaiKQKiARmIpgiIBmQgmiIgGpCBaIqAaEAGoikCogEZiKYIiAZkIJoiIBqQgWiKgGhABqIpAqIBGYimCIgGZCCaIiAakIFoioBoQAaiKQKiARmIpgiIBmQgmiIgGpCBaIqAaEAGoikCogEZiKYIiAZkIJoiIBqQgWiKgGhABqIpAqIBGYimCIgGZCCaIiAakIFoioBoQAaiKQKiARmIpgiIBmQgmiIgGpCBaIqAaEAGoikCogEZiKYIiAZkIJoiIBqQgWiKgGhABqIpAqIBGYimCIgGZCCaIiAakIFoioBoQAaiKQKiARmIpgiIBmQgmiIgGpCBaIqAaEAGoikCogEZiKYIiAZkIJoiIBqQgWiKgGhABqIpAqIBGYimiJuJNm/mDCopLtbLABo7XGuuOUSrZ24m2ty46VRUWKiXATR2uNZcc4hWzzhaturlYmhzxNPW6opBdWj9ENm0eICmT55IaampehlAY4drzTXn2juID1u5J7hHnA1tjnHP6O0DaktbJ6cgL0e7A96OdlcMqpNFK22gh/TvS2sSEig7M1MvBWiscI251lxzrr2TxcNX9AT3iJeD3SHuGb19QG0J6dEjoKe/70+d27prg+lmbam9ulpZkKuhjRhYW4oaNIDeS1hJuTk5eklAYyM3N1erMdeaa8615x6Qe4J7pGdnvy3cM3r7gNoSO3my96jIsMRAP59CHlDj4BpjXKcPCwulRQueo+VLl9DyZUuRxhRR00UL5ms1lmtuDPcE9wb3yMih4au5Z/T2AbUlftky69nTY6cFB/jv9uSNXX1QjYNslI9fPcQaHWm8kWst1597gnuDe2TW49NiuWf09gG1JSkp6d7V8fEe/R7p9lYHF6dqTTZpoI2DzTtHrMUGslXz+5BGGK4t1/h6teee4N7gHlm5cqUn94zePuBWGR4eOiKoc6cdPm4u1dqufv4ku2rQkaYTrj2He8HHzbmae4N7RG8XUFc+Sky0HxcdGRfo57tfDGxVzTGTmsGGcE0ncs15JuNeENtm+7k3uEf0dgF1hYjuenPxYpfRkUNm9wnosq2jq7N23MTF0EZbo/MMd73CII0oLJioNdeca889wL3APcG9wT2itwu4XT788EPHYaGhkwP9/TZ08/E+4u/lWeLr4ULtHO20wddihzSq6HXlGnOtueZc+8DOvp9wL3BP6O0B6pPHR4xo8ezcuZ2mTBg/JyZ88Be9uvof7+DiWOhmaFMqPvFKxScf0ojCNeXaco251lxzrj33APeC3hZAFZs2bXKaOWVKSFjfnmN83F2muBosYrXYGJDGFL2uXGOuNdeca6+3AQAAAAAAAAAAAAAAAAAAAAAAAAAAAAAAAAAAAAAAAADAlDRr9v/lMcv594oauQAAAABJRU5ErkJggg==;" parent="1" vertex="1">
                    <mxGeometry x="519.9999999999999" y="170" width="39.82" height="40" as="geometry"/>
                </mxCell>
                <mxCell id="10" value="" style="shape=image;verticalLabelPosition=bottom;labelBackgroundColor=#ffffff;verticalAlign=top;aspect=fixed;imageAspect=0;image=data:image/png,iVBORw0KGgoAAAANSUhEUgAAANoAAADbCAYAAAALQY9+AAAAAXNSR0IArs4c6QAAAARnQU1BAACxjwv8YQUAAAAJcEhZcwAAFxEAABcRAcom8z8AABadSURBVHhe7Z0JXNVV2setqalMS4XLvi8iKqAomqCi4oKAAuLuOLn0qqSomU6bjjW+jdWU2kzaFCWoLWZaaTX1ttjikqO45S6iILuAyi6gPO95/vyvHbdE5Fyu8Pt++nWxBD73PM/3nvPfmwEAAAAAAAAAAAAAAAAAAAAAAAAAAAAAAAAAAAAAAAAAGoRNmzY5zZwyJSSsb88xPu4uU1wNFrFabAxIA8ZZr0FwQJdpI4aE/Sk8JLj/1AljPInofr104E7g8REjWjw7d26nKRPGz4kJH/xFr67+xzu4OBa6GdqUullZlLpbWyINGFdRB37t7tehZGCvoFO9unb+sn/gIwtjJ00KX/Tcc84/JPwA4cydDWvWOMSEhk4K6uS3vpuP92H/dp7Fvh6u5O1oR562VjWxQxo0eg183V1I1Ic6uDqVeDvZJ3f19toSOXDAm0/PmRMhZrd79ZICc0IU5q43Fy92GR05ZHafgC7bOro6awV1MbQhMYuR+AQldxsDYkbhuriKuInaiFmO2jnYUg8/n9Lwvn0+HRE1ZOTCefPs9PICc+GjxET7cdGRcYF+vvt93Jyr2tpZawU05nqFRho2v9VGRLx62Bqorb0NtXd1KA/o2G7H6OghcfuP73fQSwzMgeHhoSOCOnfa4ePmUs2SceEg2J0XbQVibUHtnR2q+3bvunfSn8c8tWXLFie9zKChSEpKund1fLxHv0e6vdXBxanaU5/J5OLxnx1aP0TWLR4gq+b3IWYQG1EL+4dbkLNl62vqxctJD7Hs7+zlTr27+R8YEx05NSokxEIvOWgI4pcts549PXZacID/bk0yfc0vS2bcDuDiIeYRdxFjbYz1kWvGr15iGenlaFfl7eSw2cPeJiY4uNk9etmBqYmdPNl7VGRYYqCfT6GxcMaCcfhTk1+HhYXSogXP0fKlS2j5sqVIA+ZfS16lF+Y/QxPHjKLATj7k2OZhsn2o+eUPQ2PtjDtLXCzblLhZWW5yt7WItLW1ba6XHpiS4IDOXYP8fX/q3Na9pjj6p6H2SSnW+14OthQ1aAC9l7CScnNyCJgH2VlZ9M1XX9ILzz5DocG9hGDW5Ni6pbaU5NnOKJsxoq4X3K0N/3G1s4zwsrBoqZcfmIq2TrZBYnlxgI+TyYVxsmhFDq1a0pD+fWlNQgJlZ2bqJQbmQnFxMSUfO0prVr5DIyLCxMzVmuwefvCKOhrjIeJmY1nsam340s1gGCZK/4eaDgDKEbW6K7Rv7zCx3Ei++jgZ7/zgDe7pkydSWmpqTWWBWXJGrDQ+SEyk4WJ5zysR6wfv1/Y+ystIFo3/zDObm5Xhcxcri6HtDYYWeisAlYga3TU+JmZYOye7a0SzF7MZF2xu3HQqKiysqSgwKdXV1VRWVkolYuaqrKjQ/+v1yc3OprWrV1HM4EHazOYglpEsm1zTy7G2LOdlpIdYRmKbzUT07t5lgIed9RE+C0QuhlG0eTNnaIUGpuXixYuUkpxMX3/5OW1Yt5b+u30bnTt7Vv+/1ydHbLd9sCpBm9l4W82mZfMramqMp23NMlJ8/YWbrVV0M+yNVI9d65aBrlaGg9pBaqkYRtGenPE4FZ4/r5cSmILioiL64dtv6X//Op8mjR1No6OH0qxpUynh7bfENtkx/W9dn5zsLHo/YSUNGzxQW0baCtluvIw0XHCzMWx0tbaMsMAOErU4GVoHiQE/BNHMA57Jdu/cSbETHqV2jnYkVhvExzfFUo+Cu/pT/PI36GxBvrasvBG844pntmFiGckzG29vs3RyfY0R22yl4v99ybK1b9/sj3pbgPrGzdbQE6KZD1mZGfTOmyuot5Cq1R+aaTXgY5mt7rlb2xMcO3ECbd/6M5WXlenfcX14GcmHZHhmY9n458j1NcbTRsxsYhkpZrZNLnYWQ7t0aYaz/lUA0cyLQwcP0AvPPU3dfTuQ3UMPXt6hwfXgk4ZHDo2gj9d+UKuaGGWLDh2gHRO15Z8npLtmGSmi7Y20MXwmpBuMZaQCIJp5cViI9rf5z1KPTh21mexK0axodNRQ2vDRh1RUy5pkiWVkjWwDLx8b/Z1lZLG7leFzVzvriIXNmt2ttwioDyCaeXHk8CF6ceECCuzse41ovK02dlgUfbp+3S0dcuGZjQ9qs2z886xEXYVUV8xsUkrauzp9FhwQECG2A+/T2wTcLhDNvFAhGsM7SFi2qEH9tZ9p36rmzH9ZNqN83k725T38fDfOeuyxQevWrcNB7foAopkXqkRjMtPTddkGaMtI/pksl1x3Y/zbeRbFDA7d+Ozs2eHiW+/S2wXUFYhmXqgUjeGZbfW7xpmtZm8kb7MZZzYWj//c3smeAv06lg4PD13/5IzY8NzcXMxstwNEMy9Ui8YYZYscGHL5OJvx9xjDl9jw72PZYsIGffLUrFl94uLisM1WVyCaeWEK0RheRq5+J16b2RzFMpIPJcj1N14ALLbXqFvHdtlDBoQsGzcy2l9vG3CrQDTzwlSiMVkZ6ZQY/zYNHRDCF4eSTcsHrlhGcvi4m5eD7aUefj7HYyIGTxffhntG1gWIZl6YUjSGZ7ZVYmaLFLI5W7bSdpLIx9l4ZuPe8PVwrR4c3Dtxw9q1HRcuXIhjbLcKRDMvbibauJho+mzDx/UmGpOZfppWiZktSmyzsWRXLyP5Eiq+0r7fIwFJ82bPnPLqqwst9fYBtQWimReHDx3U7s3So5PPDUXb+Ml6Ki0p0b+jfsjKyKAVy5ZScIA/OYtZjbfPjLv+WT7+OqiTb/7YYUPjZ82a5qW3D6gtEM28uNGMxnsGeduJj4GtSXiXzp87p39H/cBXA+zdnUTzZk6ngA7ttCWk8Xcbhevi3ba6X2D3byMG9cNOkVsFopkXJ0+coKUvv0S9xcyinVRs2VqrBzc9zyz+Xp70zJzZlHz8969LqwslJcX0yccfaadqseS8N1LuiQ4ujuTj5ryvk5d7oN4+oLZANPMiPy+PPlyVSAOCepDhgT9qyziuB88qLJpj64dpUK8g+ve//klHxDIzJztbfM8ZLXk3yZncXMo7c4bKy8v133Ytx44eoamPjtfuF8MnIMs9wVfhu1pZHuWe0dsH1BaIZl5crKqibT/9SDFhoWR5/73aEs5YE5aNDzB72dtSSI/uNC9uBsWvWE7vJyZoeS9x5e8mIf5tbdnJP/9sQYH+G6+Eb5cwZ3qsVnue1eSegGi3AUQzP9JOnaK/zI7j++drS0bjtpIxTm1aiZntIW0ZGd4vmKIHD9QSFTrgdzOkfz+KHNifJo8bQ/FvrqDTqaf03/gbfH+YuTNnXFc07hHRK0cgWh2AaOYHN/unH6+jUZER2izGdyGWa2NcRt5qWFieEW1bNKdBvXvSJ+s+umbvJdeaaw7R6hmIZn7wHsDMjHR6bfGL1MnTXasDi6I9nkmvD8vG4vDtwHl2q224rq3vvZv8PNzo+WeepkO//nrF/UcgmiIgmvmyZ9cu+susmcS3a+cdI3ZiZrt6GXmrYUF5byY/aDJ24qP04/ffQTRTANHMl6qqKtq9a6e204O3x/iANZ8mxcfUnMRMxsvAWw3vXGFpfd1d6eknZgmZd0I0UwDRzJuKigram5REr//jZRoTFUnezvaaKJoIokYsXa0j/r6dkKf1PXdTz85+2jmOZ/Pz9d9UA0RTBES7M+CTfzeuX08L/jJXOw1rSEhf6h/0CPXp3pX6dOtKfcXrzcK3sAvu1oUi+vWhRQvm05GDB/Sf/hsQTREQ7c6BDzTzRZu7dvxCG9aupRWvL6XXXvq7ttNkycuLb5pXXlyk/X3eo3kqJYWqKiv1n/wbEE0REO3Og7ep+IDz6dRUSjmRrN2jn0/duln4tC3++793niREUwREAzIQTREQDchANEVANCAD0RQB0YAMRFMERAMyEE0REA3IQDRFQDQgA9EUAdGADERTBEQDMhBNERANyEA0RUA0IAPRFAHRgAxEUwREAzIQTREQDchANEVANCAD0RQB0YAMRFMERAMyEE0REA3IQDRFQDQgA9EUAdGADERTBEQDMhBNERANyEA0RUA0IAPRFAHRgAxEUwREAzIQTREQDchANEVANCAD0RRhCtFKqi7RwfPltOVMCf2UW5Ofkcvh8fgxp4S2ifFJKa6giku/Pa/M1EA0RagUjdulVEi2M7+U3jiWR0/vzaKn9PDXSE20MdmTRfP3ZdO7Jwpo79kybdwaAoimCJWiVYlP5n2iaf55NI+m7EinUVtSaexW5EYZtzWNJm4/Ta8dPiNmtgv6KJoWiKYIlaJduFhNmzIKacbODBr+0ymK+vEkjfj5FHKDxIgxCvn2BP2P+FDaU1Cmj6JpgWiKUClahRDtq6wieiKpRrShQjRuJuTaDBOJFgn9PoVm7cqgX8VKoCGAaIpQKRpv0x86X06vHzlDY8SycfDmFDGriYZCrgl/CA394SSNEUvIJWLpeLK4Qh9F0wLRFKFSNKa48iLtyCvRdob8dX82Pf9rDr0g8jfkcng8nhdjs+hANsUnF4jxKqXzldgZ0qhQLRpTdvESZZRVarv494glEYf3rCE14fHgnUaHxfjklFVRpVgKNNQOfoimCFOIZuRSdTVdEE3E4WNFSE14PFguHp+GBqIpwpSiAfMHoikCogEZiKYIiAZkIJoiIBqQgWiKgGhABqIpAqIBGYimCFOIxnut+Wz085UX6VwFoiKFYmz5eOXtAtEUYQrRcsuraHNOMX1w6iy9p+d9pF7y3smztEZkXeo52nbm9s8ogWiKUCnaJTGT5QjJ/pNZRM/vz6Gp/02/nGlIvWTqjnTtEqRY8fVLB3Npe16JtnKo66FviKYIlaLx2Q58BTFLNn5rmnaWOl+ThtRvRorwydoTt6fRW8fz6GhhufYhVxcgmiJUisbXo32WXkiPi09bvkwmGtejKclwkQg+818I98qhXNpdUEYX63g6F0RThOoZ7cfcYnpmb5Y2m4VtTqFIIRtSv+FLbELF2I7bmkr/Pp5Pxwsr6nzeJERThErRuNRpJRViY71AbEuc1j55x4olJF+yj9RfeExH/pxKT+zOoK+zirQ9kHUFoilCpWgMn52eXHyBNmWcp5Up+fTOiQLtBjRI/YXHNDGlgL7KKqT0sgrtcEpdgWiKUC2aET7Gc+ZCFaWXVmrJQOolxvHksS0VY3wbjmlANEWYSjQj3Ah8pIdfkduPcSzrC4imCFOLBswbiKYIiAZkIJoiIBqQgWiKgGhABqIpAqIBGYimCIgGZCCaIkwhGp+KlVlWSceKLtDRwqadI4Xl2mtqSeVtncGhCoimCNWi8cmtx4VgH5w6R/84nEuvHDrTpMOXsvDr28cLaEtuCRVV3v5B5voEoilCpWgsWbKQbFXKWZqdlEl/2ppGf95Wk0ebaMbrmbT9tBAul3bll1JRAz0L7XpANEWoFI2fJvN1ZhE9KSQb9XOqdpnMSOnyjqYYPvmXr2SI+CFFezwTXyWdLpbV5gJEU4RK0fh6tM8zCiluZwaNuOp6ND6TvymG3zs/oomvH5u84zQlnDhLpxroyTHXA6IpQqVofK8YXhq9eCBH+xQf+P0JGiIajB9P1FTD7z9880kxFik0fVeGNuPzzXXMBYimCJWiMfkXquirzEJasC9bu8fFDNFccSIzm2j4/fMTUPnrt5Lz6VSJ+cxmDERThGrReIdIXkUV7TtXRt/nFNH/ZdXkmyYansH4lZ8Zl1ZSqV2vZ05ANEWoFk2m/NIlKqqsuQchvzbF8HvnhzNW387VmQqBaIowpWjA/IFoioBoQAaiKQKiARmIpgiIBmQgmiIgGpCBaIqAaEAGoinCVKJpd2wS/2qKEf/cMUA0RZhCND5+tO8sH7Aupm+za/JdIw+/x2+yimmzeD18vlx7PtydAERThErR+JO8WDTYL3mltOxIHs3bk0lzd2dpmdfIw+/xSZGn9mTRiuN5tEOMAX/gmDsQTREqRasS6yZ+ssmSw3n02C/p2iUiY7bWZGwjD7/H0VvE65Y0mrA9jV4+lKtdXW3uQDRFqBSNL5PZmF5I03dmaI9timpCl8kY36N21cJ3KTTxlzTafqZEHxnzBaIpQqVofOEnn0DMF36yaHyJCF+L1ZQSJTL4+5PaEzl35pfqI2O+QDRFqBSN97jxcumNo3nEz+7i56NFX9WIjTk8g/Pzy/jWBUvFNuqJogv6yJgvEE0RKkVjSqouUVJBKb2dnK9dAPr3g7m0uImE3+/igzm0KqVA21bFzpAmjGrRmAtiasspr6SjReX067maHGjkMb5Hfp50rnjvvHf/TjieBtEUYQrRjHCj8T0em1Lq+ojbhgKiKcKUogHzB6IpAqIBGYimCIgGZCCaIiAakIFoioBoQAaiKQKiARmIpgiIBmQgmiIgGpCBaIqAaEAGoikCogEZiKYIiAZkIJoiIBqQgWiKgGhABqIpAqIBGYimCIgGZCCaIiAakIFoioBoQAaiKQKiARmIpgiIBmQgmiIgGpCBaIqAaEAGoikCogEZiKYIiAZkIJoiIBqQgWiKgGhABqIpAqIBGYimCIgGZCCaIiAakIFoioBoQAaiKQKiARmIpgiIBmQgmiIgGpCBaIqAaEAGoikCogEZiKYIiAZkIJoiIBqQgWiKgGhABqIpAqIBGYimCIgGZCCaIiAakIFoioBoQAaiKQKiARmIpgiIBmQgmiIgGpCBaIqAaEAGoikCogEZiKYIiAZkIJoiIBqQgWiKgGhABqIpAqIBGYimiJuJNm/mDCopLtbLABo7XGuuOUSrZ24m2ty46VRUWKiXATR2uNZcc4hWzzhaturlYmhzxNPW6opBdWj9ENm0eICmT55IaampehlAY4drzTXn2juID1u5J7hHnA1tjnHP6O0DaktbJ6cgL0e7A96OdlcMqpNFK22gh/TvS2sSEig7M1MvBWiscI251lxzrr2TxcNX9AT3iJeD3SHuGb19QG0J6dEjoKe/70+d27prg+lmbam9ulpZkKuhjRhYW4oaNIDeS1hJuTk5eklAYyM3N1erMdeaa8615x6Qe4J7pGdnvy3cM3r7gNoSO3my96jIsMRAP59CHlDj4BpjXKcPCwulRQueo+VLl9DyZUuRxhRR00UL5ms1lmtuDPcE9wb3yMih4au5Z/T2AbUlftky69nTY6cFB/jv9uSNXX1QjYNslI9fPcQaHWm8kWst1597gnuDe2TW49NiuWf09gG1JSkp6d7V8fEe/R7p9lYHF6dqTTZpoI2DzTtHrMUGslXz+5BGGK4t1/h6teee4N7gHlm5cqUn94zePuBWGR4eOiKoc6cdPm4u1dqufv4ku2rQkaYTrj2He8HHzbmae4N7RG8XUFc+Sky0HxcdGRfo57tfDGxVzTGTmsGGcE0ncs15JuNeENtm+7k3uEf0dgF1hYjuenPxYpfRkUNm9wnosq2jq7N23MTF0EZbo/MMd73CII0oLJioNdeca889wL3APcG9wT2itwu4XT788EPHYaGhkwP9/TZ08/E+4u/lWeLr4ULtHO20wddihzSq6HXlGnOtueZc+8DOvp9wL3BP6O0B6pPHR4xo8ezcuZ2mTBg/JyZ88Be9uvof7+DiWOhmaFMqPvFKxScf0ojCNeXaco251lxzrj33APeC3hZAFZs2bXKaOWVKSFjfnmN83F2muBosYrXYGJDGFL2uXGOuNdeca6+3AQAAAAAAAAAAAAAAAAAAAAAAAAAAAAAAAAAAAAAAAADAlDRr9v/lMcv594oauQAAAABJRU5ErkJggg==;" parent="1" vertex="1">
                    <mxGeometry x="610.0899999999999" y="170" width="39.82" height="40" as="geometry"/>
                </mxCell>
                <mxCell id="11" value="" style="shape=image;verticalLabelPosition=bottom;labelBackgroundColor=#ffffff;verticalAlign=top;aspect=fixed;imageAspect=0;image=data:image/png,iVBORw0KGgoAAAANSUhEUgAAANoAAADbCAYAAAALQY9+AAAAAXNSR0IArs4c6QAAAARnQU1BAACxjwv8YQUAAAAJcEhZcwAAFxEAABcRAcom8z8AABadSURBVHhe7Z0JXNVV2setqalMS4XLvi8iKqAomqCi4oKAAuLuOLn0qqSomU6bjjW+jdWU2kzaFCWoLWZaaTX1ttjikqO45S6iILuAyi6gPO95/vyvHbdE5Fyu8Pt++nWxBD73PM/3nvPfmwEAAAAAAAAAAAAAAAAAAAAAAAAAAAAAAAAAAAAAAAAAGoRNmzY5zZwyJSSsb88xPu4uU1wNFrFabAxIA8ZZr0FwQJdpI4aE/Sk8JLj/1AljPInofr104E7g8REjWjw7d26nKRPGz4kJH/xFr67+xzu4OBa6GdqUullZlLpbWyINGFdRB37t7tehZGCvoFO9unb+sn/gIwtjJ00KX/Tcc84/JPwA4cydDWvWOMSEhk4K6uS3vpuP92H/dp7Fvh6u5O1oR562VjWxQxo0eg183V1I1Ic6uDqVeDvZJ3f19toSOXDAm0/PmRMhZrd79ZICc0IU5q43Fy92GR05ZHafgC7bOro6awV1MbQhMYuR+AQldxsDYkbhuriKuInaiFmO2jnYUg8/n9Lwvn0+HRE1ZOTCefPs9PICc+GjxET7cdGRcYF+vvt93Jyr2tpZawU05nqFRho2v9VGRLx62Bqorb0NtXd1KA/o2G7H6OghcfuP73fQSwzMgeHhoSOCOnfa4ePmUs2SceEg2J0XbQVibUHtnR2q+3bvunfSn8c8tWXLFie9zKChSEpKund1fLxHv0e6vdXBxanaU5/J5OLxnx1aP0TWLR4gq+b3IWYQG1EL+4dbkLNl62vqxctJD7Hs7+zlTr27+R8YEx05NSokxEIvOWgI4pcts549PXZacID/bk0yfc0vS2bcDuDiIeYRdxFjbYz1kWvGr15iGenlaFfl7eSw2cPeJiY4uNk9etmBqYmdPNl7VGRYYqCfT6GxcMaCcfhTk1+HhYXSogXP0fKlS2j5sqVIA+ZfS16lF+Y/QxPHjKLATj7k2OZhsn2o+eUPQ2PtjDtLXCzblLhZWW5yt7WItLW1ba6XHpiS4IDOXYP8fX/q3Na9pjj6p6H2SSnW+14OthQ1aAC9l7CScnNyCJgH2VlZ9M1XX9ILzz5DocG9hGDW5Ni6pbaU5NnOKJsxoq4X3K0N/3G1s4zwsrBoqZcfmIq2TrZBYnlxgI+TyYVxsmhFDq1a0pD+fWlNQgJlZ2bqJQbmQnFxMSUfO0prVr5DIyLCxMzVmuwefvCKOhrjIeJmY1nsam340s1gGCZK/4eaDgDKEbW6K7Rv7zCx3Ei++jgZ7/zgDe7pkydSWmpqTWWBWXJGrDQ+SEyk4WJ5zysR6wfv1/Y+ystIFo3/zDObm5Xhcxcri6HtDYYWeisAlYga3TU+JmZYOye7a0SzF7MZF2xu3HQqKiysqSgwKdXV1VRWVkolYuaqrKjQ/+v1yc3OprWrV1HM4EHazOYglpEsm1zTy7G2LOdlpIdYRmKbzUT07t5lgIed9RE+C0QuhlG0eTNnaIUGpuXixYuUkpxMX3/5OW1Yt5b+u30bnTt7Vv+/1ydHbLd9sCpBm9l4W82mZfMramqMp23NMlJ8/YWbrVV0M+yNVI9d65aBrlaGg9pBaqkYRtGenPE4FZ4/r5cSmILioiL64dtv6X//Op8mjR1No6OH0qxpUynh7bfENtkx/W9dn5zsLHo/YSUNGzxQW0baCtluvIw0XHCzMWx0tbaMsMAOErU4GVoHiQE/BNHMA57Jdu/cSbETHqV2jnYkVhvExzfFUo+Cu/pT/PI36GxBvrasvBG844pntmFiGckzG29vs3RyfY0R22yl4v99ybK1b9/sj3pbgPrGzdbQE6KZD1mZGfTOmyuot5Cq1R+aaTXgY5mt7rlb2xMcO3ECbd/6M5WXlenfcX14GcmHZHhmY9n458j1NcbTRsxsYhkpZrZNLnYWQ7t0aYaz/lUA0cyLQwcP0AvPPU3dfTuQ3UMPXt6hwfXgk4ZHDo2gj9d+UKuaGGWLDh2gHRO15Z8npLtmGSmi7Y20MXwmpBuMZaQCIJp5cViI9rf5z1KPTh21mexK0axodNRQ2vDRh1RUy5pkiWVkjWwDLx8b/Z1lZLG7leFzVzvriIXNmt2ttwioDyCaeXHk8CF6ceECCuzse41ovK02dlgUfbp+3S0dcuGZjQ9qs2z886xEXYVUV8xsUkrauzp9FhwQECG2A+/T2wTcLhDNvFAhGsM7SFi2qEH9tZ9p36rmzH9ZNqN83k725T38fDfOeuyxQevWrcNB7foAopkXqkRjMtPTddkGaMtI/pksl1x3Y/zbeRbFDA7d+Ozs2eHiW+/S2wXUFYhmXqgUjeGZbfW7xpmtZm8kb7MZZzYWj//c3smeAv06lg4PD13/5IzY8NzcXMxstwNEMy9Ui8YYZYscGHL5OJvx9xjDl9jw72PZYsIGffLUrFl94uLisM1WVyCaeWEK0RheRq5+J16b2RzFMpIPJcj1N14ALLbXqFvHdtlDBoQsGzcy2l9vG3CrQDTzwlSiMVkZ6ZQY/zYNHRDCF4eSTcsHrlhGcvi4m5eD7aUefj7HYyIGTxffhntG1gWIZl6YUjSGZ7ZVYmaLFLI5W7bSdpLIx9l4ZuPe8PVwrR4c3Dtxw9q1HRcuXIhjbLcKRDMvbibauJho+mzDx/UmGpOZfppWiZktSmyzsWRXLyP5Eiq+0r7fIwFJ82bPnPLqqwst9fYBtQWimReHDx3U7s3So5PPDUXb+Ml6Ki0p0b+jfsjKyKAVy5ZScIA/OYtZjbfPjLv+WT7+OqiTb/7YYUPjZ82a5qW3D6gtEM28uNGMxnsGeduJj4GtSXiXzp87p39H/cBXA+zdnUTzZk6ngA7ttCWk8Xcbhevi3ba6X2D3byMG9cNOkVsFopkXJ0+coKUvv0S9xcyinVRs2VqrBzc9zyz+Xp70zJzZlHz8969LqwslJcX0yccfaadqseS8N1LuiQ4ujuTj5ryvk5d7oN4+oLZANPMiPy+PPlyVSAOCepDhgT9qyziuB88qLJpj64dpUK8g+ve//klHxDIzJztbfM8ZLXk3yZncXMo7c4bKy8v133Ytx44eoamPjtfuF8MnIMs9wVfhu1pZHuWe0dsH1BaIZl5crKqibT/9SDFhoWR5/73aEs5YE5aNDzB72dtSSI/uNC9uBsWvWE7vJyZoeS9x5e8mIf5tbdnJP/9sQYH+G6+Eb5cwZ3qsVnue1eSegGi3AUQzP9JOnaK/zI7j++drS0bjtpIxTm1aiZntIW0ZGd4vmKIHD9QSFTrgdzOkfz+KHNifJo8bQ/FvrqDTqaf03/gbfH+YuTNnXFc07hHRK0cgWh2AaOYHN/unH6+jUZER2izGdyGWa2NcRt5qWFieEW1bNKdBvXvSJ+s+umbvJdeaaw7R6hmIZn7wHsDMjHR6bfGL1MnTXasDi6I9nkmvD8vG4vDtwHl2q224rq3vvZv8PNzo+WeepkO//nrF/UcgmiIgmvmyZ9cu+susmcS3a+cdI3ZiZrt6GXmrYUF5byY/aDJ24qP04/ffQTRTANHMl6qqKtq9a6e204O3x/iANZ8mxcfUnMRMxsvAWw3vXGFpfd1d6eknZgmZd0I0UwDRzJuKigram5REr//jZRoTFUnezvaaKJoIokYsXa0j/r6dkKf1PXdTz85+2jmOZ/Pz9d9UA0RTBES7M+CTfzeuX08L/jJXOw1rSEhf6h/0CPXp3pX6dOtKfcXrzcK3sAvu1oUi+vWhRQvm05GDB/Sf/hsQTREQ7c6BDzTzRZu7dvxCG9aupRWvL6XXXvq7ttNkycuLb5pXXlyk/X3eo3kqJYWqKiv1n/wbEE0REO3Og7ep+IDz6dRUSjmRrN2jn0/duln4tC3++793niREUwREAzIQTREQDchANEVANCAD0RQB0YAMRFMERAMyEE0REA3IQDRFQDQgA9EUAdGADERTBEQDMhBNERANyEA0RUA0IAPRFAHRgAxEUwREAzIQTREQDchANEVANCAD0RQB0YAMRFMERAMyEE0REA3IQDRFQDQgA9EUAdGADERTBEQDMhBNERANyEA0RUA0IAPRFAHRgAxEUwREAzIQTREQDchANEVANCAD0RRhCtFKqi7RwfPltOVMCf2UW5Ofkcvh8fgxp4S2ifFJKa6giku/Pa/M1EA0RagUjdulVEi2M7+U3jiWR0/vzaKn9PDXSE20MdmTRfP3ZdO7Jwpo79kybdwaAoimCJWiVYlP5n2iaf55NI+m7EinUVtSaexW5EYZtzWNJm4/Ta8dPiNmtgv6KJoWiKYIlaJduFhNmzIKacbODBr+0ymK+vEkjfj5FHKDxIgxCvn2BP2P+FDaU1Cmj6JpgWiKUClahRDtq6wieiKpRrShQjRuJuTaDBOJFgn9PoVm7cqgX8VKoCGAaIpQKRpv0x86X06vHzlDY8SycfDmFDGriYZCrgl/CA394SSNEUvIJWLpeLK4Qh9F0wLRFKFSNKa48iLtyCvRdob8dX82Pf9rDr0g8jfkcng8nhdjs+hANsUnF4jxKqXzldgZ0qhQLRpTdvESZZRVarv494glEYf3rCE14fHgnUaHxfjklFVRpVgKNNQOfoimCFOIZuRSdTVdEE3E4WNFSE14PFguHp+GBqIpwpSiAfMHoikCogEZiKYIiAZkIJoiIBqQgWiKgGhABqIpAqIBGYimCFOIxnut+Wz085UX6VwFoiKFYmz5eOXtAtEUYQrRcsuraHNOMX1w6iy9p+d9pF7y3smztEZkXeo52nbm9s8ogWiKUCnaJTGT5QjJ/pNZRM/vz6Gp/02/nGlIvWTqjnTtEqRY8fVLB3Npe16JtnKo66FviKYIlaLx2Q58BTFLNn5rmnaWOl+ThtRvRorwydoTt6fRW8fz6GhhufYhVxcgmiJUisbXo32WXkiPi09bvkwmGtejKclwkQg+818I98qhXNpdUEYX63g6F0RThOoZ7cfcYnpmb5Y2m4VtTqFIIRtSv+FLbELF2I7bmkr/Pp5Pxwsr6nzeJERThErRuNRpJRViY71AbEuc1j55x4olJF+yj9RfeExH/pxKT+zOoK+zirQ9kHUFoilCpWgMn52eXHyBNmWcp5Up+fTOiQLtBjRI/YXHNDGlgL7KKqT0sgrtcEpdgWiKUC2aET7Gc+ZCFaWXVmrJQOolxvHksS0VY3wbjmlANEWYSjQj3Ah8pIdfkduPcSzrC4imCFOLBswbiKYIiAZkIJoiIBqQgWiKgGhABqIpAqIBGYimCIgGZCCaIkwhGp+KlVlWSceKLtDRwqadI4Xl2mtqSeVtncGhCoimCNWi8cmtx4VgH5w6R/84nEuvHDrTpMOXsvDr28cLaEtuCRVV3v5B5voEoilCpWgsWbKQbFXKWZqdlEl/2ppGf95Wk0ebaMbrmbT9tBAul3bll1JRAz0L7XpANEWoFI2fJvN1ZhE9KSQb9XOqdpnMSOnyjqYYPvmXr2SI+CFFezwTXyWdLpbV5gJEU4RK0fh6tM8zCiluZwaNuOp6ND6TvymG3zs/oomvH5u84zQlnDhLpxroyTHXA6IpQqVofK8YXhq9eCBH+xQf+P0JGiIajB9P1FTD7z9880kxFik0fVeGNuPzzXXMBYimCJWiMfkXquirzEJasC9bu8fFDNFccSIzm2j4/fMTUPnrt5Lz6VSJ+cxmDERThGrReIdIXkUV7TtXRt/nFNH/ZdXkmyYansH4lZ8Zl1ZSqV2vZ05ANEWoFk2m/NIlKqqsuQchvzbF8HvnhzNW387VmQqBaIowpWjA/IFoioBoQAaiKQKiARmIpgiIBmQgmiIgGpCBaIqAaEAGoinCVKJpd2wS/2qKEf/cMUA0RZhCND5+tO8sH7Aupm+za/JdIw+/x2+yimmzeD18vlx7PtydAERThErR+JO8WDTYL3mltOxIHs3bk0lzd2dpmdfIw+/xSZGn9mTRiuN5tEOMAX/gmDsQTREqRasS6yZ+ssmSw3n02C/p2iUiY7bWZGwjD7/H0VvE65Y0mrA9jV4+lKtdXW3uQDRFqBSNL5PZmF5I03dmaI9timpCl8kY36N21cJ3KTTxlzTafqZEHxnzBaIpQqVofOEnn0DMF36yaHyJCF+L1ZQSJTL4+5PaEzl35pfqI2O+QDRFqBSN97jxcumNo3nEz+7i56NFX9WIjTk8g/Pzy/jWBUvFNuqJogv6yJgvEE0RKkVjSqouUVJBKb2dnK9dAPr3g7m0uImE3+/igzm0KqVA21bFzpAmjGrRmAtiasspr6SjReX067maHGjkMb5Hfp50rnjvvHf/TjieBtEUYQrRjHCj8T0em1Lq+ojbhgKiKcKUogHzB6IpAqIBGYimCIgGZCCaIiAakIFoioBoQAaiKQKiARmIpgiIBmQgmiIgGpCBaIqAaEAGoikCogEZiKYIiAZkIJoiIBqQgWiKgGhABqIpAqIBGYimCIgGZCCaIiAakIFoioBoQAaiKQKiARmIpgiIBmQgmiIgGpCBaIqAaEAGoikCogEZiKYIiAZkIJoiIBqQgWiKgGhABqIpAqIBGYimCIgGZCCaIiAakIFoioBoQAaiKQKiARmIpgiIBmQgmiIgGpCBaIqAaEAGoikCogEZiKYIiAZkIJoiIBqQgWiKgGhABqIpAqIBGYimCIgGZCCaIiAakIFoioBoQAaiKQKiARmIpgiIBmQgmiIgGpCBaIqAaEAGoikCogEZiKYIiAZkIJoiIBqQgWiKgGhABqIpAqIBGYimiJuJNm/mDCopLtbLABo7XGuuOUSrZ24m2ty46VRUWKiXATR2uNZcc4hWzzhaturlYmhzxNPW6opBdWj9ENm0eICmT55IaampehlAY4drzTXn2juID1u5J7hHnA1tjnHP6O0DaktbJ6cgL0e7A96OdlcMqpNFK22gh/TvS2sSEig7M1MvBWiscI251lxzrr2TxcNX9AT3iJeD3SHuGb19QG0J6dEjoKe/70+d27prg+lmbam9ulpZkKuhjRhYW4oaNIDeS1hJuTk5eklAYyM3N1erMdeaa8615x6Qe4J7pGdnvy3cM3r7gNoSO3my96jIsMRAP59CHlDj4BpjXKcPCwulRQueo+VLl9DyZUuRxhRR00UL5ms1lmtuDPcE9wb3yMih4au5Z/T2AbUlftky69nTY6cFB/jv9uSNXX1QjYNslI9fPcQaHWm8kWst1597gnuDe2TW49NiuWf09gG1JSkp6d7V8fEe/R7p9lYHF6dqTTZpoI2DzTtHrMUGslXz+5BGGK4t1/h6teee4N7gHlm5cqUn94zePuBWGR4eOiKoc6cdPm4u1dqufv4ku2rQkaYTrj2He8HHzbmae4N7RG8XUFc+Sky0HxcdGRfo57tfDGxVzTGTmsGGcE0ncs15JuNeENtm+7k3uEf0dgF1hYjuenPxYpfRkUNm9wnosq2jq7N23MTF0EZbo/MMd73CII0oLJioNdeca889wL3APcG9wT2itwu4XT788EPHYaGhkwP9/TZ08/E+4u/lWeLr4ULtHO20wddihzSq6HXlGnOtueZc+8DOvp9wL3BP6O0B6pPHR4xo8ezcuZ2mTBg/JyZ88Be9uvof7+DiWOhmaFMqPvFKxScf0ojCNeXaco251lxzrj33APeC3hZAFZs2bXKaOWVKSFjfnmN83F2muBosYrXYGJDGFL2uXGOuNdeca6+3AQAAAAAAAAAAAAAAAAAAAAAAAAAAAAAAAAAAAAAAAADAlDRr9v/lMcv594oauQAAAABJRU5ErkJggg==;" parent="1" vertex="1">
                    <mxGeometry x="700.0899999999999" y="170" width="39.82" height="40" as="geometry"/>
                </mxCell>
                <mxCell id="12" value="バックエンドWebサーバー" style="rounded=0;whiteSpace=wrap;html=1;fillColor=none;strokeColor=#cccccc;fontColor=#FFFFFF;fontSize=18;fontFamily=Noto Sans JP;fontSource=https%3A%2F%2Ffonts.googleapis.com%2Fcss%3Ffamily%3DNoto%2BSans%2BJP;verticalAlign=top;" parent="1" vertex="1">
                    <mxGeometry x="480" y="270" width="230" height="140" as="geometry"/>
                </mxCell>
                <mxCell id="17" style="edgeStyle=none;html=1;exitX=0;exitY=0.75;exitDx=0;exitDy=0;entryX=1;entryY=0.75;entryDx=0;entryDy=0;fontFamily=Noto Sans JP;fontSource=https%3A%2F%2Ffonts.googleapis.com%2Fcss%3Ffamily%3DNoto%2BSans%2BJP;fontSize=14;fontColor=#000000;endArrow=open;endFill=0;strokeColor=#FFFFFF;" parent="1" source="13" target="14" edge="1">
                    <mxGeometry relative="1" as="geometry"/>
                </mxCell>
                <mxCell id="22" style="edgeStyle=none;html=1;exitX=1;exitY=0.25;exitDx=0;exitDy=0;entryX=0;entryY=0.25;entryDx=0;entryDy=0;fontFamily=Noto Sans JP;fontSource=https%3A%2F%2Ffonts.googleapis.com%2Fcss%3Ffamily%3DNoto%2BSans%2BJP;fontSize=14;fontColor=#000000;endArrow=open;endFill=0;strokeColor=#FFFFFF;" parent="1" source="13" target="21" edge="1">
                    <mxGeometry relative="1" as="geometry"/>
                </mxCell>
                <mxCell id="13" value="" style="shape=image;verticalLabelPosition=bottom;labelBackgroundColor=#ffffff;verticalAlign=top;aspect=fixed;imageAspect=0;image=data:image/png,iVBORw0KGgoAAAANSUhEUgAAANoAAADaCAYAAADAHVzbAAAAAXNSR0IArs4c6QAAAARnQU1BAACxjwv8YQUAAAAJcEhZcwAAFxEAABcRAcom8z8AAGmISURBVHhe7V0FeFRH1y7/V6HQFgtx3bi7uysxAoQIrsHd2RYvUrQUKVJaSksFKtRbaItDkZLiFhyChOA6/3ln76U3m00IZBOSct/nOc/u3r137pkz58ycsTMvyJAhQ4YMGTJkyJAhQ4YMGTJkyJAhQ4YMGTJkyJAhQ4YMGTJkyJAhQ4YMGTJkyJAhQ4aMZwTGWN3t27c3OHEiv/GJEyeI8CklXDvR+NixYw137dpVX6lUvkyP/Z9A/3sSondxou8yZDwfgMIfyc83HTtiRMh45cjM92bN6Ljg3Xc7zp8zs4OUFrw7i1+f886U3OED+iYmhAX5Kho1cjJuVN/JQlfXuULUsKFz/RdecG7bIsXt/OXzrg8fPmwqsCFDxn8TZGAvJYSGusWFBHVJDA+dGebjuTIq0O/X1NioDWlx0RvxqU64nhQZ9nuIl/s3zgqzjxS6Td43b9p4oaV+00UVIbp/kUmThovcrC0Wp8RGLm4eHzc5ISK4a4fsVpHTpk1rLLAmQ8Z/A+T2vdGlbdvIAHeX6e62VgdcFOYPbIz0H5IxMGtDvXLJykCXE92L+x8IhO8VJoWeDv90tVY8CPJyOxMfFvxlRmJ8m06dOhnn5+fDJZUho3aD3LX6PTt2zEmKjFjjYmlxGsZja6TPrMjILHSbMIumjRm1UvxTncTrZCj8fmsyuKchMjL+LltjA+ZkYQq6GujusjMzrdm0qRPHeAqsypBRO/Hjjz/WnzZ+fGh6fOyXvi6OD+1I0WE8MBwof3UT3isasJu1goX5ep1JT4wdFuHnZ0Ts1lFxLUNGLcOYkSPt22dlTg5wdT5ubYiWhQxMamT0nSs/WrYqIqQvNWzxN9xRauHue9hbrw31cs8NDQ19TWBbhozahXYtWyaE+XhvcVaY37No2ogpSPEfGRlX+ia8dTHTaVRlxN1PtfeC+DUyOGeF2VV/N6clbdq0shTYliGj9kCpVNaLDvTvQf2hC3AZeUsmtCy8FRMMAC2LnakRszczZvb41BI5COkhfdMmDZhJ4wbc6ERDE1s1R7rPz8Vp66DePZJOnz5dT2Bfhozagf7du5v4OTuOsTLUu4aBDFHBQWIL4+vsyFJjo1lWeirLbp6mVcrJSOefSD/Y0405mBtz45LywY2NPr0d7Q7mdWg7aNWqFeYC+zJk1A7EhQdYOpoaT1ToN7kuGhpvycjIQJ72NmxI3z7sp+/WsLW//MzW/fqLVun3337ln0h/6cL5rE2rDOZqZfGoNRX5ATmamRyP9POZ1D47w0FgX4aM2gFbvQbmCr2m4xT6TYvFIXYoNfpN+B4TFMA+W/Exqw5cvXKFzZs9i0UH+XMeTMmNBA8guI8WTZscN2n4xtv6r70mG5qM2gWzBq+YmzdtUsrQTJs0ZDZG+iwpKpx99cXngilULW7euMFWfrycNU+M43wYN3qjhKEpdHWOm+k0ftu0cWPZ0GTULui98oK5aaMGpVs0MjRMWieEh1Zbi3bh/Hk2d9YMFhMcWKJFw3fiDxPYxyOD/GTXUUbtQ0qor7mTuek4SwPd4hJ9NOofYfQv0N2FLVkwXzCFqsWJggI2euhg6hfa8v6hueC+cn7ot4+T3fG8zu0nffrhh7Khyahd2Llzp3lKbPQ4GyODYukkNZTb4I363H2cMflt9vDhQ8Ecqg4Fx4+zkYMGMHdb69KGBqN3czk+YnD/SZv/+EM2NBlPDlLiV7p0adHAx8rqDWWvXm+Qzr0o/FXloHeZ53VoN87exKhYHOUTSbd+Xd5PenvsmGoxtHJbNOIt2MOt4M3hw6bs2rDBSWBfhozyMV+prNe9XTuTAd27e6fGRqZ4OFhl2xobZPm5OWS1TIxL6NOpk1tmZrJhv379XhUeqRKQAVkM7Jk3wd60tKHpvfYqHxSZMn5cjTA0f1eno4P79h67/tdfbQX2qwTESp05c+a8lhoZ2cRFoaerW7++notCods6KUkHOxzof3lzam1A/saNjTvktE5Njo6YG+Hr9bubtcU26iPtIoXaSa7aThdL8y1+Lo6/RAcHzspMS0iMjnapLzyqdZDSKAb17lmmoWGY/1kbGicyNlcriz2ZyUk93n//fUOBfa2D2KizYsUKm7xO7VtG+vkMszU2nGjU+I3JjubmE2NCgkZ3yclprxw+3A33CY/IqImYoBxq1SE7s1dEgO+3/i6OV73tbZi9iSFXJAxGgLBNxEVhxrwc7K4Ee7mvigj06Tmsf387IQmtghRGJzs9tT8Z+BVpH62mGRrfSmOou9XdxrJVdlzcGwL7WkXXru2sU6OiWscEB04L8/X60cPe+oCVod5pU51G52yMDc94O9ofCfP2+jPMx2tukLtLbpvM5o7E9kvC4zJqAqhAUFOadMxuPSomOOCAo4XZXa5AwqZJfBdH/bjB0TWQs4XpnUAP15OtmydPWLHiAxshOa2CDL0ltaaFNsSLqNigmmJoVgYqQ1Po62wy122Y4mlgoNW1jitXrvzf9EmT7NPiY9/0dXLcaWNscJ1kf5fKBhtRBR5g6FRWhnr3bY31b7hYWuyNDwuZMmPKW97bt2+Xja2mYNmCBRYdc7NHRwf673W1VvCCE1esow8iFqhIWDFvoduYQfldrS1YgLvTkZgQ3xFWZIVCklqDTr2Xk4iPC9joKeWhphmahV6TjaY6ryeZvfBCXYF1raBfz56u2RnpM4M8XA/ZmRhx70JBshfLBWWFT95XJL6s9HWYLXkhXva2BVGBvrOiQtzthaRkPEsohw5VdM7JGhYd5H8IRoa+EApMVGheiPQb19WNjv8msjM1pD6K+d/BPu5d+3bubCAkXWk8fHjwFQ87m070rkvihLVIGHXEavrqGnXkw/uDBzLip5ShQdmtDHX/crYyy0ry9NRaixbq42wcHxr6ZqiP53m466j8NFV8JYj/r8NdfkcL05P2ZkZvmurqKoQkZTwLrBLdxaCAg84Ks4eWeirjkRYmvkOxuHJpMkLhfirQ+0GertuyUpO7HTlypIHwiqcG6fZLysH9fCL9vedRH+16TeijjRoySPNgCJGdieFRf1fHCckREVqZR0uLjTUIdHPuQ5XfX9gCBNdQWi4gXgEKJL0OQsVEFQC5lzqHya0dZWnYyERIWkZ1YuG0aVad2uSMjAkM2Ist+Sgc6V4r1NIoQCw1otqa7/Uy02nIDBu8xgtcdFlAuA+K4GJl8SAmyH9jz84du/7yyyY94VVPDNLrlye8Ncq7dXryFDLeQ2Ro90Vl4oZN3zGHRn0RNnfmDJUlVDFOnTzJJrw5mvm7OvP8QhZi/sETGcN1bwe7XQmhwSNnTB7vQsb/ipCdJ8aGDRvMenXq1MvP2WEzVX63NXkT4AEtuuEb9bks8FtaJrxiEp5R6DXdq9DVGWlp3NRKeIWM6oByyBDTTtmth8cEBx50tVJodEnQWsDIsPGxRVI865fXnbVKSWLOlubMhApWunodxA2B0vB2sGXx4aGb22S2yPH09Kxwy3b27Nn6A3v1smyVkhJA78lKjAiZFezlftDdzoobsdTQ8G5cS4wIY59/skIwharF5UuX2IdLFrPkqEguL+NGrz/KO3hCH9JFYU6G6Ph3WlzUtLwObXOTIiO9MxITjcjoKjzfuGjRoqYDenbPS4+N2UoV1z31ssF3lA0+Xags/FwcmZuNJecJ5SLeV4r0mh600NUZrjBoZCq8SkZVQjW62Gp0dGDAATIahF17pMQi4bdRw9f5UH5GQhz79KNl7PChQ+yXH35gXdvkwk1iBq/XK6UAICick8L8hq+zw7cBXu7JpKOPndP59NOFjYcPHhCfnZH6TqiXx28uCotD9qbGhdSpv29jrF+q9TSkd6MV7pfXjW3esF5lCVWMu3fvsh3btrE+3brwfCL/Ik8g8IglYTbGBvfIDb/g5WB31MvB9psof+8h/fPyIqmV0hWyWyYWzVzUtHfXTh2pAlznbGF2h49mSmQMQv7RgnmRC9shK5ONGTmM5XVsT31Ha966qZclSBgxfkAt2wFyI0fLbmQVY+Sg3tYdc7NHRAf574eiohDV3UXUlsZkZOjkt0hKYB9/sJSvXAfu3L7Dfvj2G9alTQ5zNDfl6w1xv7ohgMhIi6hF+rR/77xIerTUEPOpQ4dMBvfvHR0bHNg1zNdzSpiP15pAd5dT4MvWyIB4Uw3AqCsO3tfoxTp8x/Ny4q3wgoq36kDx1avsvVkzuVIbkQutzhvkiWswEAdVKIT7zgrzfB8nx6/iQoNnZFL/tV1Oq4DVq1e/LojhERAbMjU+JglzZNSS3TRv2qh03ps05CEVHC1MWfcO7diPa75l/+z5m296HdK3N/O0s2H61HeFIUrLhE/JcILhNt1PxjZSoaNjLbxahjZh0KiRaVxYEBlZAB9dLMtdFFsyuIsfLl5MinxBUDMViq8WUQGvYW1btmAW9DwKVWqsIBgJ0vZ2tCtMi4/5OLd5alJWerpZ5+xsg4Rwf7PWGan+3drmDkhPiP0s0MPlELk+9+Giqp4tyZOU0CfB+3Bvv+5d2b69/whcVR82/vkn60EtCJRd77W6fBlYeTzz/4iodWMxIQFHIgN834/082vTpnWGT0pMjEnfvp0NOuXkWMRFhDQjN3kJucRFQgtUgmB0MG70ldtTS7bmq9Xs9p3bnCdUgFs3bmRD+/Zh7jZWVIavcVmp8yWmS9cPW+rrjJDdSC3DXF/fjDrDo+3Njfc5WZg+tDH6t88jEloPFKQ1uT/NE2LZ8qWljUwE+itL31/ImkWFM0uqOWGcJQtVcCPJYN2sLS8He7j+Sfe+mxwXNTrM22O2h63VL2Tsh50tzYoczEy4K8rdJOJJXTlAuAZ+MRCDe3t26sg2/Pk7u31bpWjViWvFxeyXH38gGcUxvfqq1gO8qfPNfxOJn6gcXCzN6NO40MHcdK+vk8OP0QF+U3JbNB/VKjlxoZ+r8wYrQ91CTRUg0odBw1AQv+TLzz5lRUVXBI5UuHXrFtuyYQMZW28yNkvirW6pChAET4U+H1LLtg9uJHRDUBMZlQFcBAvUXnAZqADVR7DgYqATrf/6q8zB3IS1a92SrfhwGTtz+rRQhJpx7MgRtuDd2Sw+LJi7NDA2FKzUZRELGnE2qNN+keigu61lIW+9iAf8LyqpunKB8B8UGUrTtN4rvF/Wq3NH9vtvv/E+07PC9WvF7PMVH7Oc5ul8cAjuGlo3Ta2INC9wB1GZ8H4stYie9janQrzcD4R4ul+FjB4ZptpzkIFp44YsKTKMLVk4/5Errw60bOizDunTi1FlRmVaj5eLtExA3I0kg4NOcN2Q3chKoY6RUWNjDOtS4R0SBSwtSHxHTYk+GdzJru3asDVfry5VW5aFY0ePsJlTJ7PYEGHXMaUFxRDTFwkFjVFCfHIS/1NTKhCeRzpQWrH/R30WFuLlQf2QXmzT+j9Joaq/JVPHvbt3eN8IgyNkLLySAv8YEYVhYPhfXRZS2YuygFxE2UjvBeF+k8aq/ha5/GzuzOns3LmzAgeacZu3bGRs1LJhNBJeiib3VuJGHoKOWBkZGdPj8mLkJ4Wpnp4FXAMS5D4uWA0FCUXWrf8K1X7W3L9H1KeKGhnw4OEDVnDsGJv9zhQeKAdpQsnUCxW/RbeQ/6f2v/Q+8ITRM+4mUsuXFBnOlEMHs9Wff8YO7NvLXaSagps3b7A9u3ex5R8sYf175rGoIH+eD7TA6CdpcgNFEmUBYwSp34drmBQ3JYNFQKAFc+ewUydPCG8uH7du3eQt29B+fXjZoowhV2n6IFEnyND22RgbKjOaNbMQ1EdGRWD8xhtWlgY6wy31mh541HpICAKGS4FRQ3LluKuBzvTTumOHDu5n0ydP4q0OVmzASDQVrDpBuaBMqHWbvPIif9bJwoxFB/qxNi2as9FDBlNfcSnL372bPSSjrqlAv23Lpo1s8YL5bPjA/jweZLifN++joh8Hw4PXoKnPpIkgOz6i26QRiyPXHJPyFTUyEXfu3KYyRZ+tDy9jpKfJjQShErQzNT6YFh87XKlUypPaj8PatWtf9HW1NadONVoyuIsP1Q2NKzcVOFoNdJrhYmyhAoHL8bSAERzYt4+NGjyI+bu5cFcILhRcFigN3leC6JpqqJpcGipkKCQGOfzdnFnn3Gw2f84stuH338lNOsdbsAcPaq6Ribh//z61cDf5dMPm9evZzCmTWVbzVL6SxMnclMtEdIuRd8hAXSb4z5RcRcjOxsiAKhz/CrmLZQFlupUqAJQxyhpljndpaj0dzIwfUot8qH1261FYmkePy25kWRg1bGBgVJDvHGdLs4NYtwghSg0NtRkKEwty3amzjBEq9HngalQWULT8v//mtW/L5CRuOE1ffUXVwgm1qUiY7EUtb9igPgYEWJuWGWzyuDHs808/4S0Dau87d+4IKdc+3Lt3jx0/epSt/+N39sUnn7Bxo0ayjKR4PnCCvGNgh7cw1JKrZPIal1GTui/xlh2DRZDJB+8vZCeOHxdSfTrA2FDGfDSSyhxlDx2QtmwwPOzEcLNRwE3dS5XdqHkzZ8rnCKiD5FlXOWJEUEazhEWB7i7FzgozjSNYcF/g1kHgg/ugJduo9YGFc2fP8GVRIwYO4GG648NC+GABIlaBAohCvD14TEasbJigHMW+Xb2anTl9Skjhv4cjhw6ylcs/4q5wLrnECJMX5uvFgjzduDyCPFxZpL8v749mpaewEYMGkExWscuXLgopVA4oY5Q1yhxlDwOHLkh1A60aRqQxshsbFHAQS/RGjBgg99lEkBz/N2f6FN+0hNilfm5OxY7mJqX8cNFdRG2Kkaih/fqq3MUqGr27fv06n4PbtWMH+5QUbPrbE9n4N0fzRbnjyLBmTZ3Cvv7yC7Y3P59duniRByf9LwOu9fVr19h5coV37fiLrf5sJXt3+jvs7bFvcXlMGvMmm0fu8nfffE1ewW52/vw5rcsEZY0yR9ljUhu6IHUj8an6zk/HeYAdHVQRKmU3UkBGsxirVqlJUwM9XM/DyNCSoXYSjQxGh6FyuGoQMPz1zRsq1yd7EsCQjhw6xFdx7Cfa988/fFoAy5meV1wtKuKjtQf37+PyQP/25IkCdqOKKxyUOcpeXEECnYBuSCtmGB8+0bJFBwXsww6P6ZPGPL+bR0ludc6e3VU/PSE2N8DNeR+MTNPKCgy3w1XAyNPgPr2qxF2UUXuAsscACXQBOsHdSLUpGXyHG4m51ejggAOdcrJ6KPv0aahUKv9PUL/nBySzl6ij7ZEeH/Oug5nRTQx6qBsZaiesWkDthVoMo2HPYtmSjJoF6AB0QWzZoCNiSyYSvCKcsIq4MFGBfp91bpMdM23atCoNL1gjgdh+Iwf3y4wN9v+Nmv6HqIFEIYnuIgY+vHC0EdVemMCsLndRRs2Hyo1ULdfyFLbYlOVGksd0KjUuenyMn19jQf2eH3SMiWmcGBU2wMfZId+aDA0r5kUBoTaCkDDCxCejyVWQWzIZ6oBOQDcG9urBN5HyeU2JV6Rq1fR4ZR3m4/l113atn781kf4uLrr+bi7jXCwVJ3ktJAgIwkHNhDmbDlmt2I/ffSv3yWSUCSwIwG4ErHNFn0zaX8MnuiRYUODr5LBp5ttvh9Mj1RYSvkagWUSEXmxw0FQfR4fzqHUwECIaGoSFGqpb+7Zs25bNKonKkFEGrl27xr7/9huWEB7CmtZ7uUR/DcaGVSs+Tg47Plm2rMWThGX4T2BAt2662c3TJoT5ep/CFnqxj8YF0xSr3puyyAA/vpzpQjXuQpZR+4AoYrt37GDN42NZ41f+V2Kdqmho/i5OO1d+sjyTbn9NUMHnAxOHDm3UpkWLfqHeXn9Ti/YQLVkJ4ZDhiavf35s1g50+9d9deSGjcig4dpTNnTGdr+DBvsQSI5CkS6jEqUX766PFi9Ppdq0GiK3xUCqVdbu2bRsW7Om20s7YsMRokcrYVCHR0F/DKZXz58zm6++eBzygGvravQfs/K177MzNu+zczXvlEu7BvXjm3oOqjxFZU4DdGliJMm3ieBZLOoINqWjNUFGLeoQ+Gna/e9har5v81lv+9Nhzd1pNne0//9wgNiRgsKetdZGDqTHvn2EJjdTYsBIcRoiV4NPfnsQOHzzIHty/r5J0LQdM4i4Zxq37D9mN+w/Y5bv32Ykbd9m+q7fYnxeusVUnrrKVx6+wzwuKyiXcg3vXX7jO9ly5xQ4V32YXbt9jNynN25T+PTLc/5r5YeHz9q1b2LAB/ViAmwvXlxItGdcfHW5k1N+/6+vitBQxTgTde/7QtV276MTI8F/crBU3sf1COswPEkchLZo24ZGjsLB1119/CeKuvYARHLt+h20g41h1oogtPXKJzTlwkU3de4GNzz/HRu46w/pvP836bDvF+tJneYR7cO/IXWfZ2D3n2KT882zW/kK27Ohl9t3pYrbl4g3+Lrzzv4L1f6xj/Xt0J5fQni8wxgAadEV9Hg0DbaHeHgfbtGg+sEuLFpWOQF1rsWDBAuMenTt2ign2/4OMDaeMPBqBFEns0GJtm5uVgo0cNJDt/Gs71WrPLu7GkwIe3SVqZY5cu8P+unST/XCmmC0m4xr79znWY+splrW+gKX9foylrjtKdIyl0/fmT0h4Bs+Kz+duKGD9/zrNJpLh4V14J94NHsBLbfQy+YbQzZt4TExsskW8GHQxpO6iqDMYZKPWrDg5JnLe9MmT/deuXft89c+kINn9b+7cubpD+/TpnRoTvdXezPiOygUoLTi0bKaNGjB3a0s2rH8/tnvXTvbgQc12IxFWH32nQ9dus29PXWXTqMWC8nfdfJK133iCG0Pmn8dZxh8ljQa/WzwhqaeBa60pbbwD78I78W7wAF7AE3gDj7UB2EC7eeN6HucES68ebb7VYGQgJ4X5rVAvj19aJsU1g5FREvIq/u9XfW/eMSenvZeD7WrqwF6BG6DesoHQZ9N/rR4Ptjmsf1+2Y/tWVSnUQJy7dY/6TTfYR+TCwSUctOM0a0NKn0ItTtJvR1ny2qO85YFBtPrjODc4bVJLShPGh3fgXXgn3g0ewAt4Am/gEbzWZNy4fp3HguyUm8WDHWHDKbwcdSOD3ljoNsbG3UIfR7uVSRGhqbmpqU0ENZMBtMjLey3Cz6uZj6PDp84K84uY0YfwpMLEdwgTa9sQd3/EwP7cjXyW4dukuH3/ITt78x7bffkmH6hQ7j7HWxQoO5Qeyt+KjEAkTQYiEv7H/RWhiqQlEu4XDRC8gUfwCp7BO/JQk4C9bWt/+omHx+O7OcjIoAOiToh6gYoZAVo97G0u+Ls4fhTm4RHLXnhBbsU0oUVo6GtDB/aNaZkUv9Tbwa4IIQVEQUoFCzcS5EZu5MhBA9ihAweEYnl2uEOdnl2krIsPX2LDd53hrloOKTLcOPS/REMr1xAkxvO0hDTE9DS9C/eAF/AE3sAjeAXP4H0n9eOQl5qCHdu38aCzPIz76/V4uUt1AcQ9IL0mLNDdtbBtZuby3h06RCYlae+st/8ksEzmnYkTo1omJX4Y6OZc6IRd1yRMTcbW5JWXWIS/D/tw8aKnDgKjDWBU7/vTxWzKP+dZZ1JaKDHcNShyWQoPwn9wHdG6YCCkGT2TQC4ePlvSf3DzOm46wamDGonXcQ/ulT6LtB65pcK7NBH+A4/gFTyD98mUB+QFeXqWwIqPi4WFbNF7c7FWkW+HURmUmodDfXoMfPg42Z9u1Sxp0ZypU3FewvM78PEkgLHNnfVOREp0xCJXS8VZWyP9B+qT2hA6XAknhRnr2jaXbdpQPSezSFF87wHLL7rJllBL0GvrKa68LajFAIkti7pyo0WBcsMQ8IlrbclYOm8+wfK2nuTD9UN2nOFD9TP2FbL3DlzkNFeNxOu4B/fiGTyLNJAW0kTa0nfh3VJeQOARvIp84xrygjwhb8jjswAWk2/843ce3RmeDVozafnzyWhDPWZtoHeXPJujGUkJc8cqR4TQo7K7+CQggdVLi4lxdbNSjHZRmB9yJP8bxiat0URjQ0zGVZ+t5AVUXSi8dY8PmY/bc5aP6kGJy2tFuEITiS0YKGv9cW4caEU+PHqZpwfX7cDV2+zotTt8AvvUYwj34F48g2eRBtJCmkgb7xDfJ/JWFn8ib8gL8oS8Ib0Lz2Cw5OrVIt6aIcoxyhxRj8Vyx29EvsIQP9YxpsdGDhvSr5/riRMbn7/NndqCh5WVZUxw4HgPe+v96PCqd4QRgsyB/Pd5s2dVedwKAMucoNiYaB668wzv7ySR6yW2BpoUWHTPMMcFt284PTd93wX2gTCpvJ0MpOD6XXbtbuVbD6SBtJAm0sY78C68E+8GD49za5EX5Al5Qx6/pLwiz9W5xAsx+hGMx9pIjy+tkpY7DM3e1PCmn7NjfsukhJELZk2RI15VFiTzOu+9955DuJ/Pu+RC8APupIaGAxpsjA14pKqqDvuGETksc1pEblVvai1ENxCf6kqLa1BUtBJoVdBC9Nl2ms3cX8h+O3uNHSdjuIH1idQXqQr9RZpIG+/Au/BOvLvf9tOcl9bEE3jTNEiDvEjzBlcSeUbeq2tUEgeVICAtYkWqD4DA0HCYfHJMxISRg/s6Cqoio7IguddJT4zvGebtecXVyrxEp1j/dTI06gyPGjKYxyBEJ7oqgNp804UbfMCj25aTpKAql6wlKSomhtUVFQqMeSv8HkatAp+zOn+dr8y4erf6J9rxTrx768Ub7ONjV3hLBd7AI3hVryiQJ+QNeURekWfkHTKojpYNOzYQO7Phi3VKjzRS2TtZmu3p3rEdVuQ/f0F3qhJZzZt3iwrwu4KVIVg98q+hvcp30SJu/P69e6skBDdaBSgoljOhJRCVT6qYImH0DtRmwwk2aMcZNudAIfuZWpPT1JeqKThLfa6fzxZz3sAjeBX51pQnsVJB3iEDyAIyqUqgReuY3Zo1eun/NBqai5XFrreGD06kW+XBD22hqKioUXpc3BgPW+s79iZGj4wMxF1H3qIN4jEYtW1oqL23FN5g4/aoJp8zflf1YdRbANXInWp0D8Puk/IvsF/JwM7dustX0VePw1VxgCfwBh7BK3gG73zARK0SQV6RZ+QdMoAsIJOqbNnKdR3Jo3G1URzp061z7wsXLhgIaiKjMkCYsGF9+wZH+vmsoL7YQ6nAQdi+jn7blAnj2JUrl7XqOqI/sqnwOimiyshQ46v3Z0RFRI2PgYY+20+Ra3aZ/X35Fit6Bi7ikwI8glfwDN7TKA/Ii3pFAkLeIQPIYiLJZNOF61XWZzt75gzr1aUTj+2vvqYRhuakML+cFh+zdNjAvoGCqsioDHJzc5u0Sk4a5O/qvBchDtRHn+A6ImLWB+8voOLRXqFjr1h+0S3eL8kiJYP7VGrQgNfyKpcrd8NxNnznWfbVySJ29ubTuYlYSnbp0iV2/NgxHnJ8986dfN/V+t/X8fPf/lj7Gyd8xzX8h3twL57Bs0+7HA08g/cRu87yvCBPyJt66wYZiG4zZAMZQVbaBqJEI9y4t4MdL2esbZQamr2p8b0Ad5d/4iOCO9HtsvtYWTSLibGKDvJf7u1oe0dqaBA2hn2tDfVZ88Q49tP3a1QlpCVg4AAjbd02n2TpVMurD9+L7hQUD8uYxpM7tZncKb4iXkijIkALfP/+fb4KYtuWLfyQDbTO2G/VpW0uy0xNZtQ3ZcEebizUx5MTvuMa/sM9uBfP4FmkgbSQ5pO07rgTvMMlRF6QJ+RNk5uMa2j5MEACGUFW2gbWOOKMg+zmabxrgKjE0grWjvrlrlaKu2HentMXLpyhJ6iLjKcBVohkpabGeznYbHOywAEYKiFD2BgQweJiP1dnNl45iseC1xYQGgDzZL22nSKlKt1vgeKp+jPHWd6WU2zO/kI+QIDd0k8CHGuEVemIeTF66GAeNg1HJOG0FhzogUWyyKdO3ZdYg/+9wAcGQPiOa/gP9+BePINnkQbSQppI+0mPToIriLwgT8gb8oi8So2Nt+SCXCAjyAoy02a7hooC4SvGjhrJV4bovPrSI0MDWRPhepi3x0+jhg+OX/3++6+rtEbGE2P21Kk2zWNjxzlamJ5GCyYVNFozrH9LT4hlP//wPQ87pg1gwvfHM8V8SB5rCNFfERVMNDIon6hkS49cZvuLbrP7FWw9sOXj+LGj7E9yAWdMfptlpjRT7a+i/GAjI7YC4TuMCIQWnE9nCJ/q38X78AyeVW2GbMTTRNp4B96Fd+LdFQHygjwhb8gjhvk1tWyQDWQEWUFmxVruk96/d4998uEyfiAiugjSHfiiPgR7eRxv3zpzytgRI57fUAWVReuUlNSIAJ+1DmbGt6FMj4RMrRqUCZ99u3dhJwoKtDIIAqcv/8otPqqGGlucsJUql6omp5Zs60keguAYuU0V7aNcvnyZ/fbTj0w5dAhLiY1iXg62/OA+dPb5gYfkHnFDod+ikalXMFISDY4bGj2DZ5EG0kKaSBvvwLvwTrwbPFQEyBPyhjz2oLwiz8i7VBaQDWSE65AZJrSfzHF+PLCGtX3rVjjVk5c58ivmHeXv42R/NzY08LfmcXHugtrIeBKQjF+MCvQd6uNsfwlCFgUMglLhM9Tbk707fVqFa+rH4eSNu3yrSLuNJzQuq4LLhEGCnPUF3LU6WFyxKMo4JxpHDr07fTqfhPV2tOc1NIauxXgXYt60RUgTaeMdeBfeiXeDB/ACnioC5PHdA4U8z8i7+uAIZARZQWbor0GG2sSZU6fYezNn8j4pKhFUIMif2IVwsjBlnvbWR5Miw7N+/vnn5zcuyNOA5Ftn3szJlmE+noudFeY8lJgoWBBcRnSQ8zq2Z3+sW1vpsOGog9E3+f70Vb7cCMqD2lrqKoluJBRu/J7zfODjce4iWlkMTHz/zdesd9cuzM/Z8ZGr96jFkuQLhN9ibc1DpeN3GVTi/zLSwjuk7wQP4AU8gbfHeQLIIwL8IM/Iu+guinKBjMRBE8gOMoQstdWu3b1zhx/X1bZVC2qpsR/t38XFnCiP9mZGlxPCw2aPGz7cTVAhGRXBqiVLGg7q2yuXDG0jDIorlER5mtR9kddkOHMaB+NV1m28SYqx6zKG8i9w5dHcLzvGUuk6FueKo4uPA/pFSxbMYznN05iLpQV37eDWiW5vCYWR5I//J/4vfi+LhHsePSdJSyRcxzvxbvAAXsATeAOPj8N1yivyjLxDBnxwSCIfkCgzyBCyhEy1hcLCC/zIXgyGYfJamk9UHrYmhncjfH025qSlZQoqJKMieHvcOI/m8fHLfJwcCiFU0bUSv5vqNORnKWMQRBvAiBlcRmx8xByRel9EnFPChO43p4oqNLq4e9cONmXCWJYUGcZ5x34qKLuoIDw/+v+2RtjAiP1VHrZWzMfZ4Zanvc0xTzvr7b7ODuuCPd2+D/f1Wk0VzxcgfMc1/Id7cC+ewbNIA2mJLRzeIX0neAAv+A7ewCN4fRyQZ+QdMhDnDqUygsywcgQyhCwhU23h7r27bNmi93kwXWyVwqCPmB/kEZWxm7XlpbiQoNkrli79bx8UT/Ko0yUpqV5kpHeT2OBgA3dbW0OTJk0eka2JiWGAu7thZnKyYY8OHQx79Ohh2Dk72yAuLqipg4NxY2dT00bednZNxowZ6dgqpdkQXyfH/eibicLEJ2ov9DtIwdiowYPYvn/yVSVRCWAcY/eVm3yiFsqj7jLie9q6o6wj9UGWH7vMzt4qvw+CCeO9+XvYyMEDedxBS72mvF+hyU0UNy+Sojy0MtS94WBucjHcz+tA88S4b9MS4t7OSk3uNqBXXsbHixdHbNu0yXfv7t0eIHzHNfyHe3AvnsGzSANpIU2kLZWf+J1XVujrEG/gEbyC58dNdiPvkAFkkfb70VJyguwgQ8gSMtXWPDaW1e3cvp1HP3O1suBdB/U84dPfzXln13Y5A5XDBjiFhnrqQKccjI0bQ8c6d842GEQ616FDpmFyVJShVD/xPSLCVy8xKKhR29DQmrs7m2RRZynVJFRDtgrxdp0S4u3xubut1SoLPZ1VVLtyon7WqgA351VpsdGr2mW2WNUxO2tV69Rmn0QH+s11UpiOtzE2VHra2UwO9vJc6efstNfBxPg2FFEUJghuA4ScHB3JPv/kE3algiNo5QEBaRCcpuuWkyyZDKqE8qB1I8VBuAAEJsVSpcfpDoIFYd0lhqQRSAYBPlFBSPOhUgzVpCtOzvFzcTocFej3CXXoR2anJWd0zskJ6NOtg+1kpVL/8uXLDShZhEt7FM4a33EN/+Ee3Itn8CzSQFpIE2nbGhnw90kVE8QrLeINPIJX8AzeywPyDhlAFm03Yt1n6flFyBCyhEwhW20B0zcY6sdkvW69Vx55OaI88dvO1PCmr5P9P5EBPp8GerhOo7y/aWtiNCbS329uTvP0zzrnZq/Kap66KjYkcJWbtYLrpblOI/6dvISlYX5eo6MCfBOUAwfqC6KuUajXIikuqFl05DgqsJ/IwC75OtvzmgdrEGEsIDsTA+btYMsoI2QoEYwMjsWGBMBNum1nYnjWylCvwMnC7CL6D45miBNScjc1vsPQ4Pr07NyRH1Re2fDg6NptuHCDR4JCR7+5Wt8D7lAKKc6gv87wxbdFd8p/38mCAu6K+TjaM6MGr2vsi/GWjQg7DqhiORnq7fUjVRwjB/fvHb1z404jQaZPDaSBtJAm0vZ1dDiJ/qzq3aUNHjyCV/AM3k8UHBNyoxmQAWQxeMcZLhupmw3ZQYaQJWQK2Vay+1wC2zZvYtnpqY9aZPUKjLvfpHNYkkd0xdpA74SNof4p6oLcSggLYenxMSwxPISFeLrxCg6T3ujf4rs3tewedtYFpKNfhPn5DG8WF+enVCprRoAfPz+/Vy31moQRo4vJR77oaG5yB2cH2xrrc5cInVfR0OBbw5e2NzHkcyIgzPPgmhgPBM+oniu5uROETjwUNNzPhy14dw67roUJakxOf0SuEFqsUqsfiEQlwnaSczfvltuaYQQPgwvo90CB0VKoVxQg5I2M7I6LtSI/PiT4nUG9e0dOnTpVZ+XKlS8LYq00kBbSRNotmyW+E+Thkm9vZnJHyoeUL5FX8L54/ns8L2UBMoAsMOQP2UBG6nKDLCFTyFYbu8ZFnCg4zmZMeZtFkA7A0PiqfrW84FPUI/E61zvSNdJP0jsj7klwPaP/QPgu6qGDqdFt0uVCPzfXRbGhgWH9+vV7tuERKN9127VqFeCoMFlENcc5nApjY6QK6c1rbYkARMJ11EJilFnUpriG/5DhskbPcI9uvZeZs8KMhwTP371bJflKABOyOBBi6t7zfMQMa/fUlQU7o7Hq4dezxeVuCYEL+/033/B1eeAXnXX12ha/0aJ42FsXxwT5fxfu79MhKyPDmR7XmoGpA2n369HDOTUupkNsaNB3VGMXgwdNvIkDDORa8byU55ZDFpAJZAMZqVdS4g4AyBbzcNpadHzr1k22a8dfbEDP7uQhGfEKQlMgVXEgSPwN/YGuiTqH/Er/x3eus0QwOBy6QnTO08FmUfd27QLo1c+u3zZm5Ej79PjYKa5W5udEAxEZ1xbBFcCQtP7r9fhwfl6HduxPzJvdqfwi1svkAq05fZVH7VWNmJU0tGZrj7H2mwr49hFs2ixvZgjzPH26duHD5hjRA99iHngh0m8UoKe9TXGz6IivBvbo0Zweq7bCw7vwTnLvvwIP4AU8lVBG+g3ecawx8oI8lQXIAjKBbCAjyEpqaJAlZArZfnPqKpe1toCy/2bVl7xSc6AWCjxr6gdXhiAXGJ2Lldk56Dh0XRBl9SMlJjIr1MczH62Meg0CUrVeVHugBhFqESmhYDVdU7+OmhaLR3t06sA2/PE7u3nzpiDyygErzhGHHi6OOEEtNTTsLcNpLdsulj8xffnSJTZ3+nTm6+zIR0RRY6q7M8iTp4PtVeqQfztqyJDmy5Ytqy+IsdqAd75F7wYP4AU8lSgz+g7eVaO6jjxPyFtZgEwgG8gIspIamjiBDdki9Li2V/dfOH+Orfx4OcvJSEfsEK4nOOxC1BlNuiVSCR0T9FL0qkqUGV2DbkPHoeuCGKsXlNeGUUF+Y12szO/C3+U1gFBo8HPBJGoacbU5p5f/jzWp+xJr+urLfLNm03qvCJ9SeoWPKOH+hi/V4b4zBk6wTg/7r3CaiLaw/fJNftwRYmaUUJI/sfKBWrONJ/jxRwjnVhZu3LjO1v78E+vQOpMKTdX6SgtMHHzwtLMpQkumHDY4nRUVNRLEWO3Au8EDeAFPUh5FQh6QF+QJeUMeywJkAxnxcHuC3EQ5QqaQLYIBQdbaxvlzZ/nZ1aOHDmKJEWGkd035cjOuX490rDRBv6BnuBd61vjl/zEDyjN0VhwbEPWZjwqTjkPXixir9nKrs2zZQit/N+f3eOEIBiYSaggYSJCHK0uNi2ZpcTGcUmKiWHxYMF+zFunvyyMM41NKuBbu580/m0VF8NHF5UsXs6OHD6uGCLUEnBX2w5mrrMvmk3ydntTQMGqG/gVWQSByVFE5nXkc66ocNoSP2CHfvDUT5ICCQuE7mhnfRv+ob17XjE8//fSZxx0ED+AFPIE36dYjkNiHQZ6QN+SxLEA2kBFkBZlBdlJDg2wRzBWyrorz2e4/uM8O7NvLliyYz3p07MANjuuQr3cp3RIJAym4BwseVHoZyQLcnLnO4hw+UQ6cBLlA15cvXmxN4qvWDab/F+rv5WRnarSIK5OEMfxGB9XT1pq9PW4M2/P3LvbPnj2ccIDgzz98xz5b8TH75MMP2Yply/inlHDtoyWL2VdffsH+2rqVHTl8iLsv2liZLwL98uPXb7PFRy7ymjhZrX/BB0aI3tl3gYdpK68fj/4iVsZjbg8KKiosPkHoVwa4O+enxEV0nD9pUo1Z8ApewBN4A48ivyLvcKmQJ+QNeSwLKlne5bKCzEBSQ4Ns220s4LKGzLU0JlICOLoLo6SIF/PH2rXs0+UfsY+WLimlWyIt/2Ap17N1v/zM9XLHtq1szMjhfEWOccM3HskBBN3Gb+h6pJ+fM4muWiNu/U+3fn0XamoXEzMPMW/xqIDg9xJhzgJGpQ4YTHHxVVZ05Qof1cKnlHANW9hvV3KRcHnAEkWctDn277MsF3NnpByioeETtXLWnwU88CiOvC0L4lAztqHADVH38zFP5u1oX5jRLPGdvt3bKwTZ1RiAJ/AGHsWTe0RCXpAn5A15LG/zKGQEWUFm0nlIfKLSyll/nI3dc5ZtLLzOZV/VwNrXSxcvldItkVBxq4+orvn6KxYfGsLQokF/RWMTdPshdN2oXj1XElu1noH9PwtdXWdiYBGYEA0NhYNaHfMVGBFCbIuaiDv3H7LVJ4v4HisoBBbIirUwOvD4RKBTRPktbxDkOyqczJRknl8MIIiFg0+4Ia6W5nfDvL1+HNS/fyRVMK8IsqsxAE/gLczX60dXKwvVaauSPCBPyBvy+O1Xq4VclwZkBFlBZlIZqr6rDC9vy0m+Cxuyr4lADBboLPILHRYrTdHQiBbZ6Oq6kNhqjqFhIjq3RfMaa2i3xBqYWjO+hEhQCrEGxuEQk/+5wI+hLU8t5s2a+ejkSbFgQMJczH1/V8cDydHhIzFxLMitxgG8pUZHjvR3czpAPD8A72I+eHlS3pBH7JIoC5ARZAWZYVkWZCjKFASPAQa38NDFGnuONnQVOgvdrTWGJrZo6379RchGzcKF2/f4SBnvvBOJCgHlwDB1500n+CERZY02opG7SO6tcuhgUsRGzLCB2kgjuR6W+rq3IwN9PxvSt2cEyasmR2iqk9elfVCQl/ty6vjfUvH+b16QN+Rx5OBBPM9lNfCQFWTWZbMqtr/U0CBnHCWFqZTzJPuaCOhqrWvRarKhQU+wUgHRdqEQ6oYGhYCbU178C0yYItJUt3ZtuHuFuIPIv0iQh725yaXE6MhRmzdvNhZkVmOxcOGnjQM93AZQuRXihBZpXpA35BGRtpDnshYKQFaQGdxxyFC9RcMwP2QO2ZfnJTwryIamZaA/gbgWY/8+V8rQMMma8NsRftTRzss3y+yfXbl8iYd1Q8Qpvt6OFBH5R78GhNGrcD+fA5lpyRl0+0uCzGo0kmIiUsP8PPd72lk/ygfyhLwhjwjnhzwj75oAWUFmfbef4jKUTv7DPceSLDGmSHn93mcF2dC0DOyKxkETI3ed5bEapcuuoByojXGg3+HislcyFBw/ymMoIrwb8ivGL0H+0cfxdXG82Twpdk3nnExfQV41Ht3aZvuBZ18Xh5swMlHRkDfkMczHi+cZeS8LkBkOzoAM1Q0NsobMIfuK7EyvbsiGpmWI8RqxWkHspEMZ4OrwZUP0idMzEf2pLGCDZL+87jyWojidgfzzVoAIgWJSY6Mn9W7XDhOctQK9u7azTo2PngTekQexRRPzh7PCkWfkvSxAZuPyz3EZQpai+wgZQ9aQuRj/saZBNjQtAxsRPz1+hQ9FSw0NigFqs7GAH1V74nrZy65279zBurTJ5fmEEoqFAsIEp5PCfFNccGBbZf/+NXa0UR3gFTyDd+kCBOQNebQzNeZ5Rt7LAmSG89cgQ1GeUkODzCF7bW4G1RZkQ9MyzlFtip2/WAirydBwogrOhcaRtWUB8e4RiltcmCrW/iAoqbuN5c8dMzPivv7665qxabACwILj9lmt4sG7+kofsVVDnpH3sgCZQXY4VVSToUHmkD3KoKZBNjQt43GGBiV5nKFhcXNkoB8PyS0WCEh0HYM8XL97f9688Jo4SV0WwOuShQvDwLvUdRTLFXlFnpH3sgCZzSPZobKSDU07+E8b2tzHGBpWEQR5uvH495oMLdzf5+utW7dis2C1FkplAF7Xr13rRob2uZgfkZBH5BV5Rt7LwhlyCRceUkUSgyxF2eITAyK9yXX8hFxH3FfTIBualqENQ8MqApzogi0WmgwtxNvjsyP796NQahX27tpl4+fqtELMj0jII/KKPJe32gd9L8Tqxwkzmgwtb6vqnILy+r/PCrKhaRlVaWgiQVmhtIKsag1QOaCS0OQ6VsbQ8B27rXEdLV55I7rPCrKhaRlV6TqKBPcLbhjdWqtcR7i7cHs1GVplXEfR0HpQi7bs6GWtx+bXBmRD0zIqYmjaGAzBwEJtGwzBAI48GKLZ0BS6Td43rl/fiUQlG1pF8DhD09bwPobKn0VckKcFpiIwJVHVw/tf1FJDo/wvFAytejd+1lZDkyesNUOesNZsaIIsHnrYWn3SOikpaObMmdXqpdRaQ6u2JVjx0ZOwrEmQV40Hloth2Zi8BKukoWHtKgL2xAYH/DTxrdEtDh48+IYgsmpBrTW06llU7MAXFWOhriCvGg8sgFYtKnaUFxVLDA3dA+w8T4mJXD935vQORUUF1RoJ6/9ee+EFeyqEBbXN0MRtMtiyga0bqGmlhqaNbTLYaoItJ9h6IsirRoOy9BK29GBrD7b4iPlAnrS1TQZbkrA1qbZtkxENLS0ueuO82TM7nTiR31gQW9UjNDT0RUdzc1cbI/0ltc3QUMTixk9sRpQaGlwd1MaV3fiJzZMkg0Jsply4cGH1FcxTAptTsUkVm1XFshRJWxs/YWi1ceOnaGipsVEb3ps1o2O1Glp+/trXRg0Z0IzciTU84KRQ+9UGQwOwnR7b6qEQ2GYvNTQohFZCGejp3EJ4gLwuuUEkshodygDhFhB2AeEXOO+SvGgjlAEMDXJG+AiEkaiJqJGGdurU3iaL5s3tkh4fuxlMiIUjGpoYnKe8OZdnCQSIQaAYsZMuNTQohNaC87g5HUDgm5oenAcBhBBIqCqC8+CzBf1GICQEREJgpJqI9b//znJbZpQKziMaGlzHBXNmda52Q8NL0+NjNmkyNLFFK28VwbMEQp5h9AsuIpRBHHlUfVd9Yii60uHmrCzuIpRbjQ835+31I0LjgWdpHpAn5E0b4ebgUiLEX20LN/dMW7Tt27c3mDB6dKuYoIBf4TqKtSAKhw916zVlcaHBPBosgqEWFxeza8XX+MEEiAy7fctm9te2rWzH9m2lCNcxKfr3rp3s5IkCVXWpZWDQC8E8EdQTAVTVa2A5gKqq0tRGAFV4DDyA6t9nedDaqh5wPH3qJD+1dBvpmCb9AkHHQIcO7Gfnz51jZ06dYssWv8/iQoJ43qHDjyockgN0HLo+dvSI1tB9QXxVj7Vr19Z9a9Cg8CB3ly95wQhMccboO3x6N3I3cPTPR0sXs89WrGBffPIJW7JwPhs3eiQb0rcXGzagHxs+sH8pwvWh/Xrz/s/cmdPZrz/9yAqOHSNDLRZEWXnIIcH/WyHBEfn66KFDbO0vP3F3fsSgAWww6Zgm/QIN7d+X6xmmKxCzH4daYmALc4U43EOUAyfhO3R91KD+kdB9QYRVD6VS+X9ff77cjjr7C6WDISKhNrSi5tbL3pYfWIFDLaIC/fhcDI4D8rS34TVlWST+H+jhypIiw7nhwU27eLHsUyifFPIhF9V9yEVxlQRPvXDhPPtm9ZdscJ9e/FzzQDfnEjpUHuFgC+hkiLcHP4rXygCHaJbUZeg25ANd/3LFCnvoviDG6gH5929EBwcOc7NWXBaPbSrZsjXhh13wI3KEY3R067/Cj3IybPAaH83C8UClCNfpfxw8iGdBOGwuu3kq+/iDpezsmdOCiCsP+dim6jm2CTL+i2StTdy8cYPt2b2LzZs9i2WlpzJnhTnXLyx+xhFMXMdEnVInQf+4jtEzevXrMhxkWKolI4Juu1opLkPXcTC/IMbqRUZCQlyEr9cPTuYmt3k/TcooEa6hM4naEYQCRWv3JITnYLA4ZC41Npp9uGQRGdsZflhGZfGsDiLEYYD/9YMIW5EsIdNcku2Uf3AQoXYPLfl75w42duQIFurtySsF8A16Gh0DlZADygzXiJwtTG9HB/r9AF0XxFj9GNa7t15CWFieg6nxXktiSt3QtEVYmYCWEILEeVafrVjOLhZeEET+9Hh2R+tG/ueP1sWQPmTab/sp9nnBFVaoxfmz4qIiNn/WLBbs4c4Pi0crBd1QN5anJaTDiXSaWrO97bJb5kHXBVE+G2Q0a2blYWM1llq1QxgataUCFJmE4cG/RT+O9+WETIh9GV4DCQpZ4h56FrWMmHGR4EbiervWLanj+7Mg9qfHMzss3s66GP0jHOCOg9zp8f/cYfFY2wiZTvrnPMu/cktr82fFV6+yH9d8y7LSUvjyMHg7Cn3NBoaV99Ap1WoXUe9KHhYv6p2ol9BHexNDqjDN6dNor5PCfNTkyWMtBXE+O6xcufJ/2RnJDiFe7mPcba0P2JsZXyPG76LGxICIeuYxJ4HzqOk+TrbGhg9wv0Kv6R2FflPqmKuexX24HwIQn4WAUIOhxp005k1+1lVlXchr1Jn/iGpluI/qyoLvqJXxfc6BQnbuJlq1soHD8JYsmMeSIsM431wJJPzju/jb3szkTpCHS37LZonvDOrfOxITx/Pnz9da+HCkhTSRNt6Bd+Gd6nyIv0Vewfvi+e/xvJQFyACyeJdkAtlARqXkRrKETD86epkVlzOY9KT4Z8/frE+3LlwH4OlAJ8R8cBLyRXr0wNJA9w7p1W0LPR2uV6R3DzEhjQYBOijqGAjfbag/Rp933WwsrwV6uh0IdHMZqt+woRm9tmas7CFG/i+jWYxVYmRYtr+b8zRfJ/vf/Jwdj1JtcMZCV6fAXLcJJzKgAi9724KYIP+C9PiYk+kJsadiggP+cbexWkuC+NbaQP8rF2uLtdQ/OEs1L3e11I865a4CdWTbtMxgm/78g924XnZHvSKAnW64cIMpd59jOTiUUE1poEQp646yQX+hVbvGisjdLA8nC6hPMmEsH7EzaoC+ZWmXBi0KPjGs7uvocDLM1/vH5NjIkV07tg1btWpVQ0GsTw2kgbSQJtLGO/Au6btFAm/gEbyCZ/B+ouCYkBvNgAwgi8E7znDZiJWRaGSQIWQJmUK2lasKS+LnH75nUQG+DGdQq/et8J17Qno69yi/e5wtTddQq/aVaaOGq6gRWJcYGXq4eWL86dS46ILYkKACD9JF6KWZTuMC0sEzEf6+R6OD/H9LjAid1jojLTslNtRcEGnNAsmhTm5uK/tkMriEsJARXg524xS6OkrqrHKyMzVWRvj5KDtkZSoH9+391vD+fd/q0i67f6ivV461gUGag4lhcpCXa05McOD4cF/vda42iqu2xvolFIMrBdW+EX7ebNbUKapJ7UoCGxGx67rrlpMsmRSnRO1MHXqxdp6Uf579ffnWYxUHE6ajhgxi/q7OnFeMaKm7alAKkK0RRrUsmJ+r45FgT48Pgzzd+2PVf/d2OQE9OnWy6d+li87ZXbvqU7Kl3Etcw3+4B/fiGTyLNJAW0kTaeIf4PikP4Am8gUfwCp7Be3lA3iEDyALLrSAbyEhqaJAhZAmZamuTJzyXC+fPs7kzpsP1Zk3qvlgiP1RR8wUCjuYmhfT/Kh8Hu36B7o7plrq6yXr1Xk4M9/fJ7dO187DhA/uPHdy7p7JTTo4yjHQRemncuKEy2MNjXNtWGSN6de2UPX3SGHt6ZU1en6pq3XJycupnJSY28nNwaGzaoEEjkZxNTRslJgY1Gjq0e6O5cyc2mjZtWuMhQ4Y0iI6Orm9sbPxqqJlZXXzPiIlp3D4zIy3C3+dPNxvFQ6w0EYWKGgsuA2rozrnZbOvmTbwgKgN0vXZfuclG7DrLJ1wx+ljC2IjSSHk6bjzBlpObefZW2cP9wN27d/kGyZGDBzIfJ3uqYVUDOppqYHxyt8VI/6GlQdPrVBldCPP13J+RFL8mPT52EnY9d85qFY8YJOvWrXNfv369JQjfcQ3/4R7ci2fwLNJAWkhTkwuO76IcwRt4BK/gGbyXB+QdMoAs0n5Xq5SIIDvIELKETLU1QX3v3j2+eAFlji4HvBoxT/i0MdRnzgqzh2Henl8P6NszIjQ0tGGGn9+rZqRTpJZ1c0ivpiuVDaFzcydOJB0c2igxKOiRbsb4+TXu3r17oylTpqBSq965smeJb1eu1G+RnDTBy9H2OFdQuAQSJTFq8BqfaPzsk4/Z3TK2bjwJsOt38WFVBKcMtGISdwgE5UHt3Wf7KfbNqSLq3D9eg3bv2sFdMfR7wLs4cioqPM8PddKRJ9UAkDAySTW2r4vDbex2RmgBxPEI8nBdE+Tp9gUZxXIQvuMa/sM9uJc/I7rclBbS5GmrDRaAB/CC7+ANPILXxwF5Rt4hA8hCugoEBJll/H6cyxCy1OZOalQAs9+ZRpWCAy9/qYdAfXtsTbrvZqU4GuPvP4Rur77VG7UdmPPp1b1zDHVKv3cwM+IjRxAoFywpD5/Ipppt7KgR/DT+Bw8q1+G+SUqEjYtYgQ6lwYiZVIlQW2OBbCpdH7HzDNtSeINdr8DCveNHj/DBhWxMqlIHHiNlmDDV1HcTiRsH/pP+X4Hfj54Tr0kI1/FOvBs8gBfwBN7A4+OAvCLPyDtkIC4WlsqIy4wqKcgQsoRMtYEHD+6z0ydPsv553Yn3Bnyer0TeyPCsDXWv+7s4rkyJiooUVEhGRUDyrbN27VqdpPCQ2X7ODljGxGsyUbnQosEvb5mSxL789BO+UqAygErcJsX4/vRV1mvrqUcT2FJlaikoEzr64/ecZ5tJ8R63Wxh9C4zgff/N16x31y7Mz9mR18Yi8dZazTi4wahfx/dyfmt8RrgutgAigQfwAp7A2+NGbpHHLRdv8Dwj75ABZCHKRXQZITPIDjKELLVjZoxduXKZrflqNctIjOerPjAgJs0jyM7E6FxyTNTQ7774osafsFoj0TIlIS/cz/MY9cnuSQ1NVFIsBB0zYhgrvFD5CWwAwT3h9rSjPkjS2qNceUSF4kpFv+EyQeHm7C/kO4YrAiyK3rxhA3t3+nTWISsTq/qZ/uuv8hXyqKF53tSUp7KENJE23oF34Z14N3gALxVdqI08YigfeUbepYMfIMgIsoLMFpHstB0gdf++vWzkwAHcbYSRie63WKl42FhSN8J9X7vWLZvR7bXihNUah/atWwRFBvotszM1uiJObotChsAxLN0xqzWfX6ms+wg8oHoYE6yIKYI+B+bWpEuzQLgO5crbepItPaIKcY3J74rg8uXL7Dfq1CuHDuEr47G4FfM6GJjACge01HDtsOGyrBZPStIWC8/wSVxKA2khTaSNd+BdeCfeDR4qAuQJeUMesZ8MeVbvu0I2kBGui0fnQobaxC8/fs+aRUVQHlX5FCsl/kn5J5fxRnp8zGed2mQ6Cmoj40mBUaLowMCutsaGh0u4TkQwNL3X6rKkiDC2auWn5a7LexJgEhvxL7DqQXQXpcql6q+p+my9tqkObthfdPuxbqQIzP0dP3aU/bn2NzZj8tssM6WZaqc25QeGghUa+M6VSlCsconu4YZGz+BZbqj0HWkibbwD78I7KzrviLwgT8gb8thSqFw09csgI8iqvDgrT4tr14rZIupHetjZMN36dUtUOqrvOhju35oWG921X79+1bcp87+I1NhY/wA3l9/hJqJfJgobymXc6HU+rzKgZ95j54CeBBgx+/JEEVcyGBTv/JOiSY0NNTmUDzHl4VphgS36Jk8C7LX7dtWX5M69w0YNHsiDlCLiFELZuVoreH4RIKfJK/9jDV+sww+bAOE7ruE/3IN78QyeRRpIC2kibbzjSYA8IC/IE/KGPJZaNUPXVC27qrKBrCAzbbZl9+7eZbuoTAf16clsTQz5KnvRyEDIt42RAXO3tVnaKTPTUalUviiojIynQe8uXUyz01Lmhnh5XIZwRRdSdJvgt2OoH+HQtLGqXwRW96PP0W3zSb52DwonKppobLgG9ylnAwZIzvEBEsQtfBIuwPP9+/f5wAQiTSEfUyeOZ/3yuvEVMKnk9kX4+bAQL3d+ogsI33EN/+Ee3Itn8CzSQFpI80nkgTvBO0YXkRfkSRzkUG/JcA1rQ3FCDGQEWWkbWNe4eP48FhcWzI0KLbVoZCh7LKnCVp/Y4MBRlM9aE369xmL96tWv9+vetU2oj9d6EjIOHHgkcBCG+tEXwaqByo4+SoE+Sn7RLTbln/Msi5QL82vq/TVes1Ntj0GC3A3H2fCdZ9lXJ7Ei4ukGBDBfdIlcYLRCmEDG1vstGzfwXc6Ia4Fjk0D4jmv4D/fgXjyDZx836VwWwDN4x2Qz8iLOHaoPfkAGkAW+QzaQUUX7qE8CrAQZPqAfX/GBHd+oVHmZo4KlytbZ0vxWXGjQlq5tslsLqiKjMiCZvzhy0CDrUA/3mY4WJvcgeKmvjs17mKSd+OZodk5Le9VEwI3aVHidTco/x/dWQfnUjQ2EGh/9FezLwoQuto9gqVKRlvssVQHwCF7BM3hHS4W8qLdiIORdVakUsIkkk00Xrj+xu1xRnDl9mnVt14bpvvrKo50FoqGhsnWxsjjTpmXzyTOmjMfhEzK0hSh/3z6B7q53sH4PtZtobBi6hqFhrd6hAwe0MvooBbaEwJ3CqBoUDKsfNLlTqPnRZ0F/BqfSTMq/wBffnrt1l92ughq/sgBP4A08glfwrOp3lm7FRDcZeYcMIAvIpLytQ5UFDK1TThZr/PL/Ss+dUdk7WZj8k9epTUu6VV4Jok2kxsd0jgkOvI3hagyESA0NrRwCr+zfu1frhgbwlREXb7AJe86z1qR0qPFF90mdUOOjVWiz4QRf4Y5BhV/OFpNS15zgoeAFPIE38AhewTN415Qn5BV5Rt4hA8iiIitjKgMYWsfs1mRo/1eWoe3q36NTrKAeMrQBxGto3iz+zWAvt7uuluYlWjQM8SMM91vDh/J+ijZdRylQe2+6cIP3SzAIICofhr6hgFLFRAuAUTnEzMBvHP7w8bErbCspKAYOrj4DlxLvxLvBA3gBT+ANPIJX9RYaeULexEoFeUbeIYOqbMlEwNCwiLjJKy+VMjTuOlqaH+7aLqdnQUH1Hjzxn8XmzZvfGDNyaHJscMDX9qZGD6Tnd4HQR0OL9s6kCeXuCtYG0B/BpCxG2nrz+SXV0Dc+1RVVNWigcsVarz/OA9jg6CKcIYbIUQjTdoNahXtUMVSF3iJNpI134F14J94NHsALeAJv4FG934m8SPOGpVXIM/JeVX0ydZw7e5b17tqZGTdUTeA/6pfTJwZDqI92pXlC7GcDe3WPqfboVP81zJ4woUluRnqryADvVdQ3O0st2cNHo09EED6iGSFc2NKFC/h2iqoGavOj1DIg2jFaBSiqpuVaUqWFwibTPRgswYmYCM82fd8FHngUUX63X7rJCsgYMFleWSANpIU0kTbegXfhnXg3eAAv4Em9chAJeUGekDfkEfNkyHN1tGQiMEUxZuRwxO3gHgy6C6KhodztTAzveznYnAn2dFsW5OYW1aKaj739zwBbZdq0bNkmyNP1O1tj/Rvqw/oQPpYZQejJ0RHsh2+/FYqoelBI/RzEKxy356wq3BopJ9wsPpigQXlxDYT/cR8I8TZwTNRkcslwSATS20kGcuDqba7YCOeGI2tBp2/e5RspQfguXsc9uBfP4FmkgbSQJtLGO8T3ibyVxZ/IG/KCPCFvSO/CM+hfXr9+na38eDlLi4/lZYw9aNLyBwkGV+htZ/tJSnREsylTlLqC+sioCL7/4gsD5YABvRNCQ9bbmhhe17QyHTUchO/jaMdXQuzZvVsooupDMblle67c5AuR4V5hmwhaAz4qCVJTZpDokkGh8YlrOFgDwVzzKI2+207zVgSnZ8LVw7nQOIR94aFLfN0hCN9xDf/hHtyLZ/As0kBaSBNpS9+Fd0t5AXHDE3jmrTIR8oI8IW/I47MABrUwuDV66BAe21OPugjqOoDfqHCdLEyvxocE/dm9Q4duzyz+Ym3DkN69TTNTmvWKDw3a4mlnfV8UplTA+C0uoG3RLIH9sOZbHqznWeHY9Tvse3LTMFiAjY8YvXucewaStiKp647yo6QSflN9Yg0hQijA3cPQO9LFgAQI33EN/+Ee3Ct9FmlJWzBN7wbhP/AIXsEz0kVLiLwgT88at27dYl9/+QXfoArvRdNOB/xG9DVvqnATIsI29enaueuWtWv1BXWSoQ6S64u5LVqYJkWG9gtwdd5qa2xwV91dFAULgWNQJCY4kL07Yzo7e/aMqmSeIe5Q/2XXZVXrNnzXGdaVlBbLmLC6AkqvadBBqvCc6H/cUxkSW9KyDAz3gBfOExF4BK/gGbzD/UReagqOHD7EB7qig/wfLbx+1F+T6AQqZE97m4eJ4SHbWqeldLIiBRFUS4YUwwb2dkkKC5vg42i7h4zsDsKKq9deMDxxZXt0oB+bP2c2O3P6VJXMnT0NMCKHPtRuMjgEp0EkKEzwSg3tkVFJlF8T4X+pAaF1kpL0v4qkJRLuFw0NvIFH8AqewXt1jSpWFAhVgW1QE5SjWLCnG5W9qqItoReC14MQ3k4Ks7uOFiabnRTmvQcNGmQoqJcMYGjv3p6tUpq9E+DidBzrFsUaSipMXOPbSMiFwELT92bN5Ecn1VRgUnj9hRt8YAKBRDGsDsXGqB9G9OCuPXLvSPk1GUhlCEaFtPEOvAvvxLvBA3gBT+ANPNakyXRNQDiDXTv+YlMnjOdeDCpaGBs+seD4kcGRjuAa1ka6Wlv8lRQdPrJ7DTwyq9qBrQ1z5rzjmNs8bXaYj9d50cikBsZrKy7Y1/nv6KAA9u7M6ezcubNCMdRcwANDANH8opvsC2o1EIcehz5gsAI7kuG2wSjQwqCvJBJ+S1svkcQWTNN/0jRgXPiEscGw8C68E+8GD+AFPIG3GuQllgssRDh65DCbOWUyiw0JJD3BYYllhPIjHXJWmOFEohMtkpN6dOnSpR6pW80OIVeV6NWrq0O7zJaTycgK/g3yWbqzyzc0Nn6DH/+0YO4cdurkSUH8tQNY3Y4h8sPFd/gxtBgyX3zkEhv79zm+5wtHz8I40OKAREOREvpTMCZOav+B8AyWUWGlBwZEYHwYgcS6RLwL78S7wQN4qYoV99WBE8ePsdnvTCFd8OdGhoBD6t4P5toQExTGFh7g/W3L9MQEwdieL5C86uTn5zdum9WiS7iP10FnCzPe3KsLTGVgDbjAyLVk7783l4zshEritRg4KwyjejgFExPfGLKfdaCQByYdS4YxctdZ3vpgHgxuHk5s6SkM24PwHdfwH+7BvXgGRjWR0nhn7wV+TjcmmnG6Kd5VFeeTPSscOrifzZs9k+uEnYkRD59n2qRBCTcSIfcwYOblYHsuPiRw1qAePZ6//hrJ6uUPFy8ITo2L/sDB1Oi2ONsvCgnfRT/cxUrBV3F/u3oVn8T8rwDtCVoVxEvE8bQXbt/jh25gmdN6boBX2crjV7ibh8EK9KfmHbzECd9xDf/hHtyLZ/As0jhPaWHpFdLGO2pn21U2Hj4keZ0/z1atXMnatmrB7IwNucejrkMwNBeFOSJ//dqva1dXevT5ch8RobhHpw7dIvx9t0MYFtSaiQJCrYSRRRiZo7kJ65SbxX5Y8w0rKnp282TVCSxzwk5nhAY4c/MuO3fzHidEl8IKEBC+i9dxD+7FM9W5RKom4PLFi+zbr1axbm1z+QkwcCOlXQ/oFubYnC3Nd2QkJCRW69G4NQFxcXFNQ30933K3tS7gzb1QE6EWgqDw6Wlvw7q1b8vWfP0VtWTXBNHKkFESN2/eZL/8+ANrmZz4KHqYtGWDsVkZ6e30dnbIUvbq9Yaggs8HFAqFrrWx/iQrQ70zojDwCSODC4DaCXuRcBYWVgfIkFEejhw+zOOmUDeE65A4EsmNjOuW7k4HU+PsOB+f58vQ9OrX1zVu/Poks6aN1AytMTN4ox4LcHVik8eOqXWjizKqH+fPnWOfLv+IRzKGdwRDk7qP8JbsTQx3x4aH5n44c+bzZWhOFhZ6DhYmU2xNDM9bSlxHCAgh1LCLemCvHmzDH7+z27flFk2GZiBC9ccfLGUZSfFYxc9HqEsYGZG1oS6OxtrWPisriR55vob406KjdaOD/CZ5OdqexdFC/65pVPXRQF4OdmxYv75s66aNZGzaPWxcRu1HYeEF9uGSRaxFs0SNRsZHHakSx/ysp63NN+kxMXb02PO1QXTSkCEN2rVu2TXEx2MbjuCVLh6GcDDiiFggOIZoaN8+bMuGDeyObGwyBGB9K1oyGBn0BYcpYqSaD6wJesT7aWRsXvY2p6MC/CfgPDRB/Z4fsO3bX1IOGuQR7uf9ro2R/k2xjyYlCEr/tVd5aGsY2+b16+WW7bnHQ1Z0+TJb/sESlp4Qx8+dhpGpu4v4DU/J2cL0TlSg32ed22THTJs27VVB/Z4vzJ8/v16Qu3uOi6XFPjT9Yj9NSmjZsOfM3daSDe7Ti23ZuFFu2Z5jXLpYyL74dAXLbp7GQwyKLZlUZ/gUEVXSCJMeExxwoEvbrB5KpbLhcx1XJDIoyCYmJHCys6XFMXHuQ9q6wRWA742462jZhvTtzY8cul3FQ/7YdoMoTLt27OBRgX/54QdOOKz8j3W/sb35+Txk9fOGSxcv8p3s639fx3776Scuk19//JFHTf571052vgoXeqPM1/78E2uX2bKEkZVyF+nTjYwsOihgX6c2OSNxJrWgbs8v8vPzX54w4S1vbwe7yea6jQ+QsZWKcgUDhACxns3NxpIN7deXh8KuCjcSBysg+tKGP/9gi+a9x4YN6MeX+LRMTmKtiNAnaJ/Vip80uvqLz9j+f/7hQWRu3LhRZWHuniVQ4SBvyOOe3bvYpx99yEYPGcw652ax1mkpXC6Zqcn83LWRgwawZYvfZzv/2sZP9rmvxUBJKGuUOboQaKnQpVAf+FBV1DpYF/sgJijgIPGkXLVihQk9/vyu2peCFPSVIBcXGwvdxsMVek0OWen/W0NJCTUYlti421pTy9aHj0beuaNdY/tr61Y2QTmalCiVRfr7MG8ne+ZoYcpPM4F7i7B2TgpT5u/mzBLCQ/mk+njlKPbVF5/zY5H+S0BEsQP79/G8oWLJbZHOYoMDmJ+LEz+aF1uaRLk4Kcz4ofPYK5aTkcamTZzADVMbQBmjrFHmOL4JHo70wAsQjA7uoqol8z9E5TJCOXSovA9NE6xMmloqdHVGKfSa7oXw4BKou5HY9IlzshBebii5kZvW/8lu3bopFMnT42pRET/1v19ed+Zlb8tD2OHwDBg33gkXRST8Rr9Rp+5L/KhXHBuVlZ7KJo55k63+bCWveU+eKBBSrl2AcZ04fpzkup59/MEH7M3hQ3neoMBNX32ZNaU8G5cjEz1qaSA3XycHavkGsb+2bWX37z99ywZ3EWWMskaZo+zxrtLuog42esLI9nbOzR41b+ZMS0GtZGhAHUvDRiYKfRibziES4sOy3EicaOlObiT6bNyNrESfDaev/LhmDT+0z5JaU6Rf4jBAqi1F1wSE3/weKnCQOMKFZWNhPp7UymWy92bNYDvIhcJC6Jo+Ugr3EOsFz545zTZtWM/PVUM/KNDNhUefQt6QRy4Tyu8jmYhyoU9RJpAZWhzcCxdvWP++bPfOHU/lRqJMVS0ZGRmVNcoc78A7pfoAInfxIbW2h9pntx4lu4sVhKVxUytLA53hlnpND2ga9kdthpYGrQlGI4f06cW2btz41McVoWPfrV1b3sHGec8wHmlhlke4D4Wvqs3r8k9HCxO+QbVtywzeIuAw+5occgHxOD54fyEbPqA/y23ZnEUF+HG3EPLFIBTyhDxqyr8mgkzQ6qFP7UmuHowNBwo+Cbi7KPTJUMbgBWUubclg3CDuLgb6H+yU3Xq4Uqm0EtRIRkVgqqdnQS3baCq0fY8KUU35UXsiHLgH9dlQIBgdfJKtNFisvHXzJr4YFa0Ramv4+VIjw/cStbeEpLxI7wVfiDcJVwvG2yIpgU0dP5bzhz1UNQFw504UFPAwfcphQ1hcSBBvuWAcMBLkoaw8qkiUh0rZRflI78N1DFrgpNaRgwayndu3U2X4+BB26ApsppZ1aD/qk1HZoozBjzofkC1azeggv32dcrKUCxYssBDUR8YToI4h3EjeZ9M5DOHy1k2tMNH6QDFQq2FLzXfffMWuXi0SiqxsYIRwy6YNrE+3LnzaALu71QtTJN5XNNB9SPRA+CzRd5SSqGDgS+zfWZNCYF8dRi2XL13Czp4+LXDxbICTQPf9k8+mT57EEsND+UAG8sRl2UgV5x55KJm3f+XO8y+VCRko/13i/n/LB26kOxnbsP79+BQANm2WBbjZvCUjI0OfDK0p0kBa0nTBH5ZWUZ/scEdyF1csXiy7i5WBQkfH2tpEf4SDmcl+jPiJtacodBQwRqCwXAv9iXatW7IVHy7jc2DlYdOGDbwlw3QB9/3VanB8tzbQ44UZ4OZ8PjLAd12Yt8eqAHfntZ72NucRegE1Ku+fqLWCUgK/UBacO42+C47CXbbofXbm1KlnsusZMxA4Q27iW29Svlx43tHygje0TprygLzxvpGuDt+Ggv6Sj5P92UA3519JLl9G+vts9na0K3IwNebloS4LGBpaNkSURiz9I4cPCtyUxJ3bd3hLhq6ABxkZBqTU3UWR8A5yb/fHhQWNeHvMGGtBXWRUBu7u9mY+Lk6jvR3t96HTa02CV69xoexQaLQezRNiqeVYzFd2qwMdf+xdwllqGLaHEpg3Le2WwICczE3vhHh6HMhMTZ43pE+fNsP79Ilvn9kiJzrYf1agh+tGqnGPOJobF1ElwOMJorWVupjqaaKfgdo5JSaKrVi2lF2u4pNvNAEV0LxZM1mwpzs3MPXWQsqvWKGhQkGL7GaluEKVzP5AN9dfEiNC3umY1Spr3FujYvvlde2aGBG22M3K8gDd/4BXhpI08R2GCs8j0MOFzZk+jQ+8SIGBD6xn5aOLZMjoG2rqF1oZ8M+HCr2m+8jwR+s3bGgmqIkMbQARjLPTU0dgZMnFykJVw6opCFw/1IBo+VokxbMPF5c2tqOHD7EZk9/mB63jXlVNXtooYDT+rs67e3RoN+TdGTNcVq1a0nD79u31sJQnJyPDQjlkSETblhl940IDVoZ4uh8hnu6pntXcKmArkMgfFA5zUls3bRK4qj788O03LJUMHfLDnKQmZRYJckBrQhXSvRBvj2MZifEfZ6WndGyZlOTRIinJdNKkSQ1Onz5db/bs2U0G9O7tFODmNtzGUP+wpZ7m9OCWQq5RQf48uvT58+c4TwiQuo1kwQc+yI3HNilN5SK6pnSduhI6IxQGdU0F9ZChTSx+b4Z157atR1Dndz/6ZCgIqaJAKaDMUGTUfBiE+Ji3HJd4gaLzP/udqVj/xp9Fba7eMqJ1w3+uVoojKdGR47777rsy52P++mu9YefcrKikiNBuId5e7/i5Ov3g42hbgBrZiVoA8CNNX/zd8MU6PEzDrKlT+JxVdQD9MrirE99U8glmuGXSfIO4G6zbmIdpI5f6ga+zwwF/V6fVoT5e05Jjo3sM69cvvKCo7EP/urRubRfq4THN3UpxCu+AYUiNxYK+o/8HuVMLyKNMr1+3jv303Ro+hO9FMoGLCYMs4S7Sc2I61JLtV+jrjESXQnitjKrAqlUrTDpktVRGBwYcdFaYP+AFqGYs+I2WA4WNlg3LhjC8jMjGCLyJe9RXFqAgQXYmBhjpOhMfHjK9d+fO3sJrH4s5c+bo9+3aNSU9PnpKkIfbb562Nsepz3gdI3nq74EiOZgZ81YNoRqqA9evXePvateqBecBrZmULyg2Tk0l17vYxdriUKi3x5pWKYlvDurdO3LTpk16lMRjBxronpfeGjDAt1l42EIfR/srjpRHTQMkqAztqK+HKZDuHdrx1TWY9Ifrr16WuB9pgD8rfb1DZGRKhUEjuSWrDpDbZoo5k5jgwIM4pK4sNxJkT4WNwxHSqd8W6u3J+xvipKv0fvTxMLIW7OFWSMr40bC+fQOpNXtFeGWFsH79+te7t89SRAV4eyVHhncI9/P6ljr13NikCoR3431Bnm7sg/cXVMsaSWz3n/3ONL6sDK0W+qYiP5AdjxSlML8R6uP5eWZqak5SRIRH7y5dTIm3J9paguV0U5TKiNZpKUt9nRyuoLIT3yG+D7KADGA8KD8s54InAXdRvEcktLJIg/rmpxwtzN6UjayasXDaNCuszI4JDNgLNxKFou5GonDhpmAeBhPRcEtgfPweiWuCgketSf2swtSY6GWzp06NJt2sVFiyhw/P1h/ct0fbuNCgP3AqjtTQwBdqb0wKz5o2pVoM7SS5zZg8x9FGXNFFOYCIH1Lmy34ujt/lZrVqAWMRsvFUoNfVG//WqMhIf78PHc1NzuB94sCKVAYoL7TuMDBeBmplgk+44OTCno8NDXw3LsjHQXiFjOoEltpgDgUrtTEaiU44ClBae4oFCgPDp/p/IBgZPX8pws/345yMNBiZVvYtXb582axlctIYGyODYnVFw5pA8DRl/LhqMTT0T0cNGcQX5aobGvJvZ2qYH+Tp3qtNmzZGAvuVAjZZNosOj/Cyt1tuZ2x4CyPF4iS3+F5812SEIsG99nN1vpaWELt02rRJfpQN+ejcZwWs0O6ckzUMK7axSgAumVgbPo54IVNhu1qa3wnx8vg+NTo6Pi8v7zUh6UqDFOP/gj1cs630dS9C0aTv1iVDQ00+edzYZ2poGDQCb1aGultcbcxSQ0NDtRZgFLHus9JTWpGLv87JwuwO3MPHlY1Y+aEl83d1uto8KX7J2BEjgirbysrQAhbNnavAEhzqXO+DscEFQeslGpJ6QXJFo/8x90Wd8IfRgf7rWiQk5FTFIQhk+M3pnRcw0CDl41m0aKOHDmae9rYaDc1Cr8lGw4avNiOWtbrd/6fVqw3zOnfuEOHv+7O7jeI6JrX5+0j+4OGRp0E8qcqrCfWjDRi5sQXUr/5AOWJIiJCUjGcN0qM6K0Q3MjjggJOF6R0oEQYh+KiXaGz0CSMURwLdbCxvJoSHbunRsV2nmVUQ7w98BXm5t6d3XhQmWh9RTTM0hb7OZmtj3TQXPb36AvtaAb26zvLlyxsN7N0jKzk64htqUS9Tf/AWlcF9jPBioAPznjZG+g/p2j1bE8MbLpYWe+MjQqbMmTLBV27JaiAmKIdaUcvWA8FY/F2dTyM2JFotjLLxuRiqOeH3Y0Ag0MPlUGSg34Kc9PTmH86bZyAkoVWQkum0z249lBSpqCb00TQZGjc2Intz452xwb7tlMr+OgL7WsX27Wt1enZqFxEdGjAoxMt9aUSAz9akyPCTKbFRhfFhQSdDvD32UHn8QsY4NzLQp01m8+aOxPaLwuMyahqOHTvWsFfnDjFpsdETQ308v/Z1dtjgYmXxl4O58Q43a8vtfq5Of4YHeH/WMjlhZI8uHbyEx6oEpCiKQb17TrA3NSpWTR/UTENDJYClVd3a5g5atWqFucB+lWDzwc1vdO/cOaBLh7bd+uXljRvUt+c0MsBxWRkpA/r16Ja1atVKN2L3+Q2iU5uwZMmSujk5abrtWre2nj19SljfvLyMjMS4zJGDB6RPnTQ2oFVKinmXLq111q5dW6U1JhmQxYAe3ceXZWiYeqjOwRBNhsb7rMRbgJvzseEDB4zftG5dlQeyWbly5ctYyjZFqdSdMWO8nnLAAN1+HTs2XjlnzmvEqjyyWFtBilz/YWHh6/RZrXH9rly5Yt6mZcY46oeUGt7HlnysXpk05q1qMzRNo46ioQV7uBW8NWLY5J1btjgK7MuQUTtALat5qJ/POCtDveJHAzKCcmMJlGrCemq1GZpy6BAeD0WTofm5OB0f2LvnpF+++06eFJZRuxDq62puZ2w0TqHftFicR4Nio2+G71jrt2LZB4IpVC1Onzwp7EFzJh6a8GVoKsNXzVu52Vgdz0xNnjReqZQNTUbtgt4rL5ibNmlUytAwUY1h7bT4GB7KrTpw8cIFHqcyMTKUG9e/6wpVLa2tidFxH2fHSXFBQbKhyahdMGvwirl50yalDA2DIFjcnBQVXm2GhiCoKz9ezponxnE++N4wbmiYS9NlCl2d4xa6Om+bNm4sG5qM2gVbvQYaDU10HbGr4LMVHwumULUounKFzZs9i7+TG7tkpbxoaGY6jWVDk1H7EBceYGlvajzRQrdxsRUpt2hoGIwAYfMnou9i4+PaX35m6379pUrot59/4qevIFYjon2hj/bvdAPxRTzZGhse94PrGBEhG5qM2oX+3bubBLg6j7E11r+hvtYRhoZPX2dHlhobzaMB44SUqqBWKc34hldnhRk3MBj7v7yodi+4WFsczEhKGKRUDqnSCWsZMrQOpVJZLyUmqq+Po911KDkUXFRy3rKR0sPg4LphxzE2qWLIX2uE9IgQHx/vM9MpueEV1/Bu7IT2drLf2ik3K2n+1/Ofr6NnZfw30Dk7MzkywHePq7XinrhK/d/WBMrehCs/+m1VSaVbMqFVpWtUCVwNdHNZ0rlNGzlevYzaiV7t2ztQqzbNy8H2OB8QUVN2KD9v3Ujpq5LUjQx8oDWzNTa472FvvS7E061NixYttLYXT4aMasWAnJz6A/LyQppFhX/p5+L4ELsJeMumrvjVSNjNgBbO1cqChfp4nk5PjB0W4eeHndVypF8ZtRdYa9mzS8ecpMiINS6WFqexHw7BcDAIwVscUnoYH++zaSDxP7iZeAYt45MSnoNxWxvqMnvqszmYGRcFe3nszmnRfNbUiWM8BVZlyKjdmKlUvtGlbdvIAHeX6e62VgdcFOYPsNkRLQwMryIEV4/uxzMghNoTvz+WyMgQJ/+hvanRA3cbqzMR/j5ftGuZ0Wnu3Lm2OHVVYFOGjNoPxthLCaGhbnEhQV0Sw0Nnhvl4rowK9Ps1NTZqQ1pc9EZ8aqL0+Bj+X7if93fOCrOPyHAWKXSbvI/PxxHdt8i8ScNFjhami6MD/RbHBQVODnR16toqJSXyu08/bSqwJkPGfw9kcC/+888/ZsoRQ8LGjh7Reu7MdzotmDOr83uzZnTURO/PmcP/GzVkSEpcaKCftVFTVwvdhs42uroujyO6z0X3pRdckiMj3X9ctcqN3FhdgQ0ZMp4PkMHV3b59e4MTJ/IbnzhxggifpWnv3r1N8Eku3mtKpfLlFi+8gM2R2IWMzwoRvYsTfZchQ4YMGTJkyJAhQ4YMGTJkyJAhQ4YMGTJkyJAhQ4YMGTJkyJAhQ4YMGTJkyJAhQ4YMGdWLF174f28tqpKus3G5AAAAAElFTkSuQmCC;" parent="1" vertex="1">
                    <mxGeometry x="624.9100000000001" y="310" width="60" height="60" as="geometry"/>
                </mxCell>
                <mxCell id="16" style="edgeStyle=none;html=1;exitX=1;exitY=0.25;exitDx=0;exitDy=0;entryX=0;entryY=0.25;entryDx=0;entryDy=0;fontFamily=Noto Sans JP;fontSource=https%3A%2F%2Ffonts.googleapis.com%2Fcss%3Ffamily%3DNoto%2BSans%2BJP;fontSize=14;fontColor=#000000;endArrow=open;endFill=0;strokeColor=#FFFFFF;" parent="1" source="14" target="13" edge="1">
                    <mxGeometry relative="1" as="geometry"/>
                </mxCell>
                <mxCell id="14" value="" style="shape=image;verticalLabelPosition=bottom;labelBackgroundColor=#ffffff;verticalAlign=top;aspect=fixed;imageAspect=0;image=data:image/png,iVBORw0KGgoAAAANSUhEUgAAANoAAADaCAYAAADAHVzbAAAAAXNSR0IArs4c6QAAAARnQU1BAACxjwv8YQUAAAAJcEhZcwAAFxEAABcRAcom8z8AAGmISURBVHhe7V0FeFRH1y7/V6HQFgtx3bi7uysxAoQIrsHd2RYvUrQUKVJaSksFKtRbaItDkZLiFhyChOA6/3ln76U3m00IZBOSct/nOc/u3r137pkz58ycsTMvyJAhQ4YMGTJkyJAhQ4YMGTJkyJAhQ4YMGTJkyJAhQ4YMGTJkyJAhQ4YMGTJkyJAhQ4aMZwTGWN3t27c3OHEiv/GJEyeI8CklXDvR+NixYw137dpVX6lUvkyP/Z9A/3sSondxou8yZDwfgMIfyc83HTtiRMh45cjM92bN6Ljg3Xc7zp8zs4OUFrw7i1+f886U3OED+iYmhAX5Kho1cjJuVN/JQlfXuULUsKFz/RdecG7bIsXt/OXzrg8fPmwqsCFDxn8TZGAvJYSGusWFBHVJDA+dGebjuTIq0O/X1NioDWlx0RvxqU64nhQZ9nuIl/s3zgqzjxS6Td43b9p4oaV+00UVIbp/kUmThovcrC0Wp8RGLm4eHzc5ISK4a4fsVpHTpk1rLLAmQ8Z/A+T2vdGlbdvIAHeX6e62VgdcFOYPbIz0H5IxMGtDvXLJykCXE92L+x8IhO8VJoWeDv90tVY8CPJyOxMfFvxlRmJ8m06dOhnn5+fDJZUho3aD3LX6PTt2zEmKjFjjYmlxGsZja6TPrMjILHSbMIumjRm1UvxTncTrZCj8fmsyuKchMjL+LltjA+ZkYQq6GujusjMzrdm0qRPHeAqsypBRO/Hjjz/WnzZ+fGh6fOyXvi6OD+1I0WE8MBwof3UT3isasJu1goX5ep1JT4wdFuHnZ0Ts1lFxLUNGLcOYkSPt22dlTg5wdT5ubYiWhQxMamT0nSs/WrYqIqQvNWzxN9xRauHue9hbrw31cs8NDQ19TWBbhozahXYtWyaE+XhvcVaY37No2ogpSPEfGRlX+ia8dTHTaVRlxN1PtfeC+DUyOGeF2VV/N6clbdq0shTYliGj9kCpVNaLDvTvQf2hC3AZeUsmtCy8FRMMAC2LnakRszczZvb41BI5COkhfdMmDZhJ4wbc6ERDE1s1R7rPz8Vp66DePZJOnz5dT2Bfhozagf7du5v4OTuOsTLUu4aBDFHBQWIL4+vsyFJjo1lWeirLbp6mVcrJSOefSD/Y0405mBtz45LywY2NPr0d7Q7mdWg7aNWqFeYC+zJk1A7EhQdYOpoaT1ToN7kuGhpvycjIQJ72NmxI3z7sp+/WsLW//MzW/fqLVun3337ln0h/6cL5rE2rDOZqZfGoNRX5ATmamRyP9POZ1D47w0FgX4aM2gFbvQbmCr2m4xT6TYvFIXYoNfpN+B4TFMA+W/Exqw5cvXKFzZs9i0UH+XMeTMmNBA8guI8WTZscN2n4xtv6r70mG5qM2gWzBq+YmzdtUsrQTJs0ZDZG+iwpKpx99cXngilULW7euMFWfrycNU+M43wYN3qjhKEpdHWOm+k0ftu0cWPZ0GTULui98oK5aaMGpVs0MjRMWieEh1Zbi3bh/Hk2d9YMFhMcWKJFw3fiDxPYxyOD/GTXUUbtQ0qor7mTuek4SwPd4hJ9NOofYfQv0N2FLVkwXzCFqsWJggI2euhg6hfa8v6hueC+cn7ot4+T3fG8zu0nffrhh7Khyahd2Llzp3lKbPQ4GyODYukkNZTb4I363H2cMflt9vDhQ8Ecqg4Fx4+zkYMGMHdb69KGBqN3czk+YnD/SZv/+EM2NBlPDlLiV7p0adHAx8rqDWWvXm+Qzr0o/FXloHeZ53VoN87exKhYHOUTSbd+Xd5PenvsmGoxtHJbNOIt2MOt4M3hw6bs2rDBSWBfhozyMV+prNe9XTuTAd27e6fGRqZ4OFhl2xobZPm5OWS1TIxL6NOpk1tmZrJhv379XhUeqRKQAVkM7Jk3wd60tKHpvfYqHxSZMn5cjTA0f1eno4P79h67/tdfbQX2qwTESp05c+a8lhoZ2cRFoaerW7++notCods6KUkHOxzof3lzam1A/saNjTvktE5Njo6YG+Hr9bubtcU26iPtIoXaSa7aThdL8y1+Lo6/RAcHzspMS0iMjnapLzyqdZDSKAb17lmmoWGY/1kbGicyNlcriz2ZyUk93n//fUOBfa2D2KizYsUKm7xO7VtG+vkMszU2nGjU+I3JjubmE2NCgkZ3yclprxw+3A33CY/IqImYoBxq1SE7s1dEgO+3/i6OV73tbZi9iSFXJAxGgLBNxEVhxrwc7K4Ee7mvigj06Tmsf387IQmtghRGJzs9tT8Z+BVpH62mGRrfSmOou9XdxrJVdlzcGwL7WkXXru2sU6OiWscEB04L8/X60cPe+oCVod5pU51G52yMDc94O9ofCfP2+jPMx2tukLtLbpvM5o7E9kvC4zJqAqhAUFOadMxuPSomOOCAo4XZXa5AwqZJfBdH/bjB0TWQs4XpnUAP15OtmydPWLHiAxshOa2CDL0ltaaFNsSLqNigmmJoVgYqQ1Po62wy122Y4mlgoNW1jitXrvzf9EmT7NPiY9/0dXLcaWNscJ1kf5fKBhtRBR5g6FRWhnr3bY31b7hYWuyNDwuZMmPKW97bt2+Xja2mYNmCBRYdc7NHRwf673W1VvCCE1esow8iFqhIWDFvoduYQfldrS1YgLvTkZgQ3xFWZIVCklqDTr2Xk4iPC9joKeWhphmahV6TjaY6ryeZvfBCXYF1raBfz56u2RnpM4M8XA/ZmRhx70JBshfLBWWFT95XJL6s9HWYLXkhXva2BVGBvrOiQtzthaRkPEsohw5VdM7JGhYd5H8IRoa+EApMVGheiPQb19WNjv8msjM1pD6K+d/BPu5d+3bubCAkXWk8fHjwFQ87m070rkvihLVIGHXEavrqGnXkw/uDBzLip5ShQdmtDHX/crYyy0ry9NRaixbq42wcHxr6ZqiP53m466j8NFV8JYj/r8NdfkcL05P2ZkZvmurqKoQkZTwLrBLdxaCAg84Ks4eWeirjkRYmvkOxuHJpMkLhfirQ+0GertuyUpO7HTlypIHwiqcG6fZLysH9fCL9vedRH+16TeijjRoySPNgCJGdieFRf1fHCckREVqZR0uLjTUIdHPuQ5XfX9gCBNdQWi4gXgEKJL0OQsVEFQC5lzqHya0dZWnYyERIWkZ1YuG0aVad2uSMjAkM2Ist+Sgc6V4r1NIoQCw1otqa7/Uy02nIDBu8xgtcdFlAuA+K4GJl8SAmyH9jz84du/7yyyY94VVPDNLrlye8Ncq7dXryFDLeQ2Ro90Vl4oZN3zGHRn0RNnfmDJUlVDFOnTzJJrw5mvm7OvP8QhZi/sETGcN1bwe7XQmhwSNnTB7vQsb/ipCdJ8aGDRvMenXq1MvP2WEzVX63NXkT4AEtuuEb9bks8FtaJrxiEp5R6DXdq9DVGWlp3NRKeIWM6oByyBDTTtmth8cEBx50tVJodEnQWsDIsPGxRVI865fXnbVKSWLOlubMhApWunodxA2B0vB2sGXx4aGb22S2yPH09Kxwy3b27Nn6A3v1smyVkhJA78lKjAiZFezlftDdzoobsdTQ8G5cS4wIY59/skIwharF5UuX2IdLFrPkqEguL+NGrz/KO3hCH9JFYU6G6Ph3WlzUtLwObXOTIiO9MxITjcjoKjzfuGjRoqYDenbPS4+N2UoV1z31ssF3lA0+Xags/FwcmZuNJecJ5SLeV4r0mh600NUZrjBoZCq8SkZVQjW62Gp0dGDAATIahF17pMQi4bdRw9f5UH5GQhz79KNl7PChQ+yXH35gXdvkwk1iBq/XK6UAICick8L8hq+zw7cBXu7JpKOPndP59NOFjYcPHhCfnZH6TqiXx28uCotD9qbGhdSpv29jrF+q9TSkd6MV7pfXjW3esF5lCVWMu3fvsh3btrE+3brwfCL/Ik8g8IglYTbGBvfIDb/g5WB31MvB9psof+8h/fPyIqmV0hWyWyYWzVzUtHfXTh2pAlznbGF2h49mSmQMQv7RgnmRC9shK5ONGTmM5XVsT31Ha966qZclSBgxfkAt2wFyI0fLbmQVY+Sg3tYdc7NHRAf574eiohDV3UXUlsZkZOjkt0hKYB9/sJSvXAfu3L7Dfvj2G9alTQ5zNDfl6w1xv7ohgMhIi6hF+rR/77xIerTUEPOpQ4dMBvfvHR0bHNg1zNdzSpiP15pAd5dT4MvWyIB4Uw3AqCsO3tfoxTp8x/Ny4q3wgoq36kDx1avsvVkzuVIbkQutzhvkiWswEAdVKIT7zgrzfB8nx6/iQoNnZFL/tV1Oq4DVq1e/LojhERAbMjU+JglzZNSS3TRv2qh03ps05CEVHC1MWfcO7diPa75l/+z5m296HdK3N/O0s2H61HeFIUrLhE/JcILhNt1PxjZSoaNjLbxahjZh0KiRaVxYEBlZAB9dLMtdFFsyuIsfLl5MinxBUDMViq8WUQGvYW1btmAW9DwKVWqsIBgJ0vZ2tCtMi4/5OLd5alJWerpZ5+xsg4Rwf7PWGan+3drmDkhPiP0s0MPlELk+9+Giqp4tyZOU0CfB+3Bvv+5d2b69/whcVR82/vkn60EtCJRd77W6fBlYeTzz/4iodWMxIQFHIgN834/082vTpnWGT0pMjEnfvp0NOuXkWMRFhDQjN3kJucRFQgtUgmB0MG70ldtTS7bmq9Xs9p3bnCdUgFs3bmRD+/Zh7jZWVIavcVmp8yWmS9cPW+rrjJDdSC3DXF/fjDrDo+3Njfc5WZg+tDH6t88jEloPFKQ1uT/NE2LZ8qWljUwE+itL31/ImkWFM0uqOWGcJQtVcCPJYN2sLS8He7j+Sfe+mxwXNTrM22O2h63VL2Tsh50tzYoczEy4K8rdJOJJXTlAuAZ+MRCDe3t26sg2/Pk7u31bpWjViWvFxeyXH38gGcUxvfqq1gO8qfPNfxOJn6gcXCzN6NO40MHcdK+vk8OP0QF+U3JbNB/VKjlxoZ+r8wYrQ91CTRUg0odBw1AQv+TLzz5lRUVXBI5UuHXrFtuyYQMZW28yNkvirW6pChAET4U+H1LLtg9uJHRDUBMZlQFcBAvUXnAZqADVR7DgYqATrf/6q8zB3IS1a92SrfhwGTtz+rRQhJpx7MgRtuDd2Sw+LJi7NDA2FKzUZRELGnE2qNN+keigu61lIW+9iAf8LyqpunKB8B8UGUrTtN4rvF/Wq3NH9vtvv/E+07PC9WvF7PMVH7Oc5ul8cAjuGlo3Ta2INC9wB1GZ8H4stYie9janQrzcD4R4ul+FjB4ZptpzkIFp44YsKTKMLVk4/5Errw60bOizDunTi1FlRmVaj5eLtExA3I0kg4NOcN2Q3chKoY6RUWNjDOtS4R0SBSwtSHxHTYk+GdzJru3asDVfry5VW5aFY0ePsJlTJ7PYEGHXMaUFxRDTFwkFjVFCfHIS/1NTKhCeRzpQWrH/R30WFuLlQf2QXmzT+j9Joaq/JVPHvbt3eN8IgyNkLLySAv8YEYVhYPhfXRZS2YuygFxE2UjvBeF+k8aq/ha5/GzuzOns3LmzAgeacZu3bGRs1LJhNBJeiib3VuJGHoKOWBkZGdPj8mLkJ4Wpnp4FXAMS5D4uWA0FCUXWrf8K1X7W3L9H1KeKGhnw4OEDVnDsGJv9zhQeKAdpQsnUCxW/RbeQ/6f2v/Q+8ITRM+4mUsuXFBnOlEMHs9Wff8YO7NvLXaSagps3b7A9u3ex5R8sYf175rGoIH+eD7TA6CdpcgNFEmUBYwSp34drmBQ3JYNFQKAFc+ewUydPCG8uH7du3eQt29B+fXjZoowhV2n6IFEnyND22RgbKjOaNbMQ1EdGRWD8xhtWlgY6wy31mh541HpICAKGS4FRQ3LluKuBzvTTumOHDu5n0ydP4q0OVmzASDQVrDpBuaBMqHWbvPIif9bJwoxFB/qxNi2as9FDBlNfcSnL372bPSSjrqlAv23Lpo1s8YL5bPjA/jweZLifN++joh8Hw4PXoKnPpIkgOz6i26QRiyPXHJPyFTUyEXfu3KYyRZ+tDy9jpKfJjQShErQzNT6YFh87XKlUypPaj8PatWtf9HW1NadONVoyuIsP1Q2NKzcVOFoNdJrhYmyhAoHL8bSAERzYt4+NGjyI+bu5cFcILhRcFigN3leC6JpqqJpcGipkKCQGOfzdnFnn3Gw2f84stuH338lNOsdbsAcPaq6Ribh//z61cDf5dMPm9evZzCmTWVbzVL6SxMnclMtEdIuRd8hAXSb4z5RcRcjOxsiAKhz/CrmLZQFlupUqAJQxyhpljndpaj0dzIwfUot8qH1261FYmkePy25kWRg1bGBgVJDvHGdLs4NYtwghSg0NtRkKEwty3amzjBEq9HngalQWULT8v//mtW/L5CRuOE1ffUXVwgm1qUiY7EUtb9igPgYEWJuWGWzyuDHs808/4S0Dau87d+4IKdc+3Lt3jx0/epSt/+N39sUnn7Bxo0ayjKR4PnCCvGNgh7cw1JKrZPIal1GTui/xlh2DRZDJB+8vZCeOHxdSfTrA2FDGfDSSyhxlDx2QtmwwPOzEcLNRwE3dS5XdqHkzZ8rnCKiD5FlXOWJEUEazhEWB7i7FzgozjSNYcF/g1kHgg/ugJduo9YGFc2fP8GVRIwYO4GG648NC+GABIlaBAohCvD14TEasbJigHMW+Xb2anTl9Skjhv4cjhw6ylcs/4q5wLrnECJMX5uvFgjzduDyCPFxZpL8v749mpaewEYMGkExWscuXLgopVA4oY5Q1yhxlDwOHLkh1A60aRqQxshsbFHAQS/RGjBgg99lEkBz/N2f6FN+0hNilfm5OxY7mJqX8cNFdRG2Kkaih/fqq3MUqGr27fv06n4PbtWMH+5QUbPrbE9n4N0fzRbnjyLBmTZ3Cvv7yC7Y3P59duniRByf9LwOu9fVr19h5coV37fiLrf5sJXt3+jvs7bFvcXlMGvMmm0fu8nfffE1ewW52/vw5rcsEZY0yR9ljUhu6IHUj8an6zk/HeYAdHVQRKmU3UkBGsxirVqlJUwM9XM/DyNCSoXYSjQxGh6FyuGoQMPz1zRsq1yd7EsCQjhw6xFdx7Cfa988/fFoAy5meV1wtKuKjtQf37+PyQP/25IkCdqOKKxyUOcpeXEECnYBuSCtmGB8+0bJFBwXsww6P6ZPGPL+bR0ludc6e3VU/PSE2N8DNeR+MTNPKCgy3w1XAyNPgPr2qxF2UUXuAsscACXQBOsHdSLUpGXyHG4m51ejggAOdcrJ6KPv0aahUKv9PUL/nBySzl6ij7ZEeH/Oug5nRTQx6qBsZaiesWkDthVoMo2HPYtmSjJoF6AB0QWzZoCNiSyYSvCKcsIq4MFGBfp91bpMdM23atCoNL1gjgdh+Iwf3y4wN9v+Nmv6HqIFEIYnuIgY+vHC0EdVemMCsLndRRs2Hyo1ULdfyFLbYlOVGksd0KjUuenyMn19jQf2eH3SMiWmcGBU2wMfZId+aDA0r5kUBoTaCkDDCxCejyVWQWzIZ6oBOQDcG9urBN5HyeU2JV6Rq1fR4ZR3m4/l113atn781kf4uLrr+bi7jXCwVJ3ktJAgIwkHNhDmbDlmt2I/ffSv3yWSUCSwIwG4ErHNFn0zaX8MnuiRYUODr5LBp5ttvh9Mj1RYSvkagWUSEXmxw0FQfR4fzqHUwECIaGoSFGqpb+7Zs25bNKonKkFEGrl27xr7/9huWEB7CmtZ7uUR/DcaGVSs+Tg47Plm2rMWThGX4T2BAt2662c3TJoT5ep/CFnqxj8YF0xSr3puyyAA/vpzpQjXuQpZR+4AoYrt37GDN42NZ41f+V2Kdqmho/i5OO1d+sjyTbn9NUMHnAxOHDm3UpkWLfqHeXn9Ti/YQLVkJ4ZDhiavf35s1g50+9d9deSGjcig4dpTNnTGdr+DBvsQSI5CkS6jEqUX766PFi9Ppdq0GiK3xUCqVdbu2bRsW7Om20s7YsMRokcrYVCHR0F/DKZXz58zm6++eBzygGvravQfs/K177MzNu+zczXvlEu7BvXjm3oOqjxFZU4DdGliJMm3ieBZLOoINqWjNUFGLeoQ+Gna/e9har5v81lv+9Nhzd1pNne0//9wgNiRgsKetdZGDqTHvn2EJjdTYsBIcRoiV4NPfnsQOHzzIHty/r5J0LQdM4i4Zxq37D9mN+w/Y5bv32Ykbd9m+q7fYnxeusVUnrrKVx6+wzwuKyiXcg3vXX7jO9ly5xQ4V32YXbt9jNynN25T+PTLc/5r5YeHz9q1b2LAB/ViAmwvXlxItGdcfHW5k1N+/6+vitBQxTgTde/7QtV276MTI8F/crBU3sf1COswPEkchLZo24ZGjsLB1119/CeKuvYARHLt+h20g41h1oogtPXKJzTlwkU3de4GNzz/HRu46w/pvP836bDvF+tJneYR7cO/IXWfZ2D3n2KT882zW/kK27Ohl9t3pYrbl4g3+Lrzzv4L1f6xj/Xt0J5fQni8wxgAadEV9Hg0DbaHeHgfbtGg+sEuLFpWOQF1rsWDBAuMenTt2ign2/4OMDaeMPBqBFEns0GJtm5uVgo0cNJDt/Gs71WrPLu7GkwIe3SVqZY5cu8P+unST/XCmmC0m4xr79znWY+splrW+gKX9foylrjtKdIyl0/fmT0h4Bs+Kz+duKGD9/zrNJpLh4V14J94NHsBLbfQy+YbQzZt4TExsskW8GHQxpO6iqDMYZKPWrDg5JnLe9MmT/deuXft89c+kINn9b+7cubpD+/TpnRoTvdXezPiOygUoLTi0bKaNGjB3a0s2rH8/tnvXTvbgQc12IxFWH32nQ9dus29PXWXTqMWC8nfdfJK133iCG0Pmn8dZxh8ljQa/WzwhqaeBa60pbbwD78I78W7wAF7AE3gDj7UB2EC7eeN6HucES68ebb7VYGQgJ4X5rVAvj19aJsU1g5FREvIq/u9XfW/eMSenvZeD7WrqwF6BG6DesoHQZ9N/rR4Ptjmsf1+2Y/tWVSnUQJy7dY/6TTfYR+TCwSUctOM0a0NKn0ItTtJvR1ny2qO85YFBtPrjODc4bVJLShPGh3fgXXgn3g0ewAt4Am/gEbzWZNy4fp3HguyUm8WDHWHDKbwcdSOD3ljoNsbG3UIfR7uVSRGhqbmpqU0ENZMBtMjLey3Cz6uZj6PDp84K84uY0YfwpMLEdwgTa9sQd3/EwP7cjXyW4dukuH3/ITt78x7bffkmH6hQ7j7HWxQoO5Qeyt+KjEAkTQYiEv7H/RWhiqQlEu4XDRC8gUfwCp7BO/JQk4C9bWt/+omHx+O7OcjIoAOiToh6gYoZAVo97G0u+Ls4fhTm4RHLXnhBbsU0oUVo6GtDB/aNaZkUv9Tbwa4IIQVEQUoFCzcS5EZu5MhBA9ihAweEYnl2uEOdnl2krIsPX2LDd53hrloOKTLcOPS/REMr1xAkxvO0hDTE9DS9C/eAF/AE3sAjeAXP4H0n9eOQl5qCHdu38aCzPIz76/V4uUt1AcQ9IL0mLNDdtbBtZuby3h06RCYlae+st/8ksEzmnYkTo1omJX4Y6OZc6IRd1yRMTcbW5JWXWIS/D/tw8aKnDgKjDWBU7/vTxWzKP+dZZ1JaKDHcNShyWQoPwn9wHdG6YCCkGT2TQC4ePlvSf3DzOm46wamDGonXcQ/ulT6LtB65pcK7NBH+A4/gFTyD98mUB+QFeXqWwIqPi4WFbNF7c7FWkW+HURmUmodDfXoMfPg42Z9u1Sxp0ZypU3FewvM78PEkgLHNnfVOREp0xCJXS8VZWyP9B+qT2hA6XAknhRnr2jaXbdpQPSezSFF87wHLL7rJllBL0GvrKa68LajFAIkti7pyo0WBcsMQ8IlrbclYOm8+wfK2nuTD9UN2nOFD9TP2FbL3DlzkNFeNxOu4B/fiGTyLNJAW0kTa0nfh3VJeQOARvIp84xrygjwhb8jjswAWk2/843ce3RmeDVozafnzyWhDPWZtoHeXPJujGUkJc8cqR4TQo7K7+CQggdVLi4lxdbNSjHZRmB9yJP8bxiat0URjQ0zGVZ+t5AVUXSi8dY8PmY/bc5aP6kGJy2tFuEITiS0YKGv9cW4caEU+PHqZpwfX7cDV2+zotTt8AvvUYwj34F48g2eRBtJCmkgb7xDfJ/JWFn8ib8gL8oS8Ib0Lz2Cw5OrVIt6aIcoxyhxRj8Vyx29EvsIQP9YxpsdGDhvSr5/riRMbn7/NndqCh5WVZUxw4HgPe+v96PCqd4QRgsyB/Pd5s2dVedwKAMucoNiYaB668wzv7ySR6yW2BpoUWHTPMMcFt284PTd93wX2gTCpvJ0MpOD6XXbtbuVbD6SBtJAm0sY78C68E+8GD49za5EX5Al5Qx6/pLwiz9W5xAsx+hGMx9pIjy+tkpY7DM3e1PCmn7NjfsukhJELZk2RI15VFiTzOu+9955DuJ/Pu+RC8APupIaGAxpsjA14pKqqDvuGETksc1pEblVvai1ENxCf6kqLa1BUtBJoVdBC9Nl2ms3cX8h+O3uNHSdjuIH1idQXqQr9RZpIG+/Au/BOvLvf9tOcl9bEE3jTNEiDvEjzBlcSeUbeq2tUEgeVICAtYkWqD4DA0HCYfHJMxISRg/s6Cqoio7IguddJT4zvGebtecXVyrxEp1j/dTI06gyPGjKYxyBEJ7oqgNp804UbfMCj25aTpKAql6wlKSomhtUVFQqMeSv8HkatAp+zOn+dr8y4erf6J9rxTrx768Ub7ONjV3hLBd7AI3hVryiQJ+QNeURekWfkHTKojpYNOzYQO7Phi3VKjzRS2TtZmu3p3rEdVuQ/f0F3qhJZzZt3iwrwu4KVIVg98q+hvcp30SJu/P69e6skBDdaBSgoljOhJRCVT6qYImH0DtRmwwk2aMcZNudAIfuZWpPT1JeqKThLfa6fzxZz3sAjeBX51pQnsVJB3iEDyAIyqUqgReuY3Zo1eun/NBqai5XFrreGD06kW+XBD22hqKioUXpc3BgPW+s79iZGj4wMxF1H3qIN4jEYtW1oqL23FN5g4/aoJp8zflf1YdRbANXInWp0D8Puk/IvsF/JwM7dustX0VePw1VxgCfwBh7BK3gG73zARK0SQV6RZ+QdMoAsIJOqbNnKdR3Jo3G1URzp061z7wsXLhgIaiKjMkCYsGF9+wZH+vmsoL7YQ6nAQdi+jn7blAnj2JUrl7XqOqI/sqnwOimiyshQ46v3Z0RFRI2PgYY+20+Ra3aZ/X35Fit6Bi7ikwI8glfwDN7TKA/Ii3pFAkLeIQPIYiLJZNOF61XWZzt75gzr1aUTj+2vvqYRhuakML+cFh+zdNjAvoGCqsioDHJzc5u0Sk4a5O/qvBchDtRHn+A6ImLWB+8voOLRXqFjr1h+0S3eL8kiJYP7VGrQgNfyKpcrd8NxNnznWfbVySJ29ubTuYlYSnbp0iV2/NgxHnJ8986dfN/V+t/X8fPf/lj7Gyd8xzX8h3twL57Bs0+7HA08g/cRu87yvCBPyJt66wYZiG4zZAMZQVbaBqJEI9y4t4MdL2esbZQamr2p8b0Ad5d/4iOCO9HtsvtYWTSLibGKDvJf7u1oe0dqaBA2hn2tDfVZ88Q49tP3a1QlpCVg4AAjbd02n2TpVMurD9+L7hQUD8uYxpM7tZncKb4iXkijIkALfP/+fb4KYtuWLfyQDbTO2G/VpW0uy0xNZtQ3ZcEebizUx5MTvuMa/sM9uBfP4FmkgbSQ5pO07rgTvMMlRF6QJ+RNk5uMa2j5MEACGUFW2gbWOOKMg+zmabxrgKjE0grWjvrlrlaKu2HentMXLpyhJ6iLjKcBVohkpabGeznYbHOywAEYKiFD2BgQweJiP1dnNl45iseC1xYQGgDzZL22nSKlKt1vgeKp+jPHWd6WU2zO/kI+QIDd0k8CHGuEVemIeTF66GAeNg1HJOG0FhzogUWyyKdO3ZdYg/+9wAcGQPiOa/gP9+BePINnkQbSQppI+0mPToIriLwgT8gb8oi8So2Nt+SCXCAjyAoy02a7hooC4SvGjhrJV4bovPrSI0MDWRPhepi3x0+jhg+OX/3++6+rtEbGE2P21Kk2zWNjxzlamJ5GCyYVNFozrH9LT4hlP//wPQ87pg1gwvfHM8V8SB5rCNFfERVMNDIon6hkS49cZvuLbrP7FWw9sOXj+LGj7E9yAWdMfptlpjRT7a+i/GAjI7YC4TuMCIQWnE9nCJ/q38X78AyeVW2GbMTTRNp4B96Fd+LdFQHygjwhb8gjhvk1tWyQDWQEWUFmxVruk96/d4998uEyfiAiugjSHfiiPgR7eRxv3zpzytgRI57fUAWVReuUlNSIAJ+1DmbGt6FMj4RMrRqUCZ99u3dhJwoKtDIIAqcv/8otPqqGGlucsJUql6omp5Zs60keguAYuU0V7aNcvnyZ/fbTj0w5dAhLiY1iXg62/OA+dPb5gYfkHnFDod+ikalXMFISDY4bGj2DZ5EG0kKaSBvvwLvwTrwbPFQEyBPyhjz2oLwiz8i7VBaQDWSE65AZJrSfzHF+PLCGtX3rVjjVk5c58ivmHeXv42R/NzY08LfmcXHugtrIeBKQjF+MCvQd6uNsfwlCFgUMglLhM9Tbk707fVqFa+rH4eSNu3yrSLuNJzQuq4LLhEGCnPUF3LU6WFyxKMo4JxpHDr07fTqfhPV2tOc1NIauxXgXYt60RUgTaeMdeBfeiXeDB/ACnioC5PHdA4U8z8i7+uAIZARZQWbor0GG2sSZU6fYezNn8j4pKhFUIMif2IVwsjBlnvbWR5Miw7N+/vnn5zcuyNOA5Ftn3szJlmE+noudFeY8lJgoWBBcRnSQ8zq2Z3+sW1vpsOGog9E3+f70Vb7cCMqD2lrqKoluJBRu/J7zfODjce4iWlkMTHz/zdesd9cuzM/Z8ZGr96jFkuQLhN9ibc1DpeN3GVTi/zLSwjuk7wQP4AU8gbfHeQLIIwL8IM/Iu+guinKBjMRBE8gOMoQstdWu3b1zhx/X1bZVC2qpsR/t38XFnCiP9mZGlxPCw2aPGz7cTVAhGRXBqiVLGg7q2yuXDG0jDIorlER5mtR9kddkOHMaB+NV1m28SYqx6zKG8i9w5dHcLzvGUuk6FueKo4uPA/pFSxbMYznN05iLpQV37eDWiW5vCYWR5I//J/4vfi+LhHsePSdJSyRcxzvxbvAAXsATeAOPj8N1yivyjLxDBnxwSCIfkCgzyBCyhEy1hcLCC/zIXgyGYfJamk9UHrYmhncjfH025qSlZQoqJKMieHvcOI/m8fHLfJwcCiFU0bUSv5vqNORnKWMQRBvAiBlcRmx8xByRel9EnFPChO43p4oqNLq4e9cONmXCWJYUGcZ5x34qKLuoIDw/+v+2RtjAiP1VHrZWzMfZ4Zanvc0xTzvr7b7ODuuCPd2+D/f1Wk0VzxcgfMc1/Id7cC+ewbNIA2mJLRzeIX0neAAv+A7ewCN4fRyQZ+QdMhDnDqUygsywcgQyhCwhU23h7r27bNmi93kwXWyVwqCPmB/kEZWxm7XlpbiQoNkrli79bx8UT/Ko0yUpqV5kpHeT2OBgA3dbW0OTJk0eka2JiWGAu7thZnKyYY8OHQx79Ohh2Dk72yAuLqipg4NxY2dT00bednZNxowZ6dgqpdkQXyfH/eibicLEJ2ov9DtIwdiowYPYvn/yVSVRCWAcY/eVm3yiFsqj7jLie9q6o6wj9UGWH7vMzt4qvw+CCeO9+XvYyMEDedxBS72mvF+hyU0UNy+Sojy0MtS94WBucjHcz+tA88S4b9MS4t7OSk3uNqBXXsbHixdHbNu0yXfv7t0eIHzHNfyHe3AvnsGzSANpIU2kLZWf+J1XVujrEG/gEbyC58dNdiPvkAFkkfb70VJyguwgQ8gSMtXWPDaW1e3cvp1HP3O1suBdB/U84dPfzXln13Y5A5XDBjiFhnrqQKccjI0bQ8c6d842GEQ616FDpmFyVJShVD/xPSLCVy8xKKhR29DQmrs7m2RRZynVJFRDtgrxdp0S4u3xubut1SoLPZ1VVLtyon7WqgA351VpsdGr2mW2WNUxO2tV69Rmn0QH+s11UpiOtzE2VHra2UwO9vJc6efstNfBxPg2FFEUJghuA4ScHB3JPv/kE3algiNo5QEBaRCcpuuWkyyZDKqE8qB1I8VBuAAEJsVSpcfpDoIFYd0lhqQRSAYBPlFBSPOhUgzVpCtOzvFzcTocFej3CXXoR2anJWd0zskJ6NOtg+1kpVL/8uXLDShZhEt7FM4a33EN/+Ee3Itn8CzSQFpIE2nbGhnw90kVE8QrLeINPIJX8AzeywPyDhlAFm03Yt1n6flFyBCyhEwhW20B0zcY6sdkvW69Vx55OaI88dvO1PCmr5P9P5EBPp8GerhOo7y/aWtiNCbS329uTvP0zzrnZq/Kap66KjYkcJWbtYLrpblOI/6dvISlYX5eo6MCfBOUAwfqC6KuUajXIikuqFl05DgqsJ/IwC75OtvzmgdrEGEsIDsTA+btYMsoI2QoEYwMjsWGBMBNum1nYnjWylCvwMnC7CL6D45miBNScjc1vsPQ4Pr07NyRH1Re2fDg6NptuHCDR4JCR7+5Wt8D7lAKKc6gv87wxbdFd8p/38mCAu6K+TjaM6MGr2vsi/GWjQg7DqhiORnq7fUjVRwjB/fvHb1z404jQaZPDaSBtJAm0vZ1dDiJ/qzq3aUNHjyCV/AM3k8UHBNyoxmQAWQxeMcZLhupmw3ZQYaQJWQK2Vay+1wC2zZvYtnpqY9aZPUKjLvfpHNYkkd0xdpA74SNof4p6oLcSggLYenxMSwxPISFeLrxCg6T3ujf4rs3tewedtYFpKNfhPn5DG8WF+enVCprRoAfPz+/Vy31moQRo4vJR77oaG5yB2cH2xrrc5cInVfR0OBbw5e2NzHkcyIgzPPgmhgPBM+oniu5uROETjwUNNzPhy14dw67roUJakxOf0SuEFqsUqsfiEQlwnaSczfvltuaYQQPgwvo90CB0VKoVxQg5I2M7I6LtSI/PiT4nUG9e0dOnTpVZ+XKlS8LYq00kBbSRNotmyW+E+Thkm9vZnJHyoeUL5FX8L54/ns8L2UBMoAsMOQP2UBG6nKDLCFTyFYbu8ZFnCg4zmZMeZtFkA7A0PiqfrW84FPUI/E61zvSNdJP0jsj7klwPaP/QPgu6qGDqdFt0uVCPzfXRbGhgWH9+vV7tuERKN9127VqFeCoMFlENcc5nApjY6QK6c1rbYkARMJ11EJilFnUpriG/5DhskbPcI9uvZeZs8KMhwTP371bJflKABOyOBBi6t7zfMQMa/fUlQU7o7Hq4dezxeVuCYEL+/033/B1eeAXnXX12ha/0aJ42FsXxwT5fxfu79MhKyPDmR7XmoGpA2n369HDOTUupkNsaNB3VGMXgwdNvIkDDORa8byU55ZDFpAJZAMZqVdS4g4AyBbzcNpadHzr1k22a8dfbEDP7uQhGfEKQlMgVXEgSPwN/YGuiTqH/Er/x3eus0QwOBy6QnTO08FmUfd27QLo1c+u3zZm5Ej79PjYKa5W5udEAxEZ1xbBFcCQtP7r9fhwfl6HduxPzJvdqfwi1svkAq05fZVH7VWNmJU0tGZrj7H2mwr49hFs2ixvZgjzPH26duHD5hjRA99iHngh0m8UoKe9TXGz6IivBvbo0Zweq7bCw7vwTnLvvwIP4AU8lVBG+g3ecawx8oI8lQXIAjKBbCAjyEpqaJAlZArZfnPqKpe1toCy/2bVl7xSc6AWCjxr6gdXhiAXGJ2Lldk56Dh0XRBl9SMlJjIr1MczH62Meg0CUrVeVHugBhFqESmhYDVdU7+OmhaLR3t06sA2/PE7u3nzpiDyygErzhGHHi6OOEEtNTTsLcNpLdsulj8xffnSJTZ3+nTm6+zIR0RRY6q7M8iTp4PtVeqQfztqyJDmy5Ytqy+IsdqAd75F7wYP4AU8lSgz+g7eVaO6jjxPyFtZgEwgG8gIspIamjiBDdki9Li2V/dfOH+Orfx4OcvJSEfsEK4nOOxC1BlNuiVSCR0T9FL0qkqUGV2DbkPHoeuCGKsXlNeGUUF+Y12szO/C3+U1gFBo8HPBJGoacbU5p5f/jzWp+xJr+urLfLNm03qvCJ9SeoWPKOH+hi/V4b4zBk6wTg/7r3CaiLaw/fJNftwRYmaUUJI/sfKBWrONJ/jxRwjnVhZu3LjO1v78E+vQOpMKTdX6SgtMHHzwtLMpQkumHDY4nRUVNRLEWO3Au8EDeAFPUh5FQh6QF+QJeUMeywJkAxnxcHuC3EQ5QqaQLYIBQdbaxvlzZ/nZ1aOHDmKJEWGkd035cjOuX490rDRBv6BnuBd61vjl/zEDyjN0VhwbEPWZjwqTjkPXixir9nKrs2zZQit/N+f3eOEIBiYSaggYSJCHK0uNi2ZpcTGcUmKiWHxYMF+zFunvyyMM41NKuBbu580/m0VF8NHF5UsXs6OHD6uGCLUEnBX2w5mrrMvmk3ydntTQMGqG/gVWQSByVFE5nXkc66ocNoSP2CHfvDUT5ICCQuE7mhnfRv+ob17XjE8//fSZxx0ED+AFPIE36dYjkNiHQZ6QN+SxLEA2kBFkBZlBdlJDg2wRzBWyrorz2e4/uM8O7NvLliyYz3p07MANjuuQr3cp3RIJAym4BwseVHoZyQLcnLnO4hw+UQ6cBLlA15cvXmxN4qvWDab/F+rv5WRnarSIK5OEMfxGB9XT1pq9PW4M2/P3LvbPnj2ccIDgzz98xz5b8TH75MMP2Yply/inlHDtoyWL2VdffsH+2rqVHTl8iLsv2liZLwL98uPXb7PFRy7ymjhZrX/BB0aI3tl3gYdpK68fj/4iVsZjbg8KKiosPkHoVwa4O+enxEV0nD9pUo1Z8ApewBN4A48ivyLvcKmQJ+QNeSwLKlne5bKCzEBSQ4Ns220s4LKGzLU0JlICOLoLo6SIF/PH2rXs0+UfsY+WLimlWyIt/2Ap17N1v/zM9XLHtq1szMjhfEWOccM3HskBBN3Gb+h6pJ+fM4muWiNu/U+3fn0XamoXEzMPMW/xqIDg9xJhzgJGpQ4YTHHxVVZ05Qof1cKnlHANW9hvV3KRcHnAEkWctDn277MsF3NnpByioeETtXLWnwU88CiOvC0L4lAztqHADVH38zFP5u1oX5jRLPGdvt3bKwTZ1RiAJ/AGHsWTe0RCXpAn5A15LG/zKGQEWUFm0nlIfKLSyll/nI3dc5ZtLLzOZV/VwNrXSxcvldItkVBxq4+orvn6KxYfGsLQokF/RWMTdPshdN2oXj1XElu1noH9PwtdXWdiYBGYEA0NhYNaHfMVGBFCbIuaiDv3H7LVJ4v4HisoBBbIirUwOvD4RKBTRPktbxDkOyqczJRknl8MIIiFg0+4Ia6W5nfDvL1+HNS/fyRVMK8IsqsxAE/gLczX60dXKwvVaauSPCBPyBvy+O1Xq4VclwZkBFlBZlIZqr6rDC9vy0m+Cxuyr4lADBboLPILHRYrTdHQiBbZ6Oq6kNhqjqFhIjq3RfMaa2i3xBqYWjO+hEhQCrEGxuEQk/+5wI+hLU8t5s2a+ejkSbFgQMJczH1/V8cDydHhIzFxLMitxgG8pUZHjvR3czpAPD8A72I+eHlS3pBH7JIoC5ARZAWZYVkWZCjKFASPAQa38NDFGnuONnQVOgvdrTWGJrZo6379RchGzcKF2/f4SBnvvBOJCgHlwDB1500n+CERZY02opG7SO6tcuhgUsRGzLCB2kgjuR6W+rq3IwN9PxvSt2cEyasmR2iqk9elfVCQl/ty6vjfUvH+b16QN+Rx5OBBPM9lNfCQFWTWZbMqtr/U0CBnHCWFqZTzJPuaCOhqrWvRarKhQU+wUgHRdqEQ6oYGhYCbU178C0yYItJUt3ZtuHuFuIPIv0iQh725yaXE6MhRmzdvNhZkVmOxcOGnjQM93AZQuRXihBZpXpA35BGRtpDnshYKQFaQGdxxyFC9RcMwP2QO2ZfnJTwryIamZaA/gbgWY/8+V8rQMMma8NsRftTRzss3y+yfXbl8iYd1Q8Qpvt6OFBH5R78GhNGrcD+fA5lpyRl0+0uCzGo0kmIiUsP8PPd72lk/ygfyhLwhjwjnhzwj75oAWUFmfbef4jKUTv7DPceSLDGmSHn93mcF2dC0DOyKxkETI3ed5bEapcuuoByojXGg3+HislcyFBw/ymMoIrwb8ivGL0H+0cfxdXG82Twpdk3nnExfQV41Ht3aZvuBZ18Xh5swMlHRkDfkMczHi+cZeS8LkBkOzoAM1Q0NsobMIfuK7EyvbsiGpmWI8RqxWkHspEMZ4OrwZUP0idMzEf2pLGCDZL+87jyWojidgfzzVoAIgWJSY6Mn9W7XDhOctQK9u7azTo2PngTekQexRRPzh7PCkWfkvSxAZuPyz3EZQpai+wgZQ9aQuRj/saZBNjQtAxsRPz1+hQ9FSw0NigFqs7GAH1V74nrZy65279zBurTJ5fmEEoqFAsIEp5PCfFNccGBbZf/+NXa0UR3gFTyDd+kCBOQNebQzNeZ5Rt7LAmSG89cgQ1GeUkODzCF7bW4G1RZkQ9MyzlFtip2/WAirydBwogrOhcaRtWUB8e4RiltcmCrW/iAoqbuN5c8dMzPivv7665qxabACwILj9lmt4sG7+kofsVVDnpH3sgCZQXY4VVSToUHmkD3KoKZBNjQt43GGBiV5nKFhcXNkoB8PyS0WCEh0HYM8XL97f9688Jo4SV0WwOuShQvDwLvUdRTLFXlFnpH3sgCZzSPZobKSDU07+E8b2tzHGBpWEQR5uvH495oMLdzf5+utW7dis2C1FkplAF7Xr13rRob2uZgfkZBH5BV5Rt7LwhlyCRceUkUSgyxF2eITAyK9yXX8hFxH3FfTIBualqENQ8MqApzogi0WmgwtxNvjsyP796NQahX27tpl4+fqtELMj0jII/KKPJe32gd9L8Tqxwkzmgwtb6vqnILy+r/PCrKhaRlVaWgiQVmhtIKsag1QOaCS0OQ6VsbQ8B27rXEdLV55I7rPCrKhaRlV6TqKBPcLbhjdWqtcR7i7cHs1GVplXEfR0HpQi7bs6GWtx+bXBmRD0zIqYmjaGAzBwEJtGwzBAI48GKLZ0BS6Td43rl/fiUQlG1pF8DhD09bwPobKn0VckKcFpiIwJVHVw/tf1FJDo/wvFAytejd+1lZDkyesNUOesNZsaIIsHnrYWn3SOikpaObMmdXqpdRaQ6u2JVjx0ZOwrEmQV40Hloth2Zi8BKukoWHtKgL2xAYH/DTxrdEtDh48+IYgsmpBrTW06llU7MAXFWOhriCvGg8sgFYtKnaUFxVLDA3dA+w8T4mJXD935vQORUUF1RoJ6/9ee+EFeyqEBbXN0MRtMtiyga0bqGmlhqaNbTLYaoItJ9h6IsirRoOy9BK29GBrD7b4iPlAnrS1TQZbkrA1qbZtkxENLS0ueuO82TM7nTiR31gQW9UjNDT0RUdzc1cbI/0ltc3QUMTixk9sRpQaGlwd1MaV3fiJzZMkg0Jsply4cGH1FcxTAptTsUkVm1XFshRJWxs/YWi1ceOnaGipsVEb3ps1o2O1Glp+/trXRg0Z0IzciTU84KRQ+9UGQwOwnR7b6qEQ2GYvNTQohFZCGejp3EJ4gLwuuUEkshodygDhFhB2AeEXOO+SvGgjlAEMDXJG+AiEkaiJqJGGdurU3iaL5s3tkh4fuxlMiIUjGpoYnKe8OZdnCQSIQaAYsZMuNTQohNaC87g5HUDgm5oenAcBhBBIqCqC8+CzBf1GICQEREJgpJqI9b//znJbZpQKziMaGlzHBXNmda52Q8NL0+NjNmkyNLFFK28VwbMEQp5h9AsuIpRBHHlUfVd9Yii60uHmrCzuIpRbjQ835+31I0LjgWdpHpAn5E0b4ebgUiLEX20LN/dMW7Tt27c3mDB6dKuYoIBf4TqKtSAKhw916zVlcaHBPBosgqEWFxeza8XX+MEEiAy7fctm9te2rWzH9m2lCNcxKfr3rp3s5IkCVXWpZWDQC8E8EdQTAVTVa2A5gKqq0tRGAFV4DDyA6t9nedDaqh5wPH3qJD+1dBvpmCb9AkHHQIcO7Gfnz51jZ06dYssWv8/iQoJ43qHDjyockgN0HLo+dvSI1tB9QXxVj7Vr19Z9a9Cg8CB3ly95wQhMccboO3x6N3I3cPTPR0sXs89WrGBffPIJW7JwPhs3eiQb0rcXGzagHxs+sH8pwvWh/Xrz/s/cmdPZrz/9yAqOHSNDLRZEWXnIIcH/WyHBEfn66KFDbO0vP3F3fsSgAWww6Zgm/QIN7d+X6xmmKxCzH4daYmALc4U43EOUAyfhO3R91KD+kdB9QYRVD6VS+X9ff77cjjr7C6WDISKhNrSi5tbL3pYfWIFDLaIC/fhcDI4D8rS34TVlWST+H+jhypIiw7nhwU27eLHsUyifFPIhF9V9yEVxlQRPvXDhPPtm9ZdscJ9e/FzzQDfnEjpUHuFgC+hkiLcHP4rXygCHaJbUZeg25ANd/3LFCnvoviDG6gH5929EBwcOc7NWXBaPbSrZsjXhh13wI3KEY3R067/Cj3IybPAaH83C8UClCNfpfxw8iGdBOGwuu3kq+/iDpezsmdOCiCsP+dim6jm2CTL+i2StTdy8cYPt2b2LzZs9i2WlpzJnhTnXLyx+xhFMXMdEnVInQf+4jtEzevXrMhxkWKolI4Juu1opLkPXcTC/IMbqRUZCQlyEr9cPTuYmt3k/TcooEa6hM4naEYQCRWv3JITnYLA4ZC41Npp9uGQRGdsZflhGZfGsDiLEYYD/9YMIW5EsIdNcku2Uf3AQoXYPLfl75w42duQIFurtySsF8A16Gh0DlZADygzXiJwtTG9HB/r9AF0XxFj9GNa7t15CWFieg6nxXktiSt3QtEVYmYCWEILEeVafrVjOLhZeEET+9Hh2R+tG/ueP1sWQPmTab/sp9nnBFVaoxfmz4qIiNn/WLBbs4c4Pi0crBd1QN5anJaTDiXSaWrO97bJb5kHXBVE+G2Q0a2blYWM1llq1QxgataUCFJmE4cG/RT+O9+WETIh9GV4DCQpZ4h56FrWMmHGR4EbiervWLanj+7Mg9qfHMzss3s66GP0jHOCOg9zp8f/cYfFY2wiZTvrnPMu/cktr82fFV6+yH9d8y7LSUvjyMHg7Cn3NBoaV99Ap1WoXUe9KHhYv6p2ol9BHexNDqjDN6dNor5PCfNTkyWMtBXE+O6xcufJ/2RnJDiFe7mPcba0P2JsZXyPG76LGxICIeuYxJ4HzqOk+TrbGhg9wv0Kv6R2FflPqmKuexX24HwIQn4WAUIOhxp005k1+1lVlXchr1Jn/iGpluI/qyoLvqJXxfc6BQnbuJlq1soHD8JYsmMeSIsM431wJJPzju/jb3szkTpCHS37LZonvDOrfOxITx/Pnz9da+HCkhTSRNt6Bd+Gd6nyIv0Vewfvi+e/xvJQFyACyeJdkAtlARqXkRrKETD86epkVlzOY9KT4Z8/frE+3LlwH4OlAJ8R8cBLyRXr0wNJA9w7p1W0LPR2uV6R3DzEhjQYBOijqGAjfbag/Rp933WwsrwV6uh0IdHMZqt+woRm9tmas7CFG/i+jWYxVYmRYtr+b8zRfJ/vf/Jwdj1JtcMZCV6fAXLcJJzKgAi9724KYIP+C9PiYk+kJsadiggP+cbexWkuC+NbaQP8rF2uLtdQ/OEs1L3e11I865a4CdWTbtMxgm/78g924XnZHvSKAnW64cIMpd59jOTiUUE1poEQp646yQX+hVbvGisjdLA8nC6hPMmEsH7EzaoC+ZWmXBi0KPjGs7uvocDLM1/vH5NjIkV07tg1btWpVQ0GsTw2kgbSQJtLGO/Au6btFAm/gEbyCZ/B+ouCYkBvNgAwgi8E7znDZiJWRaGSQIWQJmUK2lasKS+LnH75nUQG+DGdQq/et8J17Qno69yi/e5wtTddQq/aVaaOGq6gRWJcYGXq4eWL86dS46ILYkKACD9JF6KWZTuMC0sEzEf6+R6OD/H9LjAid1jojLTslNtRcEGnNAsmhTm5uK/tkMriEsJARXg524xS6OkrqrHKyMzVWRvj5KDtkZSoH9+391vD+fd/q0i67f6ivV461gUGag4lhcpCXa05McOD4cF/vda42iqu2xvolFIMrBdW+EX7ebNbUKapJ7UoCGxGx67rrlpMsmRSnRO1MHXqxdp6Uf579ffnWYxUHE6ajhgxi/q7OnFeMaKm7alAKkK0RRrUsmJ+r45FgT48Pgzzd+2PVf/d2OQE9OnWy6d+li87ZXbvqU7Kl3Etcw3+4B/fiGTyLNJAW0kTaeIf4PikP4Am8gUfwCp7Be3lA3iEDyALLrSAbyEhqaJAhZAmZamuTJzyXC+fPs7kzpsP1Zk3qvlgiP1RR8wUCjuYmhfT/Kh8Hu36B7o7plrq6yXr1Xk4M9/fJ7dO187DhA/uPHdy7p7JTTo4yjHQRemncuKEy2MNjXNtWGSN6de2UPX3SGHt6ZU1en6pq3XJycupnJSY28nNwaGzaoEEjkZxNTRslJgY1Gjq0e6O5cyc2mjZtWuMhQ4Y0iI6Orm9sbPxqqJlZXXzPiIlp3D4zIy3C3+dPNxvFQ6w0EYWKGgsuA2rozrnZbOvmTbwgKgN0vXZfuclG7DrLJ1wx+ljC2IjSSHk6bjzBlpObefZW2cP9wN27d/kGyZGDBzIfJ3uqYVUDOppqYHxyt8VI/6GlQdPrVBldCPP13J+RFL8mPT52EnY9d85qFY8YJOvWrXNfv369JQjfcQ3/4R7ci2fwLNJAWkhTkwuO76IcwRt4BK/gGbyXB+QdMoAs0n5Xq5SIIDvIELKETLU1QX3v3j2+eAFlji4HvBoxT/i0MdRnzgqzh2Henl8P6NszIjQ0tGGGn9+rZqRTpJZ1c0ivpiuVDaFzcydOJB0c2igxKOiRbsb4+TXu3r17oylTpqBSq965smeJb1eu1G+RnDTBy9H2OFdQuAQSJTFq8BqfaPzsk4/Z3TK2bjwJsOt38WFVBKcMtGISdwgE5UHt3Wf7KfbNqSLq3D9eg3bv2sFdMfR7wLs4cioqPM8PddKRJ9UAkDAySTW2r4vDbex2RmgBxPEI8nBdE+Tp9gUZxXIQvuMa/sM9uJc/I7rclBbS5GmrDRaAB/CC7+ANPILXxwF5Rt4hA8hCugoEBJll/H6cyxCy1OZOalQAs9+ZRpWCAy9/qYdAfXtsTbrvZqU4GuPvP4Rur77VG7UdmPPp1b1zDHVKv3cwM+IjRxAoFywpD5/Ipppt7KgR/DT+Bw8q1+G+SUqEjYtYgQ6lwYiZVIlQW2OBbCpdH7HzDNtSeINdr8DCveNHj/DBhWxMqlIHHiNlmDDV1HcTiRsH/pP+X4Hfj54Tr0kI1/FOvBs8gBfwBN7A4+OAvCLPyDtkIC4WlsqIy4wqKcgQsoRMtYEHD+6z0ydPsv553Yn3Bnyer0TeyPCsDXWv+7s4rkyJiooUVEhGRUDyrbN27VqdpPCQ2X7ODljGxGsyUbnQosEvb5mSxL789BO+UqAygErcJsX4/vRV1mvrqUcT2FJlaikoEzr64/ecZ5tJ8R63Wxh9C4zgff/N16x31y7Mz9mR18Yi8dZazTi4wahfx/dyfmt8RrgutgAigQfwAp7A2+NGbpHHLRdv8Dwj75ABZCHKRXQZITPIDjKELLVjZoxduXKZrflqNctIjOerPjAgJs0jyM7E6FxyTNTQ7774osafsFoj0TIlIS/cz/MY9cnuSQ1NVFIsBB0zYhgrvFD5CWwAwT3h9rSjPkjS2qNceUSF4kpFv+EyQeHm7C/kO4YrAiyK3rxhA3t3+nTWISsTq/qZ/uuv8hXyqKF53tSUp7KENJE23oF34Z14N3gALxVdqI08YigfeUbepYMfIMgIsoLMFpHstB0gdf++vWzkwAHcbYSRie63WKl42FhSN8J9X7vWLZvR7bXihNUah/atWwRFBvotszM1uiJObotChsAxLN0xqzWfX6ms+wg8oHoYE6yIKYI+B+bWpEuzQLgO5crbepItPaIKcY3J74rg8uXL7Dfq1CuHDuEr47G4FfM6GJjACge01HDtsOGyrBZPStIWC8/wSVxKA2khTaSNd+BdeCfeDR4qAuQJeUMesZ8MeVbvu0I2kBGui0fnQobaxC8/fs+aRUVQHlX5FCsl/kn5J5fxRnp8zGed2mQ6Cmoj40mBUaLowMCutsaGh0u4TkQwNL3X6rKkiDC2auWn5a7LexJgEhvxL7DqQXQXpcql6q+p+my9tqkObthfdPuxbqQIzP0dP3aU/bn2NzZj8tssM6WZaqc25QeGghUa+M6VSlCsconu4YZGz+BZbqj0HWkibbwD78I7KzrviLwgT8gb8thSqFw09csgI8iqvDgrT4tr14rZIupHetjZMN36dUtUOqrvOhju35oWG921X79+1bcp87+I1NhY/wA3l9/hJqJfJgobymXc6HU+rzKgZ95j54CeBBgx+/JEEVcyGBTv/JOiSY0NNTmUDzHl4VphgS36Jk8C7LX7dtWX5M69w0YNHsiDlCLiFELZuVoreH4RIKfJK/9jDV+sww+bAOE7ruE/3IN78QyeRRpIC2kibbzjSYA8IC/IE/KGPJZaNUPXVC27qrKBrCAzbbZl9+7eZbuoTAf16clsTQz5KnvRyEDIt42RAXO3tVnaKTPTUalUviiojIynQe8uXUyz01Lmhnh5XIZwRRdSdJvgt2OoH+HQtLGqXwRW96PP0W3zSb52DwonKppobLgG9ylnAwZIzvEBEsQtfBIuwPP9+/f5wAQiTSEfUyeOZ/3yuvEVMKnk9kX4+bAQL3d+ogsI33EN/+Ee3Itn8CzSQFpI80nkgTvBO0YXkRfkSRzkUG/JcA1rQ3FCDGQEWWkbWNe4eP48FhcWzI0KLbVoZCh7LKnCVp/Y4MBRlM9aE369xmL96tWv9+vetU2oj9d6EjIOHHgkcBCG+tEXwaqByo4+SoE+Sn7RLTbln/Msi5QL82vq/TVes1Ntj0GC3A3H2fCdZ9lXJ7Ei4ukGBDBfdIlcYLRCmEDG1vstGzfwXc6Ia4Fjk0D4jmv4D/fgXjyDZx836VwWwDN4x2Qz8iLOHaoPfkAGkAW+QzaQUUX7qE8CrAQZPqAfX/GBHd+oVHmZo4KlytbZ0vxWXGjQlq5tslsLqiKjMiCZvzhy0CDrUA/3mY4WJvcgeKmvjs17mKSd+OZodk5Le9VEwI3aVHidTco/x/dWQfnUjQ2EGh/9FezLwoQuto9gqVKRlvssVQHwCF7BM3hHS4W8qLdiIORdVakUsIkkk00Xrj+xu1xRnDl9mnVt14bpvvrKo50FoqGhsnWxsjjTpmXzyTOmjMfhEzK0hSh/3z6B7q53sH4PtZtobBi6hqFhrd6hAwe0MvooBbaEwJ3CqBoUDKsfNLlTqPnRZ0F/BqfSTMq/wBffnrt1l92ughq/sgBP4A08glfwrOp3lm7FRDcZeYcMIAvIpLytQ5UFDK1TThZr/PL/Ss+dUdk7WZj8k9epTUu6VV4Jok2kxsd0jgkOvI3hagyESA0NrRwCr+zfu1frhgbwlREXb7AJe86z1qR0qPFF90mdUOOjVWiz4QRf4Y5BhV/OFpNS15zgoeAFPIE38AhewTN415Qn5BV5Rt4hA8iiIitjKgMYWsfs1mRo/1eWoe3q36NTrKAeMrQBxGto3iz+zWAvt7uuluYlWjQM8SMM91vDh/J+ijZdRylQe2+6cIP3SzAIICofhr6hgFLFRAuAUTnEzMBvHP7w8bErbCspKAYOrj4DlxLvxLvBA3gBT+ANPIJX9RYaeULexEoFeUbeIYOqbMlEwNCwiLjJKy+VMjTuOlqaH+7aLqdnQUH1Hjzxn8XmzZvfGDNyaHJscMDX9qZGD6Tnd4HQR0OL9s6kCeXuCtYG0B/BpCxG2nrz+SXV0Dc+1RVVNWigcsVarz/OA9jg6CKcIYbIUQjTdoNahXtUMVSF3iJNpI134F14J94NHsALeAJv4FG934m8SPOGpVXIM/JeVX0ydZw7e5b17tqZGTdUTeA/6pfTJwZDqI92pXlC7GcDe3WPqfboVP81zJ4woUluRnqryADvVdQ3O0st2cNHo09EED6iGSFc2NKFC/h2iqoGavOj1DIg2jFaBSiqpuVaUqWFwibTPRgswYmYCM82fd8FHngUUX63X7rJCsgYMFleWSANpIU0kTbegXfhnXg3eAAv4Em9chAJeUGekDfkEfNkyHN1tGQiMEUxZuRwxO3gHgy6C6KhodztTAzveznYnAn2dFsW5OYW1aKaj739zwBbZdq0bNkmyNP1O1tj/Rvqw/oQPpYZQejJ0RHsh2+/FYqoelBI/RzEKxy356wq3BopJ9wsPpigQXlxDYT/cR8I8TZwTNRkcslwSATS20kGcuDqba7YCOeGI2tBp2/e5RspQfguXsc9uBfP4FmkgbSQJtLGO8T3ibyVxZ/IG/KCPCFvSO/CM+hfXr9+na38eDlLi4/lZYw9aNLyBwkGV+htZ/tJSnREsylTlLqC+sioCL7/4gsD5YABvRNCQ9bbmhhe17QyHTUchO/jaMdXQuzZvVsooupDMblle67c5AuR4V5hmwhaAz4qCVJTZpDokkGh8YlrOFgDwVzzKI2+207zVgSnZ8LVw7nQOIR94aFLfN0hCN9xDf/hHtyLZ/As0kBaSBNpS9+Fd0t5AXHDE3jmrTIR8oI8IW/I47MABrUwuDV66BAe21OPugjqOoDfqHCdLEyvxocE/dm9Q4duzyz+Ym3DkN69TTNTmvWKDw3a4mlnfV8UplTA+C0uoG3RLIH9sOZbHqznWeHY9Tvse3LTMFiAjY8YvXucewaStiKp647yo6QSflN9Yg0hQijA3cPQO9LFgAQI33EN/+Ee3Ct9FmlJWzBN7wbhP/AIXsEz0kVLiLwgT88at27dYl9/+QXfoArvRdNOB/xG9DVvqnATIsI29enaueuWtWv1BXWSoQ6S64u5LVqYJkWG9gtwdd5qa2xwV91dFAULgWNQJCY4kL07Yzo7e/aMqmSeIe5Q/2XXZVXrNnzXGdaVlBbLmLC6AkqvadBBqvCc6H/cUxkSW9KyDAz3gBfOExF4BK/gGbzD/UReagqOHD7EB7qig/wfLbx+1F+T6AQqZE97m4eJ4SHbWqeldLIiBRFUS4YUwwb2dkkKC5vg42i7h4zsDsKKq9deMDxxZXt0oB+bP2c2O3P6VJXMnT0NMCKHPtRuMjgEp0EkKEzwSg3tkVFJlF8T4X+pAaF1kpL0v4qkJRLuFw0NvIFH8AqewXt1jSpWFAhVgW1QE5SjWLCnG5W9qqItoReC14MQ3k4Ks7uOFiabnRTmvQcNGmQoqJcMYGjv3p6tUpq9E+DidBzrFsUaSipMXOPbSMiFwELT92bN5Ecn1VRgUnj9hRt8YAKBRDGsDsXGqB9G9OCuPXLvSPk1GUhlCEaFtPEOvAvvxLvBA3gBT+ANPNakyXRNQDiDXTv+YlMnjOdeDCpaGBs+seD4kcGRjuAa1ka6Wlv8lRQdPrJ7DTwyq9qBrQ1z5rzjmNs8bXaYj9d50cikBsZrKy7Y1/nv6KAA9u7M6ezcubNCMdRcwANDANH8opvsC2o1EIcehz5gsAI7kuG2wSjQwqCvJBJ+S1svkcQWTNN/0jRgXPiEscGw8C68E+8GD+AFPIG3GuQllgssRDh65DCbOWUyiw0JJD3BYYllhPIjHXJWmOFEohMtkpN6dOnSpR6pW80OIVeV6NWrq0O7zJaTycgK/g3yWbqzyzc0Nn6DH/+0YO4cdurkSUH8tQNY3Y4h8sPFd/gxtBgyX3zkEhv79zm+5wtHz8I40OKAREOREvpTMCZOav+B8AyWUWGlBwZEYHwYgcS6RLwL78S7wQN4qYoV99WBE8ePsdnvTCFd8OdGhoBD6t4P5toQExTGFh7g/W3L9MQEwdieL5C86uTn5zdum9WiS7iP10FnCzPe3KsLTGVgDbjAyLVk7783l4zshEritRg4KwyjejgFExPfGLKfdaCQByYdS4YxctdZ3vpgHgxuHk5s6SkM24PwHdfwH+7BvXgGRjWR0nhn7wV+TjcmmnG6Kd5VFeeTPSscOrifzZs9k+uEnYkRD59n2qRBCTcSIfcwYOblYHsuPiRw1qAePZ6//hrJ6uUPFy8ITo2L/sDB1Oi2ONsvCgnfRT/cxUrBV3F/u3oVn8T8rwDtCVoVxEvE8bQXbt/jh25gmdN6boBX2crjV7ibh8EK9KfmHbzECd9xDf/hHtyLZ/As0jhPaWHpFdLGO2pn21U2Hj4keZ0/z1atXMnatmrB7IwNucejrkMwNBeFOSJ//dqva1dXevT5ch8RobhHpw7dIvx9t0MYFtSaiQJCrYSRRRiZo7kJ65SbxX5Y8w0rKnp282TVCSxzwk5nhAY4c/MuO3fzHidEl8IKEBC+i9dxD+7FM9W5RKom4PLFi+zbr1axbm1z+QkwcCOlXQ/oFubYnC3Nd2QkJCRW69G4NQFxcXFNQ30933K3tS7gzb1QE6EWgqDw6Wlvw7q1b8vWfP0VtWTXBNHKkFESN2/eZL/8+ANrmZz4KHqYtGWDsVkZ6e30dnbIUvbq9Yaggs8HFAqFrrWx/iQrQ70zojDwCSODC4DaCXuRcBYWVgfIkFEejhw+zOOmUDeE65A4EsmNjOuW7k4HU+PsOB+f58vQ9OrX1zVu/Poks6aN1AytMTN4ox4LcHVik8eOqXWjizKqH+fPnWOfLv+IRzKGdwRDk7qP8JbsTQx3x4aH5n44c+bzZWhOFhZ6DhYmU2xNDM9bSlxHCAgh1LCLemCvHmzDH7+z27flFk2GZiBC9ccfLGUZSfFYxc9HqEsYGZG1oS6OxtrWPisriR55vob406KjdaOD/CZ5OdqexdFC/65pVPXRQF4OdmxYv75s66aNZGzaPWxcRu1HYeEF9uGSRaxFs0SNRsZHHakSx/ysp63NN+kxMXb02PO1QXTSkCEN2rVu2TXEx2MbjuCVLh6GcDDiiFggOIZoaN8+bMuGDeyObGwyBGB9K1oyGBn0BYcpYqSaD6wJesT7aWRsXvY2p6MC/CfgPDRB/Z4fsO3bX1IOGuQR7uf9ro2R/k2xjyYlCEr/tVd5aGsY2+b16+WW7bnHQ1Z0+TJb/sESlp4Qx8+dhpGpu4v4DU/J2cL0TlSg32ed22THTJs27VVB/Z4vzJ8/v16Qu3uOi6XFPjT9Yj9NSmjZsOfM3daSDe7Ti23ZuFFu2Z5jXLpYyL74dAXLbp7GQwyKLZlUZ/gUEVXSCJMeExxwoEvbrB5KpbLhcx1XJDIoyCYmJHCys6XFMXHuQ9q6wRWA742462jZhvTtzY8cul3FQ/7YdoMoTLt27OBRgX/54QdOOKz8j3W/sb35+Txk9fOGSxcv8p3s639fx3776Scuk19//JFHTf571052vgoXeqPM1/78E2uX2bKEkZVyF+nTjYwsOihgX6c2OSNxJrWgbs8v8vPzX54w4S1vbwe7yea6jQ+QsZWKcgUDhACxns3NxpIN7deXh8KuCjcSBysg+tKGP/9gi+a9x4YN6MeX+LRMTmKtiNAnaJ/Vip80uvqLz9j+f/7hQWRu3LhRZWHuniVQ4SBvyOOe3bvYpx99yEYPGcw652ax1mkpXC6Zqcn83LWRgwawZYvfZzv/2sZP9rmvxUBJKGuUOboQaKnQpVAf+FBV1DpYF/sgJijgIPGkXLVihQk9/vyu2peCFPSVIBcXGwvdxsMVek0OWen/W0NJCTUYlti421pTy9aHj0beuaNdY/tr61Y2QTmalCiVRfr7MG8ne+ZoYcpPM4F7i7B2TgpT5u/mzBLCQ/mk+njlKPbVF5/zY5H+S0BEsQP79/G8oWLJbZHOYoMDmJ+LEz+aF1uaRLk4Kcz4ofPYK5aTkcamTZzADVMbQBmjrFHmOL4JHo70wAsQjA7uoqol8z9E5TJCOXSovA9NE6xMmloqdHVGKfSa7oXw4BKou5HY9IlzshBebii5kZvW/8lu3bopFMnT42pRET/1v19ed+Zlb8tD2OHwDBg33gkXRST8Rr9Rp+5L/KhXHBuVlZ7KJo55k63+bCWveU+eKBBSrl2AcZ04fpzkup59/MEH7M3hQ3neoMBNX32ZNaU8G5cjEz1qaSA3XycHavkGsb+2bWX37z99ywZ3EWWMskaZo+zxrtLuog42esLI9nbOzR41b+ZMS0GtZGhAHUvDRiYKfRibziES4sOy3EicaOlObiT6bNyNrESfDaev/LhmDT+0z5JaU6Rf4jBAqi1F1wSE3/weKnCQOMKFZWNhPp7UymWy92bNYDvIhcJC6Jo+Ugr3EOsFz545zTZtWM/PVUM/KNDNhUefQt6QRy4Tyu8jmYhyoU9RJpAZWhzcCxdvWP++bPfOHU/lRqJMVS0ZGRmVNcoc78A7pfoAInfxIbW2h9pntx4lu4sVhKVxUytLA53hlnpND2ga9kdthpYGrQlGI4f06cW2btz41McVoWPfrV1b3sHGec8wHmlhlke4D4Wvqs3r8k9HCxO+QbVtywzeIuAw+5occgHxOD54fyEbPqA/y23ZnEUF+HG3EPLFIBTyhDxqyr8mgkzQ6qFP7UmuHowNBwo+Cbi7KPTJUMbgBWUubclg3CDuLgb6H+yU3Xq4Uqm0EtRIRkVgqqdnQS3baCq0fY8KUU35UXsiHLgH9dlQIBgdfJKtNFisvHXzJr4YFa0Ramv4+VIjw/cStbeEpLxI7wVfiDcJVwvG2yIpgU0dP5bzhz1UNQFw504UFPAwfcphQ1hcSBBvuWAcMBLkoaw8qkiUh0rZRflI78N1DFrgpNaRgwayndu3U2X4+BB26ApsppZ1aD/qk1HZoozBjzofkC1azeggv32dcrKUCxYssBDUR8YToI4h3EjeZ9M5DOHy1k2tMNH6QDFQq2FLzXfffMWuXi0SiqxsYIRwy6YNrE+3LnzaALu71QtTJN5XNNB9SPRA+CzRd5SSqGDgS+zfWZNCYF8dRi2XL13Czp4+LXDxbICTQPf9k8+mT57EEsND+UAG8sRl2UgV5x55KJm3f+XO8y+VCRko/13i/n/LB26kOxnbsP79+BQANm2WBbjZvCUjI0OfDK0p0kBa0nTBH5ZWUZ/scEdyF1csXiy7i5WBQkfH2tpEf4SDmcl+jPiJtacodBQwRqCwXAv9iXatW7IVHy7jc2DlYdOGDbwlw3QB9/3VanB8tzbQ44UZ4OZ8PjLAd12Yt8eqAHfntZ72NucRegE1Ku+fqLWCUgK/UBacO42+C47CXbbofXbm1KlnsusZMxA4Q27iW29Svlx43tHygje0TprygLzxvpGuDt+Ggv6Sj5P92UA3519JLl9G+vts9na0K3IwNebloS4LGBpaNkSURiz9I4cPCtyUxJ3bd3hLhq6ABxkZBqTU3UWR8A5yb/fHhQWNeHvMGGtBXWRUBu7u9mY+Lk6jvR3t96HTa02CV69xoexQaLQezRNiqeVYzFd2qwMdf+xdwllqGLaHEpg3Le2WwICczE3vhHh6HMhMTZ43pE+fNsP79Ilvn9kiJzrYf1agh+tGqnGPOJobF1ElwOMJorWVupjqaaKfgdo5JSaKrVi2lF2u4pNvNAEV0LxZM1mwpzs3MPXWQsqvWKGhQkGL7GaluEKVzP5AN9dfEiNC3umY1Spr3FujYvvlde2aGBG22M3K8gDd/4BXhpI08R2GCs8j0MOFzZk+jQ+8SIGBD6xn5aOLZMjoG2rqF1oZ8M+HCr2m+8jwR+s3bGgmqIkMbQARjLPTU0dgZMnFykJVw6opCFw/1IBo+VokxbMPF5c2tqOHD7EZk9/mB63jXlVNXtooYDT+rs67e3RoN+TdGTNcVq1a0nD79u31sJQnJyPDQjlkSETblhl940IDVoZ4uh8hnu6pntXcKmArkMgfFA5zUls3bRK4qj788O03LJUMHfLDnKQmZRYJckBrQhXSvRBvj2MZifEfZ6WndGyZlOTRIinJdNKkSQ1Onz5db/bs2U0G9O7tFODmNtzGUP+wpZ7m9OCWQq5RQf48uvT58+c4TwiQuo1kwQc+yI3HNilN5SK6pnSduhI6IxQGdU0F9ZChTSx+b4Z157atR1Dndz/6ZCgIqaJAKaDMUGTUfBiE+Ji3HJd4gaLzP/udqVj/xp9Fba7eMqJ1w3+uVoojKdGR47777rsy52P++mu9YefcrKikiNBuId5e7/i5Ov3g42hbgBrZiVoA8CNNX/zd8MU6PEzDrKlT+JxVdQD9MrirE99U8glmuGXSfIO4G6zbmIdpI5f6ga+zwwF/V6fVoT5e05Jjo3sM69cvvKCo7EP/urRubRfq4THN3UpxCu+AYUiNxYK+o/8HuVMLyKNMr1+3jv303Ro+hO9FMoGLCYMs4S7Sc2I61JLtV+jrjESXQnitjKrAqlUrTDpktVRGBwYcdFaYP+AFqGYs+I2WA4WNlg3LhjC8jMjGCLyJe9RXFqAgQXYmBhjpOhMfHjK9d+fO3sJrH4s5c+bo9+3aNSU9PnpKkIfbb562Nsepz3gdI3nq74EiOZgZ81YNoRqqA9evXePvateqBecBrZmULyg2Tk0l17vYxdriUKi3x5pWKYlvDurdO3LTpk16lMRjBxronpfeGjDAt1l42EIfR/srjpRHTQMkqAztqK+HKZDuHdrx1TWY9Ifrr16WuB9pgD8rfb1DZGRKhUEjuSWrDpDbZoo5k5jgwIM4pK4sNxJkT4WNwxHSqd8W6u3J+xvipKv0fvTxMLIW7OFWSMr40bC+fQOpNXtFeGWFsH79+te7t89SRAV4eyVHhncI9/P6ljr13NikCoR3431Bnm7sg/cXVMsaSWz3n/3ONL6sDK0W+qYiP5AdjxSlML8R6uP5eWZqak5SRIRH7y5dTIm3J9paguV0U5TKiNZpKUt9nRyuoLIT3yG+D7KADGA8KD8s54InAXdRvEcktLJIg/rmpxwtzN6UjayasXDaNCuszI4JDNgLNxKFou5GonDhpmAeBhPRcEtgfPweiWuCgketSf2swtSY6GWzp06NJt2sVFiyhw/P1h/ct0fbuNCgP3AqjtTQwBdqb0wKz5o2pVoM7SS5zZg8x9FGXNFFOYCIH1Lmy34ujt/lZrVqAWMRsvFUoNfVG//WqMhIf78PHc1NzuB94sCKVAYoL7TuMDBeBmplgk+44OTCno8NDXw3LsjHQXiFjOoEltpgDgUrtTEaiU44ClBae4oFCgPDp/p/IBgZPX8pws/345yMNBiZVvYtXb582axlctIYGyODYnVFw5pA8DRl/LhqMTT0T0cNGcQX5aobGvJvZ2qYH+Tp3qtNmzZGAvuVAjZZNosOj/Cyt1tuZ2x4CyPF4iS3+F5812SEIsG99nN1vpaWELt02rRJfpQN+ejcZwWs0O6ckzUMK7axSgAumVgbPo54IVNhu1qa3wnx8vg+NTo6Pi8v7zUh6UqDFOP/gj1cs630dS9C0aTv1iVDQ00+edzYZ2poGDQCb1aGultcbcxSQ0NDtRZgFLHus9JTWpGLv87JwuwO3MPHlY1Y+aEl83d1uto8KX7J2BEjgirbysrQAhbNnavAEhzqXO+DscEFQeslGpJ6QXJFo/8x90Wd8IfRgf7rWiQk5FTFIQhk+M3pnRcw0CDl41m0aKOHDmae9rYaDc1Cr8lGw4avNiOWtbrd/6fVqw3zOnfuEOHv+7O7jeI6JrX5+0j+4OGRp0E8qcqrCfWjDRi5sQXUr/5AOWJIiJCUjGcN0qM6K0Q3MjjggJOF6R0oEQYh+KiXaGz0CSMURwLdbCxvJoSHbunRsV2nmVUQ7w98BXm5t6d3XhQmWh9RTTM0hb7OZmtj3TQXPb36AvtaAb26zvLlyxsN7N0jKzk64htqUS9Tf/AWlcF9jPBioAPznjZG+g/p2j1bE8MbLpYWe+MjQqbMmTLBV27JaiAmKIdaUcvWA8FY/F2dTyM2JFotjLLxuRiqOeH3Y0Ag0MPlUGSg34Kc9PTmH86bZyAkoVWQkum0z249lBSpqCb00TQZGjc2Intz452xwb7tlMr+OgL7WsX27Wt1enZqFxEdGjAoxMt9aUSAz9akyPCTKbFRhfFhQSdDvD32UHn8QsY4NzLQp01m8+aOxPaLwuMyahqOHTvWsFfnDjFpsdETQ308v/Z1dtjgYmXxl4O58Q43a8vtfq5Of4YHeH/WMjlhZI8uHbyEx6oEpCiKQb17TrA3NSpWTR/UTENDJYClVd3a5g5atWqFucB+lWDzwc1vdO/cOaBLh7bd+uXljRvUt+c0MsBxWRkpA/r16Ja1atVKN2L3+Q2iU5uwZMmSujk5abrtWre2nj19SljfvLyMjMS4zJGDB6RPnTQ2oFVKinmXLq111q5dW6U1JhmQxYAe3ceXZWiYeqjOwRBNhsb7rMRbgJvzseEDB4zftG5dlQeyWbly5ctYyjZFqdSdMWO8nnLAAN1+HTs2XjlnzmvEqjyyWFtBilz/YWHh6/RZrXH9rly5Yt6mZcY46oeUGt7HlnysXpk05q1qMzRNo46ioQV7uBW8NWLY5J1btjgK7MuQUTtALat5qJ/POCtDveJHAzKCcmMJlGrCemq1GZpy6BAeD0WTofm5OB0f2LvnpF+++06eFJZRuxDq62puZ2w0TqHftFicR4Nio2+G71jrt2LZB4IpVC1Onzwp7EFzJh6a8GVoKsNXzVu52Vgdz0xNnjReqZQNTUbtgt4rL5ibNmlUytAwUY1h7bT4GB7KrTpw8cIFHqcyMTKUG9e/6wpVLa2tidFxH2fHSXFBQbKhyahdMGvwirl50yalDA2DIFjcnBQVXm2GhiCoKz9ezponxnE++N4wbmiYS9NlCl2d4xa6Om+bNm4sG5qM2gVbvQYaDU10HbGr4LMVHwumULUounKFzZs9i7+TG7tkpbxoaGY6jWVDk1H7EBceYGlvajzRQrdxsRUpt2hoGIwAYfMnou9i4+PaX35m6379pUrot59/4qevIFYjon2hj/bvdAPxRTzZGhse94PrGBEhG5qM2oX+3bubBLg6j7E11r+hvtYRhoZPX2dHlhobzaMB44SUqqBWKc34hldnhRk3MBj7v7yodi+4WFsczEhKGKRUDqnSCWsZMrQOpVJZLyUmqq+Po911KDkUXFRy3rKR0sPg4LphxzE2qWLIX2uE9IgQHx/vM9MpueEV1/Bu7IT2drLf2ik3K2n+1/Ofr6NnZfw30Dk7MzkywHePq7XinrhK/d/WBMrehCs/+m1VSaVbMqFVpWtUCVwNdHNZ0rlNGzlevYzaiV7t2ztQqzbNy8H2OB8QUVN2KD9v3Ujpq5LUjQx8oDWzNTa472FvvS7E061NixYttLYXT4aMasWAnJz6A/LyQppFhX/p5+L4ELsJeMumrvjVSNjNgBbO1cqChfp4nk5PjB0W4eeHndVypF8ZtRdYa9mzS8ecpMiINS6WFqexHw7BcDAIwVscUnoYH++zaSDxP7iZeAYt45MSnoNxWxvqMnvqszmYGRcFe3nszmnRfNbUiWM8BVZlyKjdmKlUvtGlbdvIAHeX6e62VgdcFOYPsNkRLQwMryIEV4/uxzMghNoTvz+WyMgQJ/+hvanRA3cbqzMR/j5ftGuZ0Wnu3Lm2OHVVYFOGjNoPxthLCaGhbnEhQV0Sw0Nnhvl4rowK9Ps1NTZqQ1pc9EZ8aqL0+Bj+X7if93fOCrOPyHAWKXSbvI/PxxHdt8i8ScNFjhami6MD/RbHBQVODnR16toqJSXyu08/bSqwJkPGfw9kcC/+888/ZsoRQ8LGjh7Reu7MdzotmDOr83uzZnTURO/PmcP/GzVkSEpcaKCftVFTVwvdhs42uroujyO6z0X3pRdckiMj3X9ctcqN3FhdgQ0ZMp4PkMHV3b59e4MTJ/IbnzhxggifpWnv3r1N8Eku3mtKpfLlFi+8gM2R2IWMzwoRvYsTfZchQ4YMGTJkyJAhQ4YMGTJkyJAhQ4YMGTJkyJAhQ4YMGTJkyJAhQ4YMGTJkyJAhQ4YMGdWLF174f28tqpKus3G5AAAAAElFTkSuQmCC;" parent="1" vertex="1">
                    <mxGeometry x="505.09000000000015" y="310" width="60" height="60" as="geometry"/>
                </mxCell>
                <mxCell id="15" value="API" style="text;html=1;strokeColor=none;fillColor=#FFFFFF;align=center;verticalAlign=middle;whiteSpace=wrap;rounded=0;fontFamily=Noto Sans JP;fontSource=https%3A%2F%2Ffonts.googleapis.com%2Fcss%3Ffamily%3DNoto%2BSans%2BJP;fontSize=14;fontColor=#000000;gradientColor=none;fontStyle=1" parent="1" vertex="1">
                    <mxGeometry x="520.05" y="325" width="30.09" height="30" as="geometry"/>
                </mxCell>
                <mxCell id="19" value="Web API" style="text;html=1;strokeColor=none;fillColor=none;align=center;verticalAlign=middle;whiteSpace=wrap;rounded=0;fontFamily=Noto Sans JP;fontSource=https%3A%2F%2Ffonts.googleapis.com%2Fcss%3Ffamily%3DNoto%2BSans%2BJP;fontSize=14;fontColor=#FFFFFF;" parent="1" vertex="1">
                    <mxGeometry x="502.64" y="370" width="64.9" height="30" as="geometry"/>
                </mxCell>
                <mxCell id="20" value="業務ロジック" style="text;html=1;strokeColor=none;fillColor=none;align=center;verticalAlign=middle;whiteSpace=wrap;rounded=0;fontFamily=Noto Sans JP;fontSource=https%3A%2F%2Ffonts.googleapis.com%2Fcss%3Ffamily%3DNoto%2BSans%2BJP;fontSize=14;fontColor=#FFFFFF;" parent="1" vertex="1">
                    <mxGeometry x="609.95" y="370" width="89.91" height="30" as="geometry"/>
                </mxCell>
                <mxCell id="23" style="edgeStyle=none;html=1;exitX=0;exitY=0.75;exitDx=0;exitDy=0;entryX=1;entryY=0.75;entryDx=0;entryDy=0;fontFamily=Noto Sans JP;fontSource=https%3A%2F%2Ffonts.googleapis.com%2Fcss%3Ffamily%3DNoto%2BSans%2BJP;fontSize=14;fontColor=#000000;endArrow=open;endFill=0;strokeColor=#FFFFFF;" parent="1" source="21" target="13" edge="1">
                    <mxGeometry relative="1" as="geometry"/>
                </mxCell>
                <mxCell id="21" value="" style="shape=image;verticalLabelPosition=bottom;labelBackgroundColor=#ffffff;verticalAlign=top;aspect=fixed;imageAspect=0;image=data:image/png,iVBORw0KGgoAAAANSUhEUgAAANsAAADbCAYAAADkg+RAAAAAAXNSR0IArs4c6QAAAARnQU1BAACxjwv8YQUAAAAJcEhZcwAAFxEAABcRAcom8z8AAC7fSURBVHhe7Z0JeFXV1YZ/26pVUAwgYyAh8wAhJGRgHoIQCPMoowqKMqkoOFWk0lqttYIWUbBafypV+bVFi4KKoqCgMsgkolJmmWdIGMP697vvOXiJQQIkeDhd3/Os5yZ32Hut71vfOfuce+69/6NQKBQKhUKhUCgUCoVCoVAoFAqFQqFQKBQKhUKhUCgUCoVCoVAoFAqFQqFQKBTFDBH5lYkrp0yZEjJp0lOhYx4cGdu9U6eaHVu2TB0+bFCzOwcNymlRP6NNeEhIq9T4+I69OncYMOyWAYNu6tlzULusZoPSEmMGRVW6dlDYteUG1TC3RQ2ez+t4PeMwHuMyPvMwH/MyP3mQD3mRH3mSL3mTv1OKQvHzwTTiJTRjdnb25U0SEkr3yskJ6dm2bfnmzTMqNkqJq/z4I48kPTtu3HU39ujSod11zfv07Nj+jq7tWj/cNDPjTw3rJj/bvX3OtB4d2n1cL6nW7PDy5d5Lior4PCer2Y7eXTrldm7dKjerfkZuckxErjFNbo1ry+ZGVixf5OD5vI7XMw7jMS7jMw/zMS/zkwf5kBf5kSf59jV5kz91UA91UR91Ui91Uz88OJQoFMWPEydOXLFgwYLI++6+I6NeYmyr1LjoftmNG/4mp0XTJ5tmpL6QnhA3tW587Iz0xLiPa0VUn5cYXn1BcnTECtP8q83f6xPDQzenJsTuS0uMO5IYVu1wRIXyebGhVfLN86Vxah2pn1xL6sZHi3mexFSpKNGVK0h0lbMI83xex+sZh/EYl/GZh/mYl/nJg3zIi/zIk3zJm/xtHaYe6qI+6qRe6qZ+eIAPhxqF4txgmqjUU489Fnp9ly6JTdLTM7My07JbN6rfo13LrGFm6/9o0/S6kxLDQqcmhIXOyaiVsKZBnaR9NHSd6EiJC60sZi9jw+xl7G2E8z9Ro0I5MXsge19UZfO4eU64+T+sfIiEm+Bx+3xee47B6xmH8ey4ZnzuZz77mPmfx92c3PzcfAnqoB7qoj7qpF7qpn54gI/WTRv1yMrMzG6UWjs9q2FazOgRIyrBn0OlQvEDzHLoFxMnTry0a9euV4wePfqasWPHxt51221t+3TpNLxlo4bjMmsmvF4vudaX9WsnbqsVEbYzukrFvWYvctA0Zl5kpQpHY6pWMnuNyjb4O8rsXWzDBjV/8P80dkEzueYoDqO58VNj8v8p9xWc0/xPHQVro17qpn54gI/6yTW31a+TtMTsKV/NSKr5SMdWLW67e9AtOU8/8UQcfMIr/MKzQ7nivxHTp88NGXnnkLr9unXp2bp54wcapdSZYIz1Wt3EuA9S4qOX1Y6O2JgYXm1/UmQNs5WPMFv7ShLhNC97ASKiYqChi9MoXgnq+aG2ckE1G7Oa++ADXmpH1ZD46lX3xoeF/sf8vcgsQT+on5w0FT7hFX7heeZrM8s61Cv8jtmzZ5fu16NHZJO0OnUzkmu2aZSeOjSrfub45vXSPzJb582pcTFijmlOmsjd4tvmOksjuY3KEo7lXPVy10i1kKsl1Imq11wlVcqUkspXXRmIqwO3lUxULPVrqXDl5eccvJ5xgsclmI953RzIh7zIjzzPZYNRkBv+hj94hE94hV94bpKWOgze4R8d0MORRuEXsIQZP/7xSrfc0DunbVazP2YmJb6dEF5teUyVSptiqlbeFV+tyuG46lXtcYpZHp1smoDZAs0U3FDu44S75beBsYLCPTZyw32NG8HjBQdLuPONwsYlCuYQnF9R8y9svJP3OX/DI3zCK/zCM3zDO/yjA3qgiy4xfYAJE56MuK1fv9bNMtOGpSTEPFU3Ifbt1PiYteZY43hctSqBPRhNVKChTjZOIcHjNCF7BPYOVa4uJZVKX2H3KOWvuFTKXvZLCbn0F1Lxyl9LdOWKkhwTKSlx0dK4bop0ym4p3dq2ka45raV3l44yuP+NMvL2oSaGyYihQ2TEsKFy/113yqMPj5bxY/8sz4wbe9bB63g94zAe4zI+8zAf8zI/eZAPeZEfeZIve0Xypw7qoS7qo07qpW7qLxJPLqdOwDe8wz86oAe6NM9MH4pO6OVIp7gYMHXq1NL9e3UO69T6uuYds1v8pnWTRm+m14xbH2O2snZpWKApThc0C1v3k6YqU9osyUrZW87wseVOrFFdUmKjxGyppVFqHTGmlpaNGkjb5s2ka5tsufWGvnLvnbfL/XcPl8d/P0ZefulFeW3Ky/Lqy3+Xt/75hsybO1e+Wr5cVq5YISuWLpOvli2T7779Rnbv3mU29ucOXs84jMe4jM88zMe8zE8e5ENe5Eee5Ns1J9vmTx3UQ13UR53US93UH8yHa0L4OpMJgwM90MXosw6d0Avd0A8dHUkVXsT0KVNChtzSv337Vi2ezqxd89NaNcLWJ4RV228O3u37UDSCGz8W/ofH3C0yzUNjuYYLDbnKLpPMFllMc8gNPbrJyDuGyp8e+Z288Nyz8sarr8jHH34gSxYtkmVLvpRvVq6UNatXy5r/rJZNGzfIzh07ZPeuXTb27d0rhw4dkuPHj0v+8Xx7S5w4ccKxzPmBcdwx3fGZj3ndHMiHvMiPPMmXvMmfOqiHuqiPOqmXuqkfHuDDNZr7FsPJvVkQnz/FNbqgDzqhF7qhHzqipyOtwisYPXJkFSNQ+6x6GQ83TEmenlErYTtnyFi2nGlry2M0CicOKl11hZS7/FcSctkv7H00VctG9aVnpw4yeMBNch9LvN8+JM8+PU5emfy/8u7b0+WLz+bLd9+skm1bt0ruwVyn1f0B6qEu6qNO6qVu6ocH+IAX+IEn+II3+INH+IRX7juTBuiEXuiGfuiInuiKvo7Uip8LA9u2vbJtkyZxZskztGlG6sfm2CPPLHNOIOAPJwlOFdkVtnrZMoGtsrnl/oSwUHvckhofa5dO3drmmKXVHeY46EmZ/uY0WfrlYtm6ZbPk5eXK8WPHAnuh/HzTksWzJ/I+Tth67d7S1A8P8AEv8ANP8AVv8AeP8Amv8BvMd+EbwMD/rm7oiJ7oir7ojN6O9IoLiXnzZpZt2bBex6SoGpMSwkNX1qxR/UhCWFW7vHGXMaeKGTAaj7Hs4YCfY47IytdK47QUufH67jLqnpHy1+cmyKx3Z8oX8+fLqpVf2WUWS69802SKHwNe4Aee4Ave4A8e4RNe4Ree7TGeCfg/k0boiJ5WV6MvOqM3ujstoLgQaJJZJ6p10wZDUuNj3jIH2HutSD8hXpgRF6GvveIys2W9xi532rZoJgN695QHRtwlE54aK2+/9aYsWbxI9uze7bSR4nwAj/AJr/ALz/AN7/CPDuiBLuhzOu3Qlb/RGb3RHf2dVlCUIC6JjKxSLSUhZlRydOQqI8CRk+IUEAuR7LWBzlaUU87JURGS3bihPQ3+6t8ny9LFi2Xnju1y8OBBOXL4sF0iKYoP8Amv8AvPLDnhHf7RAT3QBX3QCb1cc52MIF3RG93Rnz6gHwJtoSh2VChzeUREpfKjYkOrfG3CXuVe0GRuVC9Xxl5FUbVMaamXVNMeyD//zHh5b8Y7VvQd27c7LaG4kIB3+EcH9EAX9EEn9EK3wvREZ/RGd/SnD+gHpzUUxYkerVqFp8RGPxBVueK3gSXHj03GFpJLkLg0ifeDmtdLl5t6drenrjmVnWu2sArvAD3QBX3QCb3QDf3Q0R67FdDYvaKHPqAf6AunRRTFgW7dupXJbtrg3sxaCd/GVK2UX5gI3MdZLoKr1Lu0yZaJ45+W5UuWyK6dO+TwoUOOxAovAV3QB53QC93Qz9XydFrTB/QDfTFw4MAyTqsozgdz584NGT741jaN0+rMTooMt1u+4INpThXzPg5bQ26z6mfIQ/eOtO8JbdqwwZFUcTEAvdAN/dAxWNfg6z3Rnz5IigzjTOfskbcPbqNnKYsBTzw6JrVvty7P102I3VrYGcdqZcvYU8l1YiKle/sc+cuTT9g3YRUXL9APHdETXdEXnYN1pw/oh9T4mK3Xd2z3/KhR96U5LaM4V/Tv07N3i4aZq5KjI/ILXgDLcoKLZGtHR8iIoYNl1swZsm3rFsm3bzYrLlagHzqiJ7qib0Wjc8ElJf8nhlfLr1e75qrObdv0dVpGcbYwnF/yxuTJFdpdl/VwckxkHtfPBRstrHxga5cUVUOG3jxA5sz+UI4eORJQS+ELoCe6oi86oze6uz0QYYLvXDG9kdeiYf3f0S/mZfp2wNli4cKFl/7+nnsym6an/i2qcsWjp5ziN39XK3u1/aj+zX17my3gTDmwf39AIYWvgK7oi87oje4Fe4H+aJKe+hL9Qt84LaQoKu7u06dUlzatOqclxL5jSD3m7tW4tW9+mr+bZ6bLixOfk/371Gh+BvqiM3qju9XfNZy9rXCMbwOjX+gbp4UURUV2evrVdeNj+iSEh34YVbnCMXdLxjqdC1pZxw/qf6N89uknjiQKPwOd0Rvd0T/4+I3+MH0ym36hb5wWUhQVseXKXRVVoUIvQ+YsE8fcU7+QzAcW0xLj7PV2fP5K4X+gM3qjO/q7ZnP6go3xB/QLfeO0kKKogLSI8uV7muXC+8FmY/nA1QUcMA/s10c+nfOxI4fCz0Bn9LYnSoz+7jLSNVuNiuVn0S9qtnMApEVXqNDTEPkjs9kvojG3fHSDqw70Sn1/A33RGb3RPfgtoKA92yz6Rc12Djid2dzgrBT39eveVd6eNk327tnjSKPwE9AVfdEZve3ZyKA+ULMVA85kNi7h4X2XxPBqckuf3vL+jHfkUF6eI5HCD0BPdEXfBKNz4H22kFP6QM1WDDiT2QgOkrmCpGZEmAy7ZYBMn/ZP2bhhvX4u7SIH+qEjeqIr+hZ2BQmhZisGFMVsBNfNEbWMIB1aZsmfHvm9rFi+1JFNcTEC/dARPdHV1bgw/dVsxYCimo37+SiG/QyUWWbwpaN3Dx0s/5z6mv16NsXFA/RCN/RDR/REV/T9Kf3NrZrtfFBUs7nB2SlEsVtA83dO86Yy7vE/yufz5sn3mzbaj+YrvAd0QR90Qi90Qz90RE/3rOPpQs1WDDhbsxEIw1el8aZnZKUK0jCltv2YxsMP3C/vvvO27NW3CDwF9EAX9EEn9EI39EPHMxmNULMVA85kNndPVthBM4FYnDxhGcK3OfXvdb2Mfewxu0z5fN6nsmXz91JMXz6sOAvAO/yjA3qgC/qgE3qhW2F6onNhezo1WzHgTGbjfz6tiwiFffGna0YuWuU5Uea5CdVDpVlGmgwbeLO89PwkZ4m5wb5pyvdhHD161GkJRXEAPuEVfuH5i/nzLO/wjw7ogS7WSEan02mIvjwHvQvrA3OrZjsfnM5sCADxvL+WUSvR3rJVDL3mKns/zwkOns97MyxN+EUWhKsTG2W/LrtXpw5y56Bb5c+PPmK3tHzF9o7t25xWUZwP4BE+4RV+4blX5w6Wd/hHB/RAF/QJNpkb6Imu6BusN/e7z1ezFQN+ymwcPKfGx0ifrp1l6C397Xo/vVaCPXtVsfSvpeo1P1yoWjC4n+exZOHnkdhy1qtdU3p2ai8jhg2Rp554XP71+lSZPet9+XLRQnuGbNfOnXLs2DGnjRTBgBf4gSf4gjf4g0f4hFf4hWf7I42Gd/j/KX3QDx15HrqiLzqjN7qjv5qtGHE6syEGW0N+xujBe0bIB+/NlPdnzrB/8xNH8WGh9jmIyxazsKUJj/MYornfxss3OiWGV7dvoNpvTM5qJrffeovdKr/+6it2yblu7RqzJNolubkH7S/CHDlyxDab37+Ggfqok3qpm/rhAT7gBX7gCb7gDf7gET7hFX7h2fJteIf/gpoE68Xj6Iie6Iq+6Mzf6I7+PIfXqtmKAWcyG1vL3z30oHzz9Uojfq6sWLZM/u+Vf8jo+++V9tdl8UWedkvKFvJ0X29N2EYwIrvLlfK/vlTKXv5L2xj8MESzjLr2RwP5zvqhtwyQB+4ebr/n8IVnJ8g0swWf89Fs+Wr5Mtm0caPs37vPaU9/gHqoi/qok3qpm/rhAT7gBX7gCb7gDf7g0V3ew+9P8m9eg07ohW7oh47oia7oi87oje5qtmLGmcyWYZYXD913jyxfusRpDbMFPnHCiPK1/P1vL5pjhNukfYvmVhy+4hrhK5S6XPhNsVM+6Rsc9r7Al4AyD03CUsYa8erAL4zSTHzMI6teulzfoZ092B/z4AP226Amv/BXeeetN+WTjz+S+Z/MlcULF8jKFcttTuvWrJEtmzfbL7LZvm2b7Nu7x+4l2GMQnEw4ZqK49pJ2b2TGs+M6cwR+n22PnZ88yIe8yI88yZe8yZ86qIe6qI86qZe6qR8e7Nlewwv8wNOpey0ThXDMY/CPDuiBLuiDTuiFbuhHTujpAp3RG93VbMWMopqt4IdH+VWVvaahvl31jfz7X/+SRx/+rf1JW341kwbh9QTLFXfJUthX5NmmcJY21nCmOfiKbHdLTT58CVFSZA17HEE+9ZOT7JUPWZkZ0qZpY+nbtYs9MXD/XYFfHn1h4rPy0l8nyZSXXpS3p/1L5s2ZI18uXGhj0YIFptkX2r0IRsAcGOZsg9fxesZhPMZ152A+5mV+8iAf+8ujJj/yJN82zRrb/KmDeqiL+qiTeqmb+uHB8mF4cY0GX4XxCL8FOSfQA13QB53QC93Qr+CvBqGzmq2EcK5mC8bBAwftFnLG9H/LhKfG2R904Bt3U+OiTaNcZX+w79orL7Pj0TBF/q1o8zwahY/nn+43tfmf57IX4BimSXqq5GQ1NUuk5tIx+zrp3bmj/TAk3xxFDBlwkwy5ub9p+oH22OSxMQ/LH3835qyD1/F6xmE8xnXnYD7mZX7yIB/yIj/yJF/yLrbf1DbPg1f4hWf4hnf4Rwf0QBf0QSf0Oh3UbCWI4jBbMFhOse5/5e+T5Tcj7ra/lnldg3pm+VLLnoqOM1ttts40FcEvZv54aRTcUIHlZnDwvILhbs1tsPV3gnELj8CJhPMNxil8/B9ysBGUX2H5F6zRLg+DeHDrZlz4gjeXQ+6DV/iFZ/iGd/hHB/Qo6nubarYSRHGbDfDLmfyWNGfR+CWVGW+9ZY5J/ix3DR5klzLpNePNccYPnySwjVlIIxZsQILcTo1AE9rXm3E4CUAzusFeglPc1HJqlLLHMexNzjV4PeMUHJv5mDc4D/JyTefWVrCWgrUSwXy4HMGXyx08wie8wu94w/M7hm94h390CPxya9GgZitBlITZCoLjgg3r1slnn3wib77xukx6Zrz84bej7ftDN13fXdqZA3aOW/ipWhrTnqk0yyv7I36moQPHLIHmpdHcBvBLUI+7x7IbB1MvdVO/XWYaPngMfuAJvuAN/uARPuEVfuH5fD5nqGYrQVwIswWDkws0A1ehr/7uW5n9/nvyt0kT7UWyt97Y1x5j8JNGLIf4hqfk6Eh7cM8yiS8PZWvPVREso9wTKQEjBsxo95SEs7wruLd0g3Go83yj4N7HDXcPZPNw9kLkR57k6574oA7qYRzqo07qpW7qhwf4gBf4gSf4gjf4g0f4hNfigJqtBHGhzVYQXNO3dcsWWf3tt3YOruv78L135fXXXpFnxj5p32fiW3o5Hc6Jhnq1kySmSiVzrFI6cKXEVYGTCuR6cvnmhmnigPECx02B5j91KXe+caqxguZxzeXkYvdY7nLW5Eve5E8d1ENd1Eed1Evd1A8P8AEv8ANP8FVSv4GnZitB/NxmOx3y84/Llu83y+IFC+S9mTPkX/83VV5+6W/mmORJGfObB+TeO++Q4YNvk4E39JEbenST3l06Sdec1pLTvIm0aFDPRKY0SUu1p9O5yoLv1nCvXOHUOkYo7yzTzjV4PeMwnnslB/PwN/MyP3mQD3mRH3mSL3mTP3VQD3VRH3VSL3VTPzxcSKjZShBeNZsLlkicSeM3owOXMOXKgQMHZP++fbJzxw75esVy+ezTT+WjWbPk3/98w17tPn7sn+0JmT/+foz9NDKn4vv37ikDevcyTd5XbujeVVo3bSyZSTWlbnyspMbF2Nuihvt8Xs84jMe4jM88zMe8zE8e5ENe5Eee5Mub2+RPHdRDXfbSNFMn9Z7Pcdf5QM1WgvC62YqCY0eP2W+I4uvY+BzX+nXrTKy1xzSclVvw2Xx7beHnZim24LPPZP4nn8gH774r06dNk7eMAc41eD3jMB7jMj7zMB/zMj95kA95kR95kq9XoWYrQfjBbIrig5qtBKFmUwRDzVaCULMpgqFmK0GUlNm4kPx40NXkigsP+D9bCdRsJYiSMtuR/BOy4/Ax2WniyHE13YXEUcM3vMM/OpwN1GwliJIyW+6xfFm6O0+mbdwrr63bI+9s2i+f7ciVr/cdlo25R2XvUf3q8uIAPMInvMIvPMM3vMM/OpwN1GwliJIy2wEj8uytB+TBJVuk5yfrZMD8DTLa/D3+m53yj3W75b0t+2XJnjxZd/CIbD0U2APuM42Tdzxfjpmt8VlukH0LloLsneAFfuAJvuAN/uARPuEVfuEZvuEd/tHhbKBmK0GUpNk+2HJA7lu8WTp8tEY6zF4jfT9ZLzebZhjyxUYZvuh7eeDLzTJm2VZ58uvt8uLqXTJ94z67dV6lez+LPab+NQcOy1Jjqnk7Dsr0TfssT/AFb/AHj/AJr/ALz/AN7/CvZvMQSnrPNnrpFrl+7jrp9NFa6TpnrXT+eK39u71piHamMYhucwJ7vpGLNssfVmyTZ77ZYZvqVbv83CcfmnE+3X5QFuzKla/2HpL1B4/KJmNGtvAHzTyHzTHK0YtkV0ie5Eve5E8d1ENd1Eed1Mty8FWzx5r43U5rrkeWb5V7jIHgCb5c7uARPuEVfvkbvuFd92wew4UyWxfTDD3MbXfTKAQN0800RyDW2cd4Xi+zBOptttB9iE/XSz9zS4PdsfB7+c2SzfLnldtl8prd8sraPfLPDXtl7vYDsnBnrizelWf2AkfsSYE9R47LXhP7jubbpua4hVv7t1mOHTLNztKMxi+OOGyCZd7JOZxb5icP8iEv8iNP8iVv8qcO6qEu6qNO6qVu6oeH3oYTeOlp+IGngty5nPIYPKvZPIoLaTZuC4tAA5kts3kOW+iOZuvMUqi92XK3dbbePEaz3TSPZegmGWbizoWb7FJqlDk+YZ4/mK3/n77abht33Kod8tfvdsnU9XvkX6apX18fiH+bPeXsrQflc9Pwi2j88whev8AEe6N3vt9/cg7mY17mJw/yIS/yI0/yJW/ypw7qoS7qo07qtXWb6Bi054JDeHI3TIWFms3D8ILZzhQ0l7v1ZqnEWDSfa0waMticLK+4nz3koM83yu0LAg1N3GX2HA8t3SqPmeXqE44JzjWeMPG4id+b4yeWeHaOzzfZ+ZiX+cmDfFzzkCf5cr9bA/VQV/AeqjAeihJqNg/jYjAbQQMGm85dRtGkbjBHcAQvT91g74EJ+polWnEFSz2WecHzMC/zF8wpOF+3hmCTFcz3bIM5uFWzeRAXi9nOJVxTBje2a0r2KJ2KKRiL5V/wHNwyf2F5lWSo2TwMP5vtvzHUbB6Gms1foWbzMNRs/go1m4ehZvNXqNk8DDWbv0LN5mGo2fwVajYPQ83mr1CzeRhqNn+Fms3DULP5K9RsHoaazV+hZvMw1Gz+CjWbh6Fm81eo2TwMNZu/Qs3mYajZ/BVqNg9DzeavULN5GGo2f4WazcNQs/kr1GwehprNX6Fm8zDUbP4KNZuHoWbzV6jZPAw1m79CzeZhqNn8FWo2D0PN5q9Qs3kYajZ/hZrNw1Cz+SvUbB6Gms1foWbzMNRs/go1m4ehZvNXqNk8DDWbv0LN5mGo2fwVajYPQ83mr1CzeRhqNn+Fms3DULP5K9RsHoaazV+hZvMw1Gz+CjWbh6Fm81eo2TwMNZu/Qs3mYajZ/BVqNg9DzeavULN5GGo2f4WazcNQs/kr1GwehprNX6Fm8zDUbP4KNZuHoWbzV6jZPAw1m79CzeZhqNn8FWo2D0PN5q9Qs3kYajZ/hZrNw1Cz+SvUbB6Gms1foWbzMNRs/go1m4ehZvNXqNk8DDWbv0LN5mGo2fwVajYPQ83mr1CzeRhqNn+Fms3DULP5K9RsHoaazV+hZvMw1Gz+CjWbh6Fm81eo2TwMNZu/Qs3mYajZ/BVqNg9DzeavULN5GGo2f4WazcNQs/kr1GwehprNX6Fm8zDUbP4KNZuHoWbzV6jZPAw1m79CzeZhqNn8FWo2D0PN5q9Qs3kYajZ/hZrNw1Cz+SvUbB6Gms1foWbzMNRs/go1m4ehZvNXqNk8DDWbv0LN5mGo2fwVajYPQ83mr1CzeRhqNn+Fms3DULP5K9RsHoaazV+hZvMw1Gz+CjWbh6Fm81eo2TwMNZu/Qs3mYajZ/BVqNg9DzeavULN5GGo2f4WazcNQs/kr1GweRkmZbb8R+YMtB2TUEjXbhQyXZ3iHf3Q4G6jZShAXwmw9jPid1WwXJOAZvtVsHkRJme1w/gn5cleePLpiq3QyDdDmw//YrS6NUFiTaJxfwCv8wjN8wzv8o8PZQM1Wgigps4Hth47JGxv2yB0LN0mfT9ZLz0/WSdc5a6WraYZu5laNd34Bf/AIn/AKv/AM3/AO/2cLNVsJoiTNduzECfk+76jM3XZQXvhul4xYtNk2SPvZa+1yRw137uEaDR7hk//hF57nGL7hHf7PFmq2EgSkhYWE9IyoWL5Qs2UmJcrDDz4gK5YtdeQ4e6D52gNH5J3v98v4b3bIQ0u3yNAFm6S32Qp3/GittJu9xt6yDFID/jhcY8FPMF/wB4/wCa/wC89nuXI8BeiM3uhemNlqVCw/i35Rs50DIC22cuVeUZUrzirMbOk142XUvSPPac8WDBrg0PF82WaWNot358o/1u2R3y7dKrd+tlH6mqbpPdcsM2msOYHGcqO7+Z/4bzEgdbo1B/MAL/ADT/AFb/AHj/AJr/B7PkYD6Ize6F6Y2cztB/SLmu0c0Lt376uzGzbskxIX/aEhkmWCJdfs6aRayNVSK6qGDOzXR+bNnePIcf44YjpiY+5RWWwO4N/fckBeNQ3z1Nc75P4vN8uA+Ruk48drJMcc6Lf/aI10Ctrj+dl0rsmok3qpm/rhAT7gBX7gCb7gDf7gET6LC+iM3uiO/vSB2xP0h+mT2fQLfeO0kKKomDx5cqmhAwd2bpKW+g5kRjhbMkgOLx8iEebv5pnp8uLE52T/vv2OJMWLPUePy4q9h2Tm9/vkxdW75A8rtsp9prGGL/xehn6xSW42jcaBPycBOpoG7OAEDckxC+Ea0mumDDaRayQ3Z/J3a6Eu6qNO6qVu6ocHzizCC/zAE3yVBNAXndEb3a3+jtnYw0VVqnCscWrKDPqFvnFaSFFUGI4vfWz06MyszPS/maXk0cigLRl/Vyt7tcRUrSQ39+0ts2bOlAP7S8ZwR83Wmasddh0+brfWS3fnyXub98tra/fI+FWB47zBpgH7feosNws0tBs09tlG8OuLFIWMUZQIHiM4d+qhLuqzx1+mXuqmfnjYZPiAF/iBp5IAuqIvOqM3uhfsBfqjeUb6S/SLecmlTgspigpD2iWTJ0yocF2Deg/HV6+aF1Olot2quSSHlb/GEF9GksyyYujNA2TO7A/l6JEjVqCSxt4jx22jfb3vsHy2M9cund7cuFf+sXa3vGC29H8xTclWf8yyrfLAl1tkiLMXvMkEe4nWH/zHBu89tf1wjT2x0L5AuHsV3ptiT/OTwXNM8HxeW3A8/mce5nPnJg/yIS/yI0/yJW/ypw7qoS7qo07qpW7qvxBAT3RFX3RGb3R3e4C9m+kNSY6JzMtp3vR39It52SVOCynOFl1zcnrXq11zVWJ4tXz3oNgN/q9U+gqpHR0hI4YONlvAGbJt6xbJzz+7qxOKCwfNFn7roWPy7f7DssA059ztB+Vdsxd4ec1umfTdTnn2253yyPKtcs/izTbuNTFi0fdyx4JNMszE7U7w95AvNsrAzzbaYyIMcabgeZycCB7HHYvxmYf53LnJg3zIi/zIk3zJm/ypg3p+DqAfOqInuqJvRaNzsP4Yrca1ZSU5OiK/RcPMVf379ujrtIziXDFm1KjU6zu2ez41PmYrx23BB8YEW7vq5a6ROjGR0r19jvzlySfku29WObL9POB9pLzj+bZZ95njGN7E3ZJ3TDbnHZV1B4/IatPMBE292CzHuDB3xvf77fLsfRPvmr+nbdgrL63eLRO+CZj0uZ+IZ81zeB6mmWGOn2aZPRFjEYzL+MzDfO7c5EE+5EV+5Em+5H0u74MVJ9APHdETXdEXnYN1pw/oh7oJsVv7duvy/B/+MCrNaRnFuWLZ3LkhI28f3KZxWsrspMgwiWY5GWQ4Tv2GmQPmylddaW+z6mfIQ/eOlHffni6bNmxw5PM2aPC9ptn3O+EadM2BI7Jy72G7fPvJMM/heRiIcTCNOxb/M/7FAPRCN/RDx2Bd0TnYaPRBUmS4NE6rM3v44FvbzJw5s6zTMorzwcCBA8tkN21wb2athG/NQfKPlpME94WbZQURG1pZurTJlonjn5blS5bIrp075PChQ46kCi8BXdAHndAL3dDP1fJ0WtMH9AN90a1btzJOqyiKAz1atQpPiY1+IKpyxW8De7ZTl5OuCLwHw9aQLV/zeulyU8/u8qdHficff/iB5B486Eis8ALQA13QB53QC93QDx0LMxq6oz99QD/QF06LKIoTFcpcHhFRqfyo2NAqX5uQaJYWQUvK4KheroxUMqJVLVNa6iXVlMEDbpLnnxkv7814R5Z+uVh2bN/uSK64kIB3+EcH9EAX9EEn9EK3wvREZ/RGd/SnD+gHpzUUJYBLIiOrVEtJiBmVHB25Kia08pFgMYLF4eCZNz/DzME1W8i4alUkOSpCshs3lJG3D5VX/z5Zli5eLDt3bJeDZgt75PBhOX78wpzS/m8BfMIr/MIzJoN3+EcH9EAX9EEn+2Z1wb1ZkK7oje7oTx/QD4G2UJQYmmTWiWrdtMGQ1PiYt4wAexGisDOV9n5zH0JWvrqUXHvFZVK97DWcwZK2LZrJgN495YERd8mEp8bK22+9KUsWL5I9u3c7raI4H8AjfMIr/MIzfMM7/KMDeqAL+pxOO9d86Ize6I7+TisoLgTmzZtZtmXDeh2TompMSggPXVmzRvUjCWFV7ZaQLeXpxOMxTiVXMSIjdGTla6VxWorceH13GXXPSPnrcxNk1rsz5Yv582XVyq9k08YNsm/vXsnXvV6hgBf4gSf4gjf4g0f4hFf4hWf4hnf4P5NG6IieVlejLzqjN7o7LaC4kBjYtu2VbZs0iWvZqMHQphmpH6fEReeZA+wTiPbDqeJTBUVMznJVL1tGQs1BOLfcnxAWypUIkhofK41S60i3tjly7513yDPjnpTpb06zS6CtWzZLXl6uHD92zC6RTtg3z3/e96QuHE7Yeqmb+uEBPuAFfuAJvuAN/uARPuEVfoP5hv8fGy3wv6sbOqInuqIvOqO3I73i58LokSOrtG/Von1WvYyHG6YkT8+olbC9dlQNiTKiFS7sD8FjvI9T9ZqrzAH6FVLu8l9JyGW/sPex3GnZqL707NTBHsjfd9ed8uhvH5Jnnx4nr0z+X/ue0Befzbdvwm7bulVyD+Y6jekPUA91UR91Ui91Uz88wAe8wA88wRe8wR88wie8ct+ZNEAn9EI39ENH9ERX9HWkVngF06dMCRlyS//2RqCnM2vX/LRWjbD1CWHV9nP9XHSVClZUNwoT3A2WMQQNQKOw7GGrHBpylV3e0FStmzSSG3p0k5F3DLWnrl947ll549VX7KnsJYsW2c9ffbNypaxZvVrW/Ge1XWbt3LFDdu/aZYOl16FDh+yeIv+4s8dgb1lMV28wjjumOz7zMa+bA/mQF/mRJ/mSN/lTB/VQF/VRJ/VSN/XDA3zYvZXhB57gy+UumM+f4hpd0Aed0Avd0A8d0dORVuFFTJ06tXT/Xp3DOrW+rnnH7Ba/Mc3xZnrNuPXmANuIW9j7NoUHjUDzuEbjA4v2mMPc0li8H5RYo7qkxEbZTw+zdGqWmWa28A2kbfNm0rVNttx6Q1+ztLpd7r97uDz++zHy8ksvymtTXpZXX/67vPXPN2Te3Lny1fLlsnLFClmxdJl8tWyZfPftN7J79y7HMucGXs84jMe4jM88zMe8zE8e5ENe5Eee5Ns1J9vmTx3UQ13UR53US93UH8yHa7gzrSIKBnqgi9FnHTqhF7qhHzo6kiouBkyY8GTEbf36tTZNMywlIeYps0V+OzU+Zm2tiLDjnHJm2WLPYjpbY3eLXFhjuMHjXAB70oSm4bgYusKVl0v5Ky6Vspf9UkIu/YVUvPLXEl25oj1uMcce0rhuinTKbmmOadqYhm4tvbt0lMH9b7SnwUfePkxGDB0iI4YNlftZqj48WsaP/bM5Dhp71sHreD3jMB7jMj7zMB/zMj95kA95kR95km/FUr+2+VMH9VAX9VGnayrqLxJPLqdOwDe8wz86oAe6NM9MH4pO6OVIp7hYYTb2vxg//vFKt9zQO6dtVrM/mi312wnh1ZbHVKm0KaZq5V3x1aocjjNLmTizlWXL7TZL4D2ewpdD7n1uQ9kwTcjW3Q3+D37cfY0bweMFBycJzjcKG5comENwfkXNv7Dx7AmOoMfhET7hFX7hGb7hHf7RAT3QBX0cqRR+wezZs0v369EjsklanboZyTXbNEpPHZpVP3N883rpH9Wvk7Q5NS5GEsOqBfZ4LDmdximsyc4UPJ8GtY3rHPdxCRJ7B4ITB1XKlLKXJtm4OnDLVRTsXdijnGvwesYJHpdgPuZ1cyAfu/wLOt46lzpPvsb+HdiDwSN8wiv8wnOTtNRh8A7/6IAejjQKv2P69LkhI+8cUrdfty49Wzdv/ECjlDoT6iXXeq1uYtwHKfHRy2pHR2xMDK+2PymyhtSJjjBb6kqBJZFpKhrKNWXwlr9gM17MQT0/1BYwUaBmYypzH3zAC/zAE3zBG/zBI3zCK/zC88zX9D2y/2qwhJk4ceKlXbt2vWL06NHXjB07Nvau225r26dLp+EtGzUcl1kz4XXTOF/Wr524zRxr7DTLo73RVSocNE2XF1mpwlE+qs9V6gR/2yVcQdMF/W8btcDjpzZ18Rj2p8bk/1PuKzin+Z86CtZGvdRN/fAAH/ACP/AEX/AGf/AIn/AKv7pUVBSKEydOlHrqscdCr+/SJbFJenpmVmZadutG9Xu0a5k1rN11zR9tml53UmJY6NSEsNA5GbUS1jSok7QvPTHObOUj7XGKbV4a1mlc29hOWAOYJRv3RVUONDdLOHvq3ERxGI7XM469NtRZInI/89nHnCWjm5Obn5svQR3UQ13UR53US93UDw/wAS/wA0/wBW/w51CpUJwbTBNdsWjRvKh7hg/LzEyIyU6Jjb6xVZMGD7bNajKuWXrq39Li416vGx8z0yyj5tSMqD7fLK0WmaXVV8kxEf9JCK++ITE8dEtqfMz+tMS4I+aY5khEhfJ5saFV8s3/0jg1WerXrmmOc6LNkixU+M4VrnLnfagiB3sj3pIwr2ccxmNcxmce5mNe5icP8iEv8iNP8iVv8qcO6qEu6qNO6qVu6ocH+HCoUSiKH2Y5dImJX2VnZ1/eJCGhdK+cnJCebduWb948o2KjlLjKjz/ySNKz48Zdd2OPLh3M1r9Pz47t7+jarvXDTTMz/tSwbvKz3dvnTOvRod3H9ZJqzQ4vX+69pKiIz3Oymu3o3aVTbufWrXKz6mfkmubPNXuZXLMHyjV7mSIHz+d1vJ5xGI9xGZ95mI95mZ88yIe8yI88ybevyZv8qYN6qIv6qJN6qZv64cGhRKH4+eA045VTpkwJmTTpqdAxD46M7d6pU82OLVumDh82qNmdgwbltKif0SY8JKRVanx8x16dOwwYdsuAQTf17DmoXVazQWmJMYOMaQaFXVtuUA1zW9Tg+byO1zMO4zEu4zMP8zEv85MH+ZAX+ZEn+ZI3+TulKBQKhUKhUCgUCoVCoVAoFAqFQqFQKBQKhUKhUCgUCoVCoVAoFAqFQqFQKBQKRfHgf/7n/wEN6K5ammTiGgAAAABJRU5ErkJggg==;" parent="1" vertex="1">
                    <mxGeometry x="721" y="310" width="59.5" height="59.5" as="geometry"/>
                </mxCell>
                <mxCell id="24" value="DB" style="text;html=1;strokeColor=none;fillColor=none;align=center;verticalAlign=middle;whiteSpace=wrap;rounded=0;fontFamily=Noto Sans JP;fontSource=https%3A%2F%2Ffonts.googleapis.com%2Fcss%3Ffamily%3DNoto%2BSans%2BJP;fontSize=14;fontColor=#FFFFFF;" parent="1" vertex="1">
                    <mxGeometry x="735.54" y="370" width="29.91" height="30" as="geometry"/>
                </mxCell>
                <mxCell id="29" style="edgeStyle=orthogonalEdgeStyle;html=1;exitX=1;exitY=0.25;exitDx=0;exitDy=0;fontFamily=Noto Sans JP;fontSource=https%3A%2F%2Ffonts.googleapis.com%2Fcss%3Ffamily%3DNoto%2BSans%2BJP;fontSize=14;fontColor=#000000;endArrow=open;endFill=0;strokeColor=#FFFFFF;entryX=0;entryY=0.5;entryDx=0;entryDy=0;startArrow=open;startFill=0;" parent="1" source="26" target="5" edge="1">
                    <mxGeometry relative="1" as="geometry"/>
                </mxCell>
                <mxCell id="31" style="edgeStyle=orthogonalEdgeStyle;html=1;exitX=1;exitY=0.75;exitDx=0;exitDy=0;entryX=0;entryY=0.5;entryDx=0;entryDy=0;fontFamily=Noto Sans JP;fontSource=https%3A%2F%2Ffonts.googleapis.com%2Fcss%3Ffamily%3DNoto%2BSans%2BJP;fontSize=14;fontColor=#000000;endArrow=open;endFill=0;strokeColor=#FFFFFF;startArrow=open;startFill=0;" parent="1" source="26" target="12" edge="1">
                    <mxGeometry relative="1" as="geometry"/>
                </mxCell>
                <mxCell id="26" value="Webブラウザー" style="rounded=0;whiteSpace=wrap;html=1;fillColor=none;strokeColor=#cccccc;fontColor=#FFFFFF;fontSize=18;fontFamily=Noto Sans JP;fontSource=https%3A%2F%2Ffonts.googleapis.com%2Fcss%3Ffamily%3DNoto%2BSans%2BJP;verticalAlign=top;" parent="1" vertex="1">
                    <mxGeometry x="80" y="205" width="240" height="110" as="geometry"/>
                </mxCell>
                <mxCell id="27" value="JavaScriptで&lt;br style=&quot;font-size: 16px;&quot;&gt;画面をレンダリング" style="rounded=0;whiteSpace=wrap;html=1;fillColor=none;strokeColor=none;fontColor=#FFFFFF;fontSize=16;fontFamily=Noto Sans JP;fontSource=https%3A%2F%2Ffonts.googleapis.com%2Fcss%3Ffamily%3DNoto%2BSans%2BJP;verticalAlign=middle;align=left;spacing=2;spacingLeft=6;spacingRight=6;" parent="1" vertex="1">
                    <mxGeometry x="150" y="244.5" width="160.27" height="60.5" as="geometry"/>
                </mxCell>
                <mxCell id="2" value="" style="shape=image;verticalLabelPosition=bottom;labelBackgroundColor=#ffffff;verticalAlign=top;aspect=fixed;imageAspect=0;image=data:image/png,iVBORw0KGgoAAAANSUhEUgAAANoAAADbCAYAAAALQY9+AAAAAXNSR0IArs4c6QAAAARnQU1BAACxjwv8YQUAAAAJcEhZcwAAFxEAABcRAcom8z8AABizSURBVHhe7Z0JWFTlHsZRMxdQQXYQ2UFRWRRM5aKmglKioMgigmneFjJMccOrZqVmNyvvbXm0Tat7u7a5ZGlouSO4ZIaWoYK7uWG2oLL+7/f/5gwRjUccpmFk3t/z/J4hO+LMN+97vnPOnHPGAgAAAAAAAAAAAAAAAAAAAAAAAAAAAAAAAAAAAAAAAAAAAAAAAAAAAAAAAAAAAAAAAAAAAAAAAAAAAAAAAAAAAAAAAAAAAAAAAAAAAAAAgInxwvz5rtMmToyYPT1zxJNZ05PEY8LcmdNGQdjQchaVTI7gjHJWldjeGWRnZ1umjx/vnhw7tN+wyP4ZcdGR76aMjNsxNmnUvrSE+Ly0xPhcCBtckUXOJGczLjrqPc4qZ5azyxlW4myaVFVVWc6aOjluxH1Rb/QJ7JYT5ONREOjtcblHJ9/SsC6dKkID/MvDAvzLIGxoZRZFJjmbgd6exZxVzixnlzPMWVZibXLY97sndExURJ9Pw7sH/xrs40V+Lo7kad+e3O1spB4QmpDaXHJGOaucWc4uZ7hfn9AxnGlNtE2E9PR0qy4ebmk+zg45vi6OpX6uTuTr7EDeTvbk5WgHocnLWeXMyuyKDPs4O+7iTHO2lZg3LJmZmZYPpCSN7RcWsl0UrYzXFJ4OttVPHsI7Rc4sZ5cz7O3kUMaZ5mxzxpW4NwyHDh26e3xSUkh0/4i1vYO6kL9YG/ATrf3kO9pak0s7K3Jq04ocrTQ6QdgAarPn3LY1uVpbyWzWnhQ4wzyzcaY525xxzroSe+OzbNmSjklxQzO6+/sWcMnEjPanJ6wtHj/xTm4uEDawrvLRv4MzbyL+KadafZzt5cTB2eaMc9aV2BufKRnpA0dER63p5u1Z4l5jzcCF8xQ/8yzm7WRH9/bqSRNSUygrczI9NStLOi9rJoRG96l/ZNHcGdMp87FHaWziKJHNMJlZzipnVjtZcJY505xtzjhnXYm98UmJGz4hun/fkyH+PuRh3766aPyE+Wf/Di4UM+heWrxwAW3csJ4O5ufTsSNHpEcLIDS+hUePUsHhw7Q3L5c+W7OaFi+YT8MiB8iscmY5u9qicaY525xxzroSe+MT1Tc8MyI0pDTYx1NOvdqidbBpK9cMsYMj6c2lr9LxokIq+e03Ki8vp6rKKmllZSWERreqSpO90tJS+vWXX+h4YSG9tew1mVXOLGdXWzTONGebM85ZV2JvfEI6+cwI9PaggI6u8ol5iSfIT5J3OHk7eN6smXTyxHECwJQ5dfKEzCpnlrMri6aUjbPNGeesK7E3Pl6O9tPEk6rwdfnjQRD7VndTgIcbvf36UuWlAGDacFY5s5zdmllWsl3BWVdib3w87G2nidZX8BGamk/OrmVz6uLZkd5/9x3lZQBg2nBWObOc3ZpZ5mxzxjnrSuyNz81mtOqivbNCeRkAmDacVV1FM4kZ7VZF+++K5crLAMC04ayiaAD8xZhl0crKSunG9Rsab0BT8Pq1a1ReVq68Q/pTVlpK1/h3ld/6d5Uq/25FRYXyJzenUizDy1dUVCp/cnuYTdF4MIsvX6aD3x6gnO3baPuWLdIdW7dCE3DLpk20Z9cuunD+PFXUoSS14c+tTp88Sbt2bKfNGzdSXk4OHS0okJ9l1YZLeOrECdq5bZtcdrf4d/kkh1/Esvw5WE142XNnztC+3Xm0Y8tm2p2bS0XHjlHJr7/+aVk1zKJoFZUV9O03X9MrL71Ij44bS6NHDKfUUSOhCZk4PIYeTEmmFxctpH17dlNVZd1nDp6VPl+7hmZMnkRpCfGUFBtDY0aOoGkZE2nThvV0raREWVIse/26WNFup2fnPSmXTRw2lEbHDacnHn2Y1nzyMV26eFFZkqhE/L3cnTvpn/OfoXHJiZQcO0wuO3XiY7Ru1Sd0UawURNuUpdUxi6L9dKWYXl3yIoV3DyLXdlbysww+9wyaiG0tyaF1C/lzz26d6aV/Piu2Pi4p7546vKXCs9HjD00gD3sb5Qz6lmTbojn5ujrR1MfTaf/ePXJ3geHZaO7M6XwyLznzv2vZgqzvaiIv0Px72hja+tVXYtkyuSzPiHzeYo/OvvL3Oojc2DRvQl4OtjR+dCJ9+cV6ualaF8yiaEcKfqDHHhwnL11wsGxJrtZt5Kkw0HTk98RRvDcu7SzpkXFpchO/LptmPFt9+cUX8hQn2xZ3yUulOthofpdb+3Y0KLwXLXv5ZSouviyX37JpI8UOiRQrW1FsUTTtv8t/p29od3ptyUv0889X5bKbxebs/QP6y7xpl3Vq05pcxc8hft70/IJnxObmz3LZW9Hoi8ZvFp/gyZsTvObiwap9uQ1seOV5gOK9sROzRuLwobRt8+bqmUUN3gdb/eGHNKTv32Qu3O2s5e+Tt7awb89nx9Ps6VPp3NkzcvkP3/+vLBRngf8//7v8yOcdhohZbsHcOdWl/HTVKuoT1I3aWFiI/69Zln+3m1gxOIvCTUl/RGwtXZHL3opGXzQ+wTP/m/1yqudNRl4jad8EaEKK94RnFtsWzWj0yFjKzdkpD3DcCt4/27Rhg5x5rJs1kTMiv79cBC5ueEgQLXn+Obp0SbPvxftyUeG9q1e6vCzPVjyr9gkOpH8tfp6uXv1JLvtVdjYN6tOL2jWzEOVqI58jl8xF/G4fZ0ealzWDfr6qmf1uhVnMaLzTytcJBbi7yYHqaNtO95sNG0xZDhF4fn8mPfIQFRUekyvJW8HL8GZmWuIouR+lLQ+XlmepCWNS5CbgjevX5fKHDubTuKQEchPLabJgLf8en+SbEHM/fbzyf7K8TP6BA/RAcqJ4frYyM7wsP0dvRzuKGTRAnu3BHyXUhUZfNIYPF/Mh/VlTp/C1P/IaoG7eHtIgHy/YgGrfhx4B/jS4bzhNfPBBWrd6FZWU/Ka8e7fmith8+99779KElNFyBurR2Y96i02+B0ShPl658g9HEvkQ/uqPPpBHnwf0CqMenfzETNZNHoFc/voyeQCEPzNjrhQX0ycfrqT08Q9Q37Du1M1L8zzHxMfR8jdep6NHCur0GRxjFkVjeM333aF8ev3VV2japMflUSo24+GHYAOqfR/40Pwbr75C+/fuldcW3i68Ccefob384mKa8UQGPffMU7Rx/ed08cIFZYnfuX7jOuXtyqElzy2Syy56ep7cpDz/47k/HYDhQ/w7t20Vv+9p8Xz/TnNmTKc1H38klv1RWaJumE3RGP487dzZs/TD99/Tofx86XdiUwI2nNr34YfD39OP587W6YyOm3FDFOjMqVPy/T1xvEjnh9VaSktvyOvE5LJFhar7WrwpeaKoSD5fnsV4Br1dzKpoADQUKBoARgBFA8AIoGgAGAEUDQAjgKIBYARQNACMAIoGgBFA0QAwAmZRND6p5npFFRXfqKCz18rodEkZnYVQD2V2RIY4S5yput7MwCyKVlFVRUd/uUEfnPiJFh48T7MP/EhP55+H8Lbl7HCGOEtHfr4hs1UXzKJo5XzxZ3EJzRcDFLf1OA388hjdv7kIwtuWs8MZ4iztuVwis1UXzKZo+69co+e/u0gpO09QzNYiit9+HMLblrPDGeIsfV18DUWrCQ/GN6JoL3x/kdJyTlLctuOUtOMEhLctZ4czxFnaj6L9ERQNGkoUTQUUDRpKFE0FFA0aShRNBRQNGkoUTQUUDRpKFE0FFA0aShRNBRQNGkoUTQUUDRpKFE0FQxUtOecUjc49A29i8q7TlLzzlM6xayyiaCrUt2gcoJS8c/Ixabv4u6yO5cxW7XjsPEmjdymlEz//ablGIIqmQn2LlrL7Rxqz9wKN3Pg93f/BTunQj3ZBrR/myMfha/dRwpZjcrxGa1dKOsbzThZFU0Hvoom1Mm8ucoAiXvgPBWU8TZ3GTZV2fnA61Dp+GnUeN426PvwP6jnnFRq8YiPFbzqsKVsjm9lQNBX0KRoXjPc3Rn1ZQL2fWUo23e+l5rYd6S4HL42O3rCm9p5SK79Q8kuZRPe9v5VS913UbG7rGN87VRRNBX2KNjrvrNz0if7PZvJLnURN2ruRhcVdZHFXW43N28GaNmtDFk2txBi1IpvgfjTgtdU09sAVsb8mxlHH+N6pomgq6FM03s9I3FpEka+vI88RE8jCxlWEqCVZtGxPFq1soS55bCyaUEv3rtTvpZU0Nv8qiqaAot1EPnqWtP0ExXy8i7o+MptauHXWrLnbOpNFOxdYWx6XNk5yjKyDImjAq6soTc5oYhx1jO+dKoqmgj5F4/0zNmHLURka3+THyKnPfWR3z2Cy6zWY7HsPgTW0uydK2mFQPAVPmk9DP8qllL3n5b6urvG9U0XRVNCnaCwXjdfI8Ru/p8Fvb6DwZ9+mnnNe1jj3FVjT2f+W49LvXx/Q8NV75GF+WTIcdZSgaLdQGxYOzsjs72jE+nyo02/lY/yXBZqxwwfWfwBFq4N8lgPv1Kfs4Q+uz2vcA/+gMi4pu8+JlVPjOqRfUxRNhfoWTSrKxoWD6jbWmUwriqaCQYoGoRBFUwFFg4YSRVMBRYOGEkVTAUWDhhJFUwFFg4YSRVOh3kXjI2o5p+RlH/LCRviXyB8LyCOXut4DExFFU6G+ReMQjNkn/u6Bn+SJstJvoUHUjqcY29SvL2mumjDhsqFoKuhdNDmTnaZRXxXIk4sj395AA5euFa6hgcvEI6y/cjzXUuSb6+n+D3bIs290vhcmIoqmgl5FUzYXeVNmyDubKODvWWTXewi1DeilsVs4NIRdekvt7okk3zGTqP+SlTTyi0PyPTDFE5JRNBX0KVqy2Fzkx9hPv6bQGS9Qu659NBd8WrTQXJdm0QoaRB5LoRjb1t7B5JeSQZFvrKPErYXydK7a70tDi6KpoE/RRuedo8RtRRQlNhe9Ex+lpnbuZNHEkixa25GFpYPQHhpMMabyWj8Xah82kHo++QqN2nxE3hBJ13vTkKJoKtSnaJFvfk5e8Q9TU76VQVNRNCtRsjaO4hEaRB7LNmJMm1vLC0dtuvensNn/lvvFfABK13vTkKJoKuhTNO1NZeSmY9ZL1L7HvdTc3pOasbg5j+F08Jbj2czGjaz8epB/2mS5FZG4rVCu7Gq/Lw0tiqaCPkVjeWecb5x6/8rtFDRpPrkPe4BcBydJO0SPhoZwSDK5spEJ1GnsZHmPlqQdx8XYm+aVACiaCvoWjd9oLhrvmMd8kktRK7LlpqT0rfXQEL6p9XN5izreZJR3hTbBkrEomgp6F03Ka1cxs/HdisU+A9+rEP418oWjpn4fSBRNhfoVTcifqfHpV8qXOcC/wrOa07BMdCbTiqKpUO+iQaiIoqmAokFDiaKpgKJBQ4miqYCiQUOJoqmAokFDiaKpYLCi8REx+Lu6xqiRi6KpUN+i8SFnviBxzL4LlLr/Mvz6kjzht/oiTTP6qmEUTYX6FE1eEyXCpL0leNxnByh23Tdmbdzn38qxkPfX5y8DMcHrxv4qUTQV9C0an2/Ha+34TT/I04X4rPKuj8yhzg/O0DhhpnmpvObAifPonrkv0+Dl2ZSw9Zi8Vbq5bEqiaCroUzTeXOQ1NV8qM2jZOvJNeZxse9xLlr49qJVHILUUtvI0M5XX3MY/jOzDBsrvro5a/gUlbCsURdNcja5rLBuTKJoK+hSNTwdK2nGShq3eQ4GPPy0D1qSFjeYL98xZ+aWDTtSklS217dqbgqcslCdc871V+FQqXWPZmETRVNCnaCl5ylfrvvGZ5qt1rUXA+JL71vYkL/5k5ZXWZqT2dfPX6Fq0puYuvuSTPJEGr8jWnAvKB0d0jGVjEkVTQa8ZjUPDXxb/3mZ5MSJfnGhhcbfmdgbNrDRfjm6W8hfCtxY2F5uSXanro3No6Ic7q0+61jWWjUkUTQV9ipYk9s9G8z7alkIKf3Y52YYNoqY2HeQtDZradhS6m6nitfM4tHUhp74x1P9fH8jr9Xh/FvtoNwdFU1Feh5Z3joav3Ufhi5ZT92n/pO5TnxOKR/7ZHOXXzmOQuYgiFr9HcZ8f0MxkOOqoCopWB7lwvCnJtz+Dv8vXkJnTZ2gsiqZCvYsm9j9S+Otj+SpgWC1fdY6ioWjV1LdoEGpF0VRA0aChRNFUQNGgoUTRVEDRoKFE0VRA0aChRNFUQNGgoUTRVDBE0eR1V3yakdmp+cpbc72iurYomgr1LZr2khn5mREHzsz8w2vXMT7mJIqmQn2Kpg1Z4vYiGpl9iGI/3U/DhbHrGr/8Ood/+jXFbzwsx4BnOF1jZE6iaCroXTQZrjPyq5v6vvhfCp2xmEImP0vBwpApixq9wZMXUvATC6jnk69S1FvrKT77O7n5bM4zG4qmgj5F08xkpylhayH97fl3yDEihlp3DPj9amOvoMYvv073btSmS2/yTkynwSs2UgrflEf52mFzFEVTQZ+i8UnEiduP05D3viK/1Ax5iQhfg1V9XRZ/n3Vjl19nU77+rCVZ+oVSxOL/UOr+YnlFg64xMwdRNBX0KRqfnc7XWQ14bRV1jEnVXMLPX27e0pYsWtmZjy3ayxVMC7fO8lKhtG9E0cTY6BozcxBFU0GvGU25Wjjm41zq8lCWcoW1KBrfykDXZf6NUvFalbLZBPelfktWihntklncsuBmomgq6FM0eVh7p/YuWJ+Sb0oGOYRFUrtu4dRWaB0U0ahtF/g3+WgbNpBco5MpJHMRDf0oR85m8oCIrjEzA1E0FfQqGqt8hiS/WlfMbLzpxN9lHSiUR+QasUFPiNc45VnqOedlGrhsLcWtz9fckdjMP0tD0VTQu2hCntV4U4nX4nx33phP8qTDVu1u1MrXuHoP8Z2JE7YcrR4DXWNkTqJoKtSnaFrlB7Z8O4M9P2rc3cjVvsa8c5rD+TgrRIqiqWCIomk3I3mtLs1p5Fa/RvGaUbJqUTQVDFI0CIUomgooGjSUKJoKKBo0lCiaCigaNJQomgooGjSUKJoK2qItFoOTKgYpVgxWohg0CG9Xzg5niLOEotWCB2NfcQktPHiB4sVARX1VSMO2FEF423J2OEOcpb2XS1C0mvBgHLp6nZYeuUyP7z1D43JP0SO7T0N423J2OEOcpYM/XUfRalIpvHC9nPaINdBnZ36mVaeu0trTEN6+nB3OEGfpvMgUZ6sumEXRmLLKKvq1vJJ+KqugK6UQ6i9niLNUVsfZjDGbogHQkKBoABgBFA0AI4CiAWAE7uiivf/OCuVlAGDacFZNtmge9rbTvBztKnycf39ibHXR3n1HeRkAmDacVV1F42xzxjnrSuyNz81mNPtWd1OAhxu9/fpS5WUAYNpwVjmznN2aWTaJGS2kk8+MQG8PCujoyq0nL+XJOVq1ok5uLjRv1kw6eeK48lIAME1OnTwhs8qZ5exyhjnLnGnONmecs67E3vhE9Q3PjAgNKQ328SRPB1v5xPhJdrBpK6ZcB4odHElvLn2NjhcW0q+//EKlpaVUWVlJVVVV8hFCY1tVWSUtLy+nkt9+o+NFhfSWyChnlTPL2ZVFE1nmTHO2OeOcdSX2xiclbviE6P59T4b4+5CHffvqonny7Cb07+BCMZEDaPGC+fTZmtW0Ny+XCg4fpsKjR+lowREIje6xIxoP5ufTxg3rafHCBTRs0ACZVVkuJcP8M2eas80Z56wrsTc+UzLSB46IjlrTzduzxN3WurpovGbgJ+zSzkr+9729wmhs4ijKfOxRmjtjOj31jyyalzUTQqP71KwsaVbmZJqQmiKy2ZO8He1lVjmznF1t0TjTnG3OOGddib3xWbZsScekuKEZ3f19C/xdnaqfpFaeeln+2dfFUaw1nOV2cCc3V+URwobTT2S2dk618tFGzjRnmzPOWVdib3wOHTp09/ikpJDo/hFrewd1kU+s9hPmNUNHsWZwtbYi57atyUnsbPIOJz9CaGw5ezJ/bVrJWYyzqd0S08oZ5hJypjnbnHHOuhL7hiEzM9PygZSksf3CQraLGa3Mw85GPtHaTx5CU5czy9nlDHs7OZRxpjnbnHEl7g1Lenq6VRcPtzRRtByxiVjKawPfGtu6EJq6nFXOrMyuyLCPs+MuzjRnW4m5yeDQr2doamR4n8/Cuwf/FuzjRX5iv8zTvj25izUEhKYqZ5Szypnl7HKG+/UOTeVMa6JtYlRVVVnOmjo5bsR9UW/0CeyWE+TjURDo7XG5Ryff0rAunSpCA/zLwwL8yyBsaGUWRSY5m4HensWcVc4sZ5czzFlWYm2aZGdnW6aPH++eHDu037DI/hlx0ZHvpoyM2zE2adS+tIT4vLTE+FwIG1yRRc4kZzMuOuo9zipnlrPLGVbifGfwwvz5rtMmToyYPT1zxJNZ05PEY8LcmdNGQdjQchaVTI7gjHJWldgCAAAAAAAAAAAAAAAAAAAAAAAAAAAAAAAAAAAAAAAAAAAAAAAAAAAAAAAAAAAAAAAAAAAAAAAAAAAAAAAAAAAAAAAAAAAAAAAAAAAAAAAwDSws/g+VYkEWe3unnwAAAABJRU5ErkJggg==;" parent="1" vertex="1">
                    <mxGeometry x="90.26999999999998" y="245" width="59.73" height="60" as="geometry"/>
                </mxCell>
                <mxCell id="32" value="トップページ&lt;br&gt;リクエスト" style="text;html=1;strokeColor=none;fillColor=none;align=center;verticalAlign=middle;whiteSpace=wrap;rounded=0;fontFamily=Noto Sans JP;fontSource=https%3A%2F%2Ffonts.googleapis.com%2Fcss%3Ffamily%3DNoto%2BSans%2BJP;fontSize=14;fontColor=#FFFFFF;" parent="1" vertex="1">
                    <mxGeometry x="367.45000000000005" y="130" width="100" height="40" as="geometry"/>
                </mxCell>
                <mxCell id="34" value="静的コンテンツ" style="text;html=1;strokeColor=none;fillColor=none;align=left;verticalAlign=middle;whiteSpace=wrap;rounded=0;fontFamily=Noto Sans JP;fontSource=https%3A%2F%2Ffonts.googleapis.com%2Fcss%3Ffamily%3DNoto%2BSans%2BJP;fontSize=14;fontColor=#FFFFFF;" parent="1" vertex="1">
                    <mxGeometry x="340" y="235" width="100" height="20" as="geometry"/>
                </mxCell>
                <mxCell id="35" value="APIリクエスト" style="text;html=1;strokeColor=none;fillColor=none;align=center;verticalAlign=top;whiteSpace=wrap;rounded=0;fontFamily=Noto Sans JP;fontSource=https%3A%2F%2Ffonts.googleapis.com%2Fcss%3Ffamily%3DNoto%2BSans%2BJP;fontSize=14;fontColor=#FFFFFF;spacing=2;" parent="1" vertex="1">
                    <mxGeometry x="370" y="340" width="100" height="30" as="geometry"/>
                </mxCell>
                <mxCell id="36" value="データ(JSON)" style="text;html=1;strokeColor=none;fillColor=none;align=left;verticalAlign=middle;whiteSpace=wrap;rounded=0;fontFamily=Noto Sans JP;fontSource=https%3A%2F%2Ffonts.googleapis.com%2Fcss%3Ffamily%3DNoto%2BSans%2BJP;fontSize=14;fontColor=#FFFFFF;spacing=2;" parent="1" vertex="1">
                    <mxGeometry x="340" y="265" width="100" height="20" as="geometry"/>
                </mxCell>
            </root>
        </mxGraphModel>
    </diagram>
</mxfile>